<?xml version="1.0" encoding="UTF-8"?> <!-- Generator: Adobe Illustrator 24.0.3, SVG Export Plug-In . SVG Version: 6.00 Build 0) --> <svg xmlns="http://www.w3.org/2000/svg" xmlns:xlink="http://www.w3.org/1999/xlink" version="1.1" id="Layer_1" x="0px" y="0px" viewBox="0 0 88 88" style="enable-background:new 0 0 88 88;" xml:space="preserve"> <style type="text/css"> .st0{fill:#4285F4;} .st1{fill:#FFFFFF;} .st2{fill:#1967D2;} .st3{fill:#174EA6;} </style> <ellipse class="st0" cx="45" cy="44" rx="39.8" ry="39.8"></ellipse> <path class="st1" d="M7.7,41.2L27,46c0.2,0.1,0.5,0,0.7-0.1l47.6-22.6c1.1-0.5,0.5-2.3-0.7-2L7.7,39.1C6.7,39.4,6.7,40.9,7.7,41.2z"></path> <path class="st2" d="M29.4,68.1l-2.6-21.9c-0.1-0.4,0.2-0.9,0.6-1.1l47.4-23.7c1.1-0.5,2,0.8,1.2,1.7L31.2,68.7 C30.6,69.4,29.5,69,29.4,68.1z"></path> <path class="st3" d="M29.4,67.6l6.5-16.1c0.2-0.6,1-0.8,1.5-0.5l6.1,4c0.6,0.4,0.6,1.2,0.1,1.6L31.1,68.8 C30.3,69.6,29,68.7,29.4,67.6z"></path> <path class="st1" d="M60.7,67.4L36.4,52.8c-0.6-0.4-0.7-1.3-0.1-1.7l38.4-29.5c0.8-0.6,1.9,0.2,1.6,1.1l-14,44.2 C62.1,67.5,61.3,67.8,60.7,67.4z"></path> </svg> 