<?xml version="1.0" encoding="UTF-8"?> <!-- Generator: Adobe Illustrator 22.1.0, SVG Export Plug-In . SVG Version: 6.00 Build 0) --> <svg xmlns="http://www.w3.org/2000/svg" xmlns:xlink="http://www.w3.org/1999/xlink" version="1.1" id="Layer_1" x="0px" y="0px" viewBox="0 0 512 512" style="enable-background:new 0 0 512 512;" xml:space="preserve"> <g> <path d="M284.9,148.1c0,8.8-1.6,17.8-3.4,26.5c-5.8,27.9-11.7,56-17.4,84c-1.4,6.3-8.3,4.9-13.8,4.9c-23.9,0-30.6-26.1-30.6-45.7 c0-29.4,11.2-68.4,38.7-83.5c4.3-2.5,9.2-4.2,14.2-4.2C284,130.1,284.9,138.5,284.9,148.1L284.9,148.1z M481,79.2v353.6 c0,26.6-21.6,48.2-48.2,48.2H79.2C52.6,481,31,459.4,31,432.8V79.2C31,52.6,52.6,31,79.2,31h353.6C459.4,31,481,52.6,481,79.2z M416.7,267c0-5.1-20.9-37.9-25.6-39.7c-2.2-0.9-7.2-2.3-9.6-2.3c-23.2,0-38.9,10.5-58.5,21.6l-0.5-0.5 c4.3-29.5,14.7-57.5,14.7-87.8c0-44.8-23.9-63-67.8-63c-72,0-108.5,71.1-108.5,124.1c0,54.9,32.1,85.4,86.7,85.4 c7.5,0,6.9-0.6,6.9,2.3c-10.5,80.7-56.8,83.3-56.8,59.2c0-24.5,28.1-36.7,28.4-38.2c-0.2-7.6-29.4-17.3-36.9-17.3 c-21.2,0-32.8,33.1-32.8,50.8c0,32.4,20.5,54.9,53.5,54.9c48.4,0,83.8-49.9,94.7-92.1c9.4-37.9,7-39.6,12.4-42.3 c20.1-10.1,36-16.9,58.7-16.9c11.1,0,19.1,2.3,36.9,5.2C414.4,270.7,416.7,268.9,416.7,267L416.7,267z"></path> </g> </svg> 