<?xml version="1.0" encoding="UTF-8"?> <!-- Generator: Adobe Illustrator 19.0.0, SVG Export Plug-In . SVG Version: 6.00 Build 0) --> <svg xmlns="http://www.w3.org/2000/svg" xmlns:xlink="http://www.w3.org/1999/xlink" version="1.1" id="Layer_1" x="0px" y="0px" viewBox="0 0 511.883 511.883" style="enable-background:new 0 0 511.883 511.883;" xml:space="preserve"> <polygon style="fill:#CCD1D9;" points="341.251,479.885 170.626,479.885 191.894,373.316 319.942,373.285 "></polygon> <g> <path style="fill:#E6E9ED;" d="M511.883,383.909c0,5.905-4.781,10.653-10.67,10.653H10.662C4.773,394.561,0,389.814,0,383.908 V42.651c0-5.889,4.772-10.653,10.662-10.653h490.551c5.889,0,10.67,4.764,10.67,10.653V383.909z"></path> <path style="fill:#E6E9ED;" d="M341.251,479.885H170.626c-5.89,0-10.662-4.779-10.662-10.653c0-5.905,4.772-10.686,10.662-10.686 h170.625c5.889,0,10.669,4.78,10.669,10.686C351.92,475.107,347.139,479.885,341.251,479.885z"></path> </g> <path style="fill:#ED5564;" d="M501.213,31.998H10.662C4.773,31.998,0,36.762,0,42.651v287.926h511.883V42.651 C511.883,36.762,507.102,31.998,501.213,31.998z"></path> <g> <path style="fill:#434A54;" d="M501.213,31.998h-95.979v298.579h106.648V42.651C511.883,36.762,507.102,31.998,501.213,31.998z"></path> <path style="fill:#434A54;" d="M266.603,362.569c0,5.905-4.772,10.685-10.662,10.685c-5.89,0-10.669-4.779-10.669-10.685 c0-5.874,4.78-10.653,10.669-10.653C261.83,351.916,266.603,356.695,266.603,362.569z"></path> </g> <rect x="405.232" y="159.971" style="fill:#656D78;" width="105.16" height="21.323"></rect> <polygon style="fill:#FFCE54;" points="253.88,330.577 266.603,273.715 213.279,223.938 159.964,273.715 172.68,330.577 "></polygon> <path style="fill:#E6E9ED;" d="M213.279,202.613c-26.548,0-49.801-4.858-69.101-14.434c-15.793-7.842-28.938-18.792-39.062-32.57 c-17.23-23.433-19.659-46.958-19.761-47.958l21.237-2.031c0.016,0.14,2.171,19.402,16.285,38.132 c18.761,24.9,49.176,37.538,90.401,37.538c41.233,0,71.656-12.638,90.401-37.538c14.122-18.73,16.277-37.992,16.293-38.179 l21.23,2.078c-0.094,1-2.531,24.525-19.762,47.958c-10.123,13.778-23.26,24.729-39.053,32.57 C263.081,197.755,239.828,202.613,213.279,202.613z"></path> <g> <path style="fill:#F5F7FA;" d="M191.956,191.945c0-11.778,9.545-21.323,21.323-21.323c11.779,0,21.331,9.545,21.331,21.323 c0,11.794-9.552,21.339-21.331,21.339C201.501,213.283,191.956,203.738,191.956,191.945z"></path> <path style="fill:#F5F7FA;" d="M74.648,106.636c0-11.778,9.544-21.323,21.331-21.323c11.778,0,21.323,9.545,21.323,21.323 c0,11.779-9.545,21.339-21.323,21.339C84.192,127.975,74.648,118.415,74.648,106.636z"></path> <path style="fill:#F5F7FA;" d="M309.257,106.636c0-11.778,9.545-21.323,21.323-21.323c11.779,0,21.339,9.545,21.339,21.323 c0,11.779-9.56,21.339-21.339,21.339C318.802,127.975,309.257,118.415,309.257,106.636z"></path> </g> <path style="fill:#F6BB42;" d="M223.949,298.585c0-5.873-4.78-10.654-10.669-10.654c-5.889,0-10.662,4.781-10.662,10.654l0,0v31.992 h21.331L223.949,298.585L223.949,298.585z"></path> <g> </g> <g> </g> <g> </g> <g> </g> <g> </g> <g> </g> <g> </g> <g> </g> <g> </g> <g> </g> <g> </g> <g> </g> <g> </g> <g> </g> <g> </g> </svg> 