<?xml version="1.0" encoding="UTF-8"?> <svg xmlns="http://www.w3.org/2000/svg" xmlns:xlink="http://www.w3.org/1999/xlink" xmlns:svgjs="http://svgjs.com/svgjs" version="1.1" width="1440" height="560" preserveAspectRatio="none" viewBox="0 0 1440 560"><g mask="url(&quot;#SvgjsMask1000&quot;)" fill="none"><rect width="1440" height="560" x="0" y="0" fill="#0e2a47"></rect><use xlink:href="#SvgjsG1004" transform="translate(0, 0)" fill="#0f457b"></use><use xlink:href="#SvgjsG1004" transform="translate(840, 0)" fill="#0f457b"></use></g><defs><mask id="SvgjsMask1000"><rect width="1440" height="560" fill="#ffffff"></rect></mask><g id="SvgjsG1001"><path d="M10.638 8.247l-4.284-0.705 0.615-0.438 1.029 0.143 1.027-0.143 1.613 1.143zM7.998 0.15c0.859 0 1.555 0.696 1.555 1.556 0 0.859-0.548 1.556-1.555 1.555-0.859 0-1.556-0.696-1.557-1.555 0-0.86 0.697-1.556 1.557-1.556z m0.387 11.242v3.759A0.849 0.849 0 0 0 9.234 16a0.849 0.849 0 0 0 0.849-0.849V11.392c0-0.468-0.38-0.849-0.849-0.849a0.85 0.85 0 0 0-0.849 0.849z m5.202 2.146a0.493 0.493 0 0 1-0.492 0.494h-2.604v-2.463h1.126V9.11a0.493 0.493 0 0 1 0.492-0.492h0.986a0.493 0.493 0 0 1 0.492 0.492v4.429z m-5.609 0.494H2.923a0.493 0.493 0 0 1-0.493-0.494V9.11c0-0.271 0.22-0.492 0.493-0.492h0.985a0.493 0.493 0 0 1 0.493 0.492v2.459h3.577v2.462zM5.316 8.72a0.85 0.85 0 0 0 0.7 0.976l3.709 0.611a0.85 0.85 0 0 0 0.976-0.7c0.076-0.463-0.237-0.9-0.7-0.975L6.292 8.02a0.85 0.85 0 0 0-0.976 0.7z"></path><path d="M7.998 4.499l2.016-0.329v1.418l0.996 0.748c0.096 0.096 0.057 0.207 0.034 0.238-0.057 0.075-0.163 0.09-0.237 0.034l-1.257-0.949a0.577 0.577 0 0 0-0.665 0.942l2.146 1.508c0.1 0.071 0.242 0.118 0.383 0.118 0.12 0 0.263-0.05 0.368-0.124 0.225-0.16 0.308-0.444 0.232-0.706L11.216 5.041c-0.213-0.585-0.75-1.274-1.556-1.275H6.334c-0.806 0-1.343 0.689-1.556 1.275l-0.797 2.356c-0.077 0.262 0.007 0.545 0.232 0.705 0.105 0.075 0.247 0.125 0.367 0.125 0.142 0 0.284-0.047 0.384-0.118l2.147-1.508a0.577 0.577 0 0 0-0.666-0.942l-1.257 0.949a0.17 0.17 0 0 1-0.237-0.034c-0.023-0.031-0.062-0.141 0.034-0.237 0 0 0.675-0.507 0.996-0.749v-1.418l2.017 0.329z"></path></g><g id="SvgjsG1002"><path d="M2.115 12.192a1.05 1.05 0 1 1 0-2.1 1.05 1.05 0 0 1 0 2.1zM0 16V13.942c0-0.742 0.61-1.344 1.352-1.344h1.45c0.743 0 1.406 0.603 1.406 1.345V16H0z m13-3.897a1.051 1.051 0 0 0 1.05-1.05 1.05 1.05 0 0 0-2.099 0 1.05 1.05 0 0 0 1.051 1.049zM15.114 16V13.942c0-0.742-0.61-1.344-1.353-1.344h-1.448c-0.744 0-1.406 0.603-1.407 1.345V16h4.208z"></path><path d="M6.494 11.133a1.062 1.053 0 1 0 2.124 0 1.062 1.053 0 1 0-2.124 0"></path><path d="M4.998 16l0.836-2.277c0.335-1.163 1.31-1.128 1.309-1.127h0.828s0.974-0.036 1.309 1.127L10.116 16h-5.118z m2.558-7.25v-2.491l-0.414-0.414v2.49H0.885V0.414h6.257V4.483l0.414 0.414V0H0.474v8.75h7.082z m5.44-4.548a1.049 1.049 0 0 1-1.048-1.048c0-0.579 0.47-1.049 1.048-1.049a1.047 1.047 0 0 1 1.047 1.048 1.046 1.046 0 0 1-1.048 1.048z"></path><path d="M8.329 6.958a0.441 0.441 0 0 0 0.442 0.442h1.454c0.165 0 0.382-0.066 0.474-0.205 0.314-0.464 0.643-0.953 0.741-1.1v2.749h3.661V6.025c0-0.737-0.576-1.401-1.256-1.4 0.002 0.346 0 0.118 0-0.015H12.082a1.343 1.343 0 0 0-1.119 0.599l-0.871 1.313-1.32-0.001L6.907 4.656a0.179 0.179 0 0 0-0.254 0 0.18 0.18 0 0 0 0 0.254l1.774 1.775c-0.038 0.063-0.098 0.192-0.097 0.273z"></path></g><g id="SvgjsG1003"><path d="M11.975 1.996h-3.752l-0.998 0.979h0.998v0.218c0 1.142 0.926 2.068 2.068 2.068s2.068-0.926 2.068-2.068v-1.197h-0.384z m0.384-0.654H8.132L7.225 0h5.134v1.342z m1.574 4.644h-0.2L8.531 12.59h4.24v1.161H7.443V16h7.578V7.128c0-0.63-0.487-1.142-1.088-1.142z m-1.823-0.023H6.744v0.003c-0.248 0.001-0.49 0.086-0.647 0.285-0.615 0.778-1.23 1.556-1.845 2.333-0.908-0.691-1.816-1.382-2.723-2.074-0.426-0.324-1.095-0.067-1.341 0.351-0.294 0.503-0.073 1.018 0.352 1.34 1.083 0.825 2.166 1.65 3.249 2.475 0.032 0.027 0.064 0.054 0.1 0.076 0.013 0.01 0.026 0.02 0.039 0.03 0.189 0.144 0.427 0.173 0.654 0.125 0.206-0.024 0.4-0.109 0.533-0.278 0.009-0.011 0.017-0.022 0.026-0.033 0.042-0.043 0.078-0.09 0.11-0.138 0.648-0.819 1.295-1.638 1.942-2.457v4.203L12.11 5.963z" fill-rule="evenodd"></path></g><g id="SvgjsG1004"><use xlink:href="#SvgjsG1001" transform="translate(0, 0) scale(2)" fill="#0f457b"></use><use xlink:href="#SvgjsG1002" transform="translate(0, 84) scale(2)" fill="#0f457b"></use><use xlink:href="#SvgjsG1003" transform="translate(0, 168) scale(2)" fill="#0f457b"></use><use xlink:href="#SvgjsG1003" transform="translate(0, 252) scale(2)" fill="#0f457b"></use><use xlink:href="#SvgjsG1002" transform="translate(0, 336) scale(2)" fill="#0f457b"></use><use xlink:href="#SvgjsG1002" transform="translate(0, 420) scale(2)" fill="#0f457b"></use><use xlink:href="#SvgjsG1002" transform="translate(0, 504) scale(2)" fill="#0f457b"></use><use xlink:href="#SvgjsG1002" transform="translate(84, 0) scale(2)" fill="#0f457b"></use><use xlink:href="#SvgjsG1002" transform="translate(84, 84) scale(2)" fill="#0f457b"></use><use xlink:href="#SvgjsG1002" transform="translate(84, 168) scale(2)" fill="#0f457b"></use><use xlink:href="#SvgjsG1003" transform="translate(84, 252) scale(2)" fill="#0f457b"></use><use xlink:href="#SvgjsG1002" transform="translate(84, 336) scale(2)" fill="#0f457b"></use><use xlink:href="#SvgjsG1002" transform="translate(84, 420) scale(2)" fill="#0f457b"></use><use xlink:href="#SvgjsG1003" transform="translate(84, 504) scale(2)" fill="#0f457b"></use><use xlink:href="#SvgjsG1003" transform="translate(168, 0) scale(2)" fill="#0f457b"></use><use xlink:href="#SvgjsG1003" transform="translate(168, 84) scale(2)" fill="#0f457b"></use><use xlink:href="#SvgjsG1001" transform="translate(168, 168) scale(2)" fill="#0f457b"></use><use xlink:href="#SvgjsG1001" transform="translate(168, 252) scale(2)" fill="#0f457b"></use><use xlink:href="#SvgjsG1002" transform="translate(168, 336) scale(2)" fill="#0f457b"></use><use xlink:href="#SvgjsG1002" transform="translate(168, 420) scale(2)" fill="#0f457b"></use><use xlink:href="#SvgjsG1001" transform="translate(168, 504) scale(2)" fill="#0f457b"></use><use xlink:href="#SvgjsG1003" transform="translate(252, 0) scale(2)" fill="#0f457b"></use><use xlink:href="#SvgjsG1003" transform="translate(252, 84) scale(2)" fill="#0f457b"></use><use xlink:href="#SvgjsG1001" transform="translate(252, 168) scale(2)" fill="#0f457b"></use><use xlink:href="#SvgjsG1003" transform="translate(252, 252) scale(2)" fill="#0f457b"></use><use xlink:href="#SvgjsG1001" transform="translate(252, 336) scale(2)" fill="#0f457b"></use><use xlink:href="#SvgjsG1003" transform="translate(252, 420) scale(2)" fill="#0f457b"></use><use xlink:href="#SvgjsG1003" transform="translate(252, 504) scale(2)" fill="#0f457b"></use><use xlink:href="#SvgjsG1001" transform="translate(336, 0) scale(2)" fill="#0f457b"></use><use xlink:href="#SvgjsG1003" transform="translate(336, 84) scale(2)" fill="#0f457b"></use><use xlink:href="#SvgjsG1002" transform="translate(336, 168) scale(2)" fill="#0f457b"></use><use xlink:href="#SvgjsG1003" transform="translate(336, 252) scale(2)" fill="#0f457b"></use><use xlink:href="#SvgjsG1003" transform="translate(336, 336) scale(2)" fill="#0f457b"></use><use xlink:href="#SvgjsG1001" transform="translate(336, 420) scale(2)" fill="#0f457b"></use><use xlink:href="#SvgjsG1002" transform="translate(336, 504) scale(2)" fill="#0f457b"></use><use xlink:href="#SvgjsG1002" transform="translate(420, 0) scale(2)" fill="#0f457b"></use><use xlink:href="#SvgjsG1003" transform="translate(420, 84) scale(2)" fill="#0f457b"></use><use xlink:href="#SvgjsG1002" transform="translate(420, 168) scale(2)" fill="#0f457b"></use><use xlink:href="#SvgjsG1002" transform="translate(420, 252) scale(2)" fill="#0f457b"></use><use xlink:href="#SvgjsG1003" transform="translate(420, 336) scale(2)" fill="#0f457b"></use><use xlink:href="#SvgjsG1003" transform="translate(420, 420) scale(2)" fill="#0f457b"></use><use xlink:href="#SvgjsG1001" transform="translate(420, 504) scale(2)" fill="#0f457b"></use><use xlink:href="#SvgjsG1003" transform="translate(504, 0) scale(2)" fill="#0f457b"></use><use xlink:href="#SvgjsG1002" transform="translate(504, 84) scale(2)" fill="#0f457b"></use><use xlink:href="#SvgjsG1001" transform="translate(504, 168) scale(2)" fill="#0f457b"></use><use xlink:href="#SvgjsG1002" transform="translate(504, 252) scale(2)" fill="#0f457b"></use><use xlink:href="#SvgjsG1003" transform="translate(504, 336) scale(2)" fill="#0f457b"></use><use xlink:href="#SvgjsG1003" transform="translate(504, 420) scale(2)" fill="#0f457b"></use><use xlink:href="#SvgjsG1003" transform="translate(504, 504) scale(2)" fill="#0f457b"></use><use xlink:href="#SvgjsG1002" transform="translate(588, 0) scale(2)" fill="#0f457b"></use><use xlink:href="#SvgjsG1003" transform="translate(588, 84) scale(2)" fill="#0f457b"></use><use xlink:href="#SvgjsG1001" transform="translate(588, 168) scale(2)" fill="#0f457b"></use><use xlink:href="#SvgjsG1003" transform="translate(588, 252) scale(2)" fill="#0f457b"></use><use xlink:href="#SvgjsG1003" transform="translate(588, 336) scale(2)" fill="#0f457b"></use><use xlink:href="#SvgjsG1003" transform="translate(588, 420) scale(2)" fill="#0f457b"></use><use xlink:href="#SvgjsG1003" transform="translate(588, 504) scale(2)" fill="#0f457b"></use><use xlink:href="#SvgjsG1003" transform="translate(672, 0) scale(2)" fill="#0f457b"></use><use xlink:href="#SvgjsG1003" transform="translate(672, 84) scale(2)" fill="#0f457b"></use><use xlink:href="#SvgjsG1003" transform="translate(672, 168) scale(2)" fill="#0f457b"></use><use xlink:href="#SvgjsG1001" transform="translate(672, 252) scale(2)" fill="#0f457b"></use><use xlink:href="#SvgjsG1001" transform="translate(672, 336) scale(2)" fill="#0f457b"></use><use xlink:href="#SvgjsG1001" transform="translate(672, 420) scale(2)" fill="#0f457b"></use><use xlink:href="#SvgjsG1002" transform="translate(672, 504) scale(2)" fill="#0f457b"></use><use xlink:href="#SvgjsG1003" transform="translate(756, 0) scale(2)" fill="#0f457b"></use><use xlink:href="#SvgjsG1002" transform="translate(756, 84) scale(2)" fill="#0f457b"></use><use xlink:href="#SvgjsG1003" transform="translate(756, 168) scale(2)" fill="#0f457b"></use><use xlink:href="#SvgjsG1003" transform="translate(756, 252) scale(2)" fill="#0f457b"></use><use xlink:href="#SvgjsG1003" transform="translate(756, 336) scale(2)" fill="#0f457b"></use><use xlink:href="#SvgjsG1002" transform="translate(756, 420) scale(2)" fill="#0f457b"></use><use xlink:href="#SvgjsG1001" transform="translate(756, 504) scale(2)" fill="#0f457b"></use></g></defs></svg> 