<?xml version="1.0" encoding="UTF-8"?> <!-- Generator: Adobe Illustrator 23.0.1, SVG Export Plug-In . SVG Version: 6.00 Build 0) --> <svg xmlns="http://www.w3.org/2000/svg" xmlns:xlink="http://www.w3.org/1999/xlink" version="1.1" id="Layer_1" x="0px" y="0px" viewBox="0 0 512 512" style="enable-background:new 0 0 512 512;" xml:space="preserve"> <style type="text/css"> .st0{fill:#FDB300;} .st1{fill:#EA6C00;} .st2{fill:#FDD231;} .st3{fill:#FDAD00;} .st4{fill:#FEEEB7;} .st5{fill:url(#Fill-1_2_);} </style> <g> <polygon id="Fill-1" class="st0" points="256,72.7 143.3,85 56,197.6 256,439.3 456,197.6 368.7,85 "></polygon> <polygon id="Fill-2" class="st1" points="56,197.6 256,439.3 256,439.3 137,197.6 "></polygon> <polygon id="Fill-3" class="st1" points="375,197.6 256,439.3 256,439.3 456,197.6 "></polygon> <polygon id="Fill-5" class="st2" points="143.3,85 137,197.6 256,72.7 "></polygon> <polygon id="Fill-6" class="st2" points="375,197.6 368.7,85 256,72.7 "></polygon> <polygon id="Fill-7" class="st3" points="375,197.6 456,197.6 368.7,85 "></polygon> <polygon id="Fill-8" class="st3" points="56,197.6 137,197.6 143.3,85 "></polygon> <polygon id="Fill-9" class="st4" points="256,72.7 137,197.6 375,197.6 "></polygon> <polygon id="Fill-4" class="st3" points="137,197.6 256,439.3 256,439.3 375,197.6 "></polygon> <linearGradient id="Fill-1_2_" gradientUnits="userSpaceOnUse" x1="77.078" y1="359.4582" x2="405.6301" y2="206.2519" gradientTransform="matrix(1 0 0 -1 0 511.8898)"> <stop offset="0" style="stop-color:#FFFFFF;stop-opacity:0.2"></stop> <stop offset="1" style="stop-color:#FFFFFF;stop-opacity:0"></stop> </linearGradient> <polygon id="Fill-1_1_" class="st5" points="256,72.7 143.3,85 56,197.6 256,439.3 456,197.6 368.7,85 "></polygon> </g> </svg> 