<?xml version="1.0" encoding="UTF-8"?> <svg xmlns:xlink="http://www.w3.org/1999/xlink" xmlns="http://www.w3.org/2000/svg" version="1.1" viewBox="0.0 0.0 100.0 100.0" fill="none" stroke="none" stroke-linecap="square" stroke-miterlimit="10"><clipPath id="g10be5107164_0_0.0"><path d="m0 0l100.0 0l0 100.0l-100.0 0l0 -100.0z" clip-rule="nonzero"></path></clipPath><g clip-path="url(#g10be5107164_0_0.0)"><path fill="#e75cd2" d="m0 0l100.0 0l0 100.0l-100.0 0z" fill-rule="evenodd"></path><path fill="#000000" fill-opacity="0.0" d="m-12.0 0l112.0 0l0 110.99213l-112.0 0z" fill-rule="evenodd"></path><path stroke="#ffffff" stroke-width="1.0" stroke-linejoin="round" stroke-linecap="butt" d="m-12.0 0l112.0 0l0 110.99213l-112.0 0z" fill-rule="evenodd"></path><path fill="#ffffff" d="m73.04967 26.996063q0 2.5 -1.203125 3.9375q-1.203125 1.4375 -2.453125 1.4375q-0.03125 0.1875 -0.5 3.671875q-0.65625 4.6875 -0.734375 5.203125q-6.078125 45.375 -26.078125 45.375q-6.109375 0 -9.609375 -3.546875q-3.5 -3.53125 -3.5 -8.8125q0 -9.078125 7.515625 -15.875q7.53125 -6.796875 18.75 -10.875q0.609375 -3.90625 1.015625 -7.609375l1.015625 -8.671875q-2.53125 -0.265625 -5.921875 -0.265625q-9.0 0 -12.84375 1.578125q-3.84375 1.578125 -3.84375 4.71875q0 1.640625 1.140625 3.640625q0.578125 0.984375 0.578125 2.09375q0 2.0625 -1.890625 3.515625q-1.875 1.453125 -4.015625 1.453125q-2.875 0 -4.4375 -2.453125q-2.0625 -3.390625 -2.0625 -7.84375q0 -17.375 29.375 -17.375q8.296875 0 14.859375 1.640625q4.84375 1.1875 4.84375 5.0625zm-30.109375 49.75q2.53125 0 5.515625 -4.5q2.984375 -4.515625 4.890625 -14.0q-13.03125 5.703125 -13.03125 15.140625q0 1.75 0.6875 2.5625q0.703125 0.796875 1.9375 0.796875z" fill-rule="nonzero"></path></g></svg> 