<?xml version="1.0" encoding="UTF-8"?> <svg xmlns="http://www.w3.org/2000/svg" xmlns:xlink="http://www.w3.org/1999/xlink" xmlns:svgjs="http://svgjs.dev/svgjs" version="1.1" viewBox="0 0 800 400"><path d="M37.668155670166016,232.2869873046875C42.45141410827637,228.6995417277018,56.65171241760254,210.46336110432944,66.36770629882812,210.76231384277344C76.08370018005371,211.06126658121744,83.5575434366862,234.9775644938151,95.96411895751953,234.08070373535156C108.37069447835286,233.18384297688803,123.16889317830403,204.33481089274088,140.80715942382812,205.3811492919922C158.4454256693522,206.4274876912435,183.70701853434244,244.99251556396484,201.79371643066406,240.35873413085938C219.8804143269857,235.7249526977539,229.29745229085287,174.43944803873697,249.3273468017578,177.57846069335938C269.3572413126628,180.71747334798178,299.5515619913737,265.3213602701823,321.97308349609375,259.19281005859375C344.3946050008138,253.06425984700522,356.50221761067706,133.63227335611978,383.8564758300781,140.80715942382812C411.2107340494792,147.98204549153647,456.0537872314453,303.4379399617513,486.0986328125,302.24212646484375C516.1434783935547,301.0463129679362,530.1943054199219,129.89535522460938,564.1255493164062,133.6322784423828C598.0567932128906,137.36920166015625,653.8116556803385,333.18384552001953,689.6860961914062,324.6636657714844C725.560536702474,316.1434860229492,764.4245096842448,122.86994425455728,779.3721923828125,82.51119995117188" fill="none" stroke-width="7" stroke="url(&quot;#SvgjsLinearGradient1019&quot;)" stroke-linecap="round" stroke-dasharray="24 14" transform="matrix(1,0,0,1,-8.52017593383789,-3.7225189208984375)"></path><defs><linearGradient id="SvgjsLinearGradient1019"><stop stop-color="hsl(220, 100%, 50%)" offset="0"></stop><stop stop-color="hsl(316, 73%, 52%)" offset="1"></stop></linearGradient></defs></svg> 