<?xml version="1.0" encoding="UTF-8"?> <svg xmlns="http://www.w3.org/2000/svg" xmlns:xlink="http://www.w3.org/1999/xlink" width="800" height="800" viewBox="0 0 800 800"><defs><style>.a{fill:url(#a);}.b{fill:#42526e;}.aa,.ah,.am,.ao,.at,.av,.aw,.ay,.bb,.c,.j,.m,.n,.o,.t,.x{fill:none;}.d{clip-path:url(#i);}.bf,.e,.f,.y{isolation:isolate;}.f{opacity:0.15;fill:url(#b);}.f,.y{mix-blend-mode:multiply;}.g{clip-path:url(#d);}.h{fill:#c1c7d0;}.h,.m{stroke:#ffab00;}.aa,.ah,.am,.ao,.at,.av,.aw,.ay,.bb,.h,.j,.l,.m,.n,.o,.t,.x{stroke-miterlimit:10;}.h,.j,.l,.t,.x{stroke-width:2.05px;}.i{fill:#ff991f;}.j,.l{stroke:#ff991f;}.k{fill:#ffab00;}.l{fill:#ffe380;}.m,.n,.o{stroke-width:2.35px;}.n{stroke:#36b37e;}.o,.t{stroke:#4c9aff;}.p{fill:#0065ff;}.q{fill:#cfd4db;}.r{fill:#ffc400;}.s{fill:#4c9aff;}.u{fill:#fff0b2;}.v{fill:#2684ff;}.w{fill:#b2d4ff;}.x{stroke:#ffc400;}.y{fill:#dfe1e5;}.be,.z{fill:#fff;}.aa{stroke:#0065ff;stroke-width:2.27px;}.ab{fill:#e0ada6;}.ac{fill:#091e42;}.ad{clip-path:url(#e);}.ae{fill:#b3bac5;}.af{clip-path:url(#f);}.ag,.ap{fill:#f2b18f;}.ah,.aw{stroke:#e2845a;}.ah,.am,.ao,.at,.av,.aw,.ay,.bb{stroke-width:0.75px;}.ah,.ap{fill-rule:evenodd;}.ai{fill:#ff855a;}.aj{fill:#212237;}.ak{fill:#103bb2;}.al{fill:#f2311d;}.am{stroke:#103bb2;}.an{fill:#202263;}.ao{stroke:#2944b7;}.ao,.bb{stroke-linejoin:round;}.aq{fill:#4a63fe;}.ar{fill:#ff756e;}.as{fill:#c0d7ff;}.at{stroke:#1f38b2;}.au{fill:#232868;}.av{stroke:#ba140c;}.ax{fill:#172bce;}.ay{stroke:#202263;}.az{fill:#22252d;}.ba{fill:#182270;}.bb{stroke:#e88872;}.bc{fill:#ebf3ff;}.bd{font-size:31px;font-family:HelveticaNeue, Helvetica Neue;}.be{font-size:33px;font-family:HelveticaNeue-Bold, Helvetica Neue;font-weight:700;letter-spacing:0.044em;}.bf{clip-path:url(#g);}</style><linearGradient id="a" x1="-0.006" y1="0.863" x2="1.233" y2="0.137" gradientUnits="objectBoundingBox"><stop offset="0" stop-color="#ffab00"></stop><stop offset="1" stop-color="#ffe380"></stop></linearGradient><linearGradient id="b" x1="-0.496" y1="0.304" x2="-0.475" y2="0.815" gradientUnits="objectBoundingBox"><stop offset="0" stop-color="#091e42" stop-opacity="0"></stop><stop offset="1" stop-color="#091e42"></stop></linearGradient><clipPath id="d"><path class="a" d="M396.5,398.948l244.046,55.4V38.54L396.5,93.89Z" transform="translate(-396.5 -38.54)"></path></clipPath><clipPath id="e"><path class="b" d="M204.907,317.125c-.183.083-.7-1.527-1.428-1.859-1.395-.631-3.7,3.553-7.786,6.242a17.036,17.036,0,0,1-5.113,2.241,1.228,1.228,0,0,0-.93,1.2v1.162h24.82a21.382,21.382,0,0,0-1.66-9.015Z" transform="translate(-189.65 -315.202)"></path></clipPath><clipPath id="f"><path class="b" d="M232.125,310.909c-.149.133-1.063-1.312-1.843-1.444-1.511-.266-2.706,4.35-6.01,7.969a17.033,17.033,0,0,1-4.4,3.437,1.229,1.229,0,0,0-.6,1.378l.282,1.129,23.99-6.076A21.383,21.383,0,0,0,239.7,309Z" transform="translate(-219.237 -309)"></path></clipPath><clipPath id="g"><path class="c" d="M2.085.532,532.387,0l8,85.6L0,85.144Z"></path></clipPath><clipPath id="i"><rect width="800" height="800"></rect></clipPath></defs><g id="h" class="d"><rect class="z" width="800" height="800"></rect><g class="e" transform="translate(-47.237 179.577)"><g transform="translate(0 0.011)"><g transform="translate(-65 -64)"><path class="f" d="M395.11,290.01l148.708,53.74H651.4L489.086,290.01Z" transform="translate(260.842 191.142)"></path><path class="a" d="M396.5,398.948l253.978,55.4V38.54L396.5,93.89Z" transform="translate(261.759 25.128)"></path><g class="g" transform="translate(658.259 63.668)"><line class="h" y2="148.038" transform="translate(66.872 -20.702)"></line></g><path class="i" d="M434.767,244.146l26.364,4.25c0,14.942-11.9,25.035-26.364,22.163S408.42,253.841,408.42,239.9s11.9-23.956,26.364-22.163Z" transform="translate(269.629 143.289)"></path><path class="j" d="M407.85,111.62,523.216,95.4" transform="translate(269.252 62.666)"></path><path class="j" d="M407.85,112.164,616.2,79.94" transform="translate(269.252 52.459)"></path><path class="j" d="M407.85,107.5,616.2,72.37" transform="translate(269.252 47.462)"></path><path class="j" d="M407.85,206.68,536.5,219.961" transform="translate(269.252 136.13)"></path><path class="j" d="M407.85,200.86,616.2,219.354" transform="translate(269.252 132.288)"></path><path class="j" d="M407.85,195,616.2,210.639" transform="translate(269.252 128.419)"></path><path class="j" d="M407.85,189.21,616.2,201.944" transform="translate(269.252 124.597)"></path><path class="k" d="M427.39,241.373V214.81a29.3,29.3,0,0,1,18.644,10.177,31.825,31.825,0,0,1,7.72,20.487Z" transform="translate(282.152 141.497)"></path><path class="j" d="M407.85,123.575,616.2,98.49" transform="translate(269.252 64.706)"></path><path class="j" d="M407.85,113.6V219.353" transform="translate(269.253 74.681)"></path><path class="k" d="M487.888,114.24V144.6L411.52,149.27V121.927Z" transform="translate(271.675 75.103)"></path><path class="j" d="M453.65,202.946V142.2" transform="translate(299.489 93.562)"></path><path class="j" d="M453.65,134.344V108.08" transform="translate(299.489 71.037)"></path><path class="j" d="M480.05,104.91V228.992" transform="translate(316.917 68.944)"></path><path class="j" d="M506.46,198.668V101.73h0" transform="translate(334.352 66.844)"></path><path class="j" d="M533.35,98.49V236.1" transform="translate(352.105 64.706)"></path><path class="j" d="M585.966,117l-44.659,3.852-43.829,3.769-43.829,3.785" transform="translate(299.488 76.925)"></path><path class="j" d="M585.966,138.48l-44.659,2.092-43.829,2.092-43.829,2.059" transform="translate(299.488 91.106)"></path><path class="j" d="M571.547,160.12l-43.828.315-43.829.3-76.019.531" transform="translate(269.266 105.392)"></path><path class="j" d="M407.85,177.3,616.2,184.074" transform="translate(269.252 116.734)"></path><path class="j" d="M483.88,123.9v30.381l-76.019,3.553V130.458Z" transform="translate(269.259 81.481)"></path><path class="l" d="M551.109,159.93v35.611L506.45,194.1V160.245Z" transform="translate(334.346 105.267)"></path><path class="j" d="M616.2,98.49v102l-44.659.3v33.851l-43.829-1.411L483.88,231.8l-76.019-2.474V174.543l76.019-3.553V140.675l-76.019,6.558V123.575l76.019-9.148,43.829-5.279,43.829-5.263h0Z" transform="translate(269.259 64.706)"></path><path class="m" d="M284.27,222.3a25.118,25.118,0,0,1,25.118,25.118" transform="translate(187.668 146.442)"></path><path class="n" d="M324.518,222.3A25.118,25.118,0,0,0,299.4,247.418" transform="translate(197.656 146.442)"></path><line class="o" y1="60.032" transform="translate(497.056 364.044)"></line><g transform="translate(-36.681 -186.645)"><path class="o" d="M311.844,215.708a30.424,30.424,0,0,1-30.424-30.424V173.25" transform="translate(248.505 263.976)"></path><path class="o" d="M290.42,185.81a30.424,30.424,0,0,1,30.423,30.423" transform="translate(269.929 293.874)"></path><path class="m" d="M281.584,215.238a30.424,30.424,0,0,1-30.424-30.423V172.78" transform="translate(176.475 262.858)"></path><path class="m" d="M260.16,185.34a30.424,30.424,0,0,1,30.423,30.424" transform="translate(197.898 292.755)"></path><circle class="o" cx="21.026" cy="21.026" r="21.026" transform="translate(508.967 395.242)"></circle><path class="p" d="M327.965,172.239a40.565,40.565,0,1,1,40.565-40.565A40.565,40.565,0,0,1,327.965,172.239Z" transform="translate(262.74 68.452)"></path><circle class="m" cx="21.026" cy="21.026" r="21.026" transform="translate(406.677 394.228)"></circle><path class="m" d="M320.285,415.682a51.145,51.145,0,0,1-51.145-51.145V141.06" transform="translate(219.274 187.352)"></path><path class="o" d="M311.844,148.29a30.424,30.424,0,0,0-30.424,30.423v12.034" transform="translate(248.505 204.562)"></path><path class="o" d="M290.42,169.713a30.424,30.424,0,0,0,30.423-30.423" transform="translate(269.929 183.139)"></path><line class="o" y1="335.503" transform="translate(590.704 257.965)"></line><circle class="m" cx="21.026" cy="21.026" r="21.026" transform="translate(467.388 286.36)"></circle><circle class="o" cx="57.669" cy="57.669" r="57.669" transform="translate(533.035 142.626)"></circle><path class="o" d="M281.42,215.708a30.424,30.424,0,0,0,30.424-30.424V173.25" transform="translate(330.811 263.976)"></path><path class="o" d="M320.844,185.81a30.424,30.424,0,0,0-30.423,30.423" transform="translate(300.352 293.874)"></path><circle class="o" cx="21.026" cy="21.026" r="21.026" transform="translate(615.386 395.242)"></circle><path class="o" d="M281.42,148.29a30.424,30.424,0,0,1,30.424,30.423v12.034" transform="translate(330.811 204.562)"></path><path class="o" d="M320.844,169.713A30.423,30.423,0,0,1,290.42,139.29" transform="translate(300.352 183.139)"></path></g><line class="q" x1="159.759" transform="translate(376.08 424.075)"></line><path class="p" d="M56.57,514.795l8.875-2.491,8.6-2.415,8.338-2.339,8.092-2.282,7.877-2.206,7.678-2.149,7.493-2.111,7.34-2.054,7.2-2.016,7.079-1.9,6.971-1.9,6.895-1.9,6.833-1.9,6.8-1.9,6.772-1.9,6.772-1.9,6.8-1.9,6.833-1.9,6.895-1.9,6.971-1.9,7.079-1.9,7.2-2.016,7.34-2.054,7.493-2.111,7.678-2.149,7.877-2.206,8.092-2.282,8.338-2.339,8.6-2.415,8.875-2.491V101.918l-8.875-2.491-8.6-2.415-8.338-2.339-8.092-2.282-7.877-2.206L232.8,88.037l-7.493-2.111-7.34-2.054-7.186-2.035-7.079-1.9-6.971-1.9-6.895-1.9-6.833-1.9-6.8-1.9-6.772-1.9-6.772-1.9-6.8-1.9-6.833-1.9-6.894-1.9-6.971-1.9-7.079-1.9-7.2-2.491-7.324-1.9-7.493-2.111-7.678-2.149-7.877-2.206L82.413,45.88l-8.292-2.434-8.6-2.415L56.647,38.54V514.795Z" transform="translate(55.667 -35.319)"></path><path class="r" d="M162.3,350.307l-9.28,1.81-8.55,1.66-7.985,1.561-7.587,1.478-7.355,1.444-7.272,1.428-7.355,1.444-7.587,1.478-7.985,1.561-8.55,1.66-9.28,1.81c-2.208.432-3.984-1.444-3.984-4.2v-239.8c0-2.739,1.776-4.831,3.984-4.648l9.28.78,8.55.714,7.985.664,7.587.631,7.355.614,7.272.614,7.355.614,7.587.631,7.985.664,8.55.714,9.28.78a4.682,4.682,0,0,1,3.984,4.765V345.094a5.379,5.379,0,0,1-3.984,5.213Z" transform="translate(45.902 78.235)"></path><path class="s" d="M227.118,325.682l-9.28,1.81-8.55,1.66-7.985,1.561-7.587,1.478-7.355,1.444-7.272,1.428-7.355,1.444-7.587,1.478-7.985,1.561-8.55,1.66-9.28,1.81a3.32,3.32,0,0,1-3.984-3.6V128.453a3.8,3.8,0,0,1,3.984-4.051l9.28.78,8.55.714,7.985.664,7.587.631,7.355.614,7.272.614,7.355.614,7.587.631,7.985.664,8.55.714,9.28.78a4.333,4.333,0,0,1,3.984,4.167V321.066A4.981,4.981,0,0,1,227.118,325.682Z" transform="translate(88.68 81.809)"></path><path class="t" d="M69.52,110.38l9.3.913,8.616.847,8.085.8,7.687.764,7.421.73,7.288.714,7.288.714,7.421.73,7.687.764,8.085.8,8.616.847,9.3.913" transform="translate(45.895 72.555)"></path><path class="t" d="M134.33,116.8l9.3.913,8.633.847,8.085.8,7.687.764,7.421.73,7.288.714,7.288.714,7.421.73,7.72.764,8.085.8,8.517.863,9.3.913" transform="translate(88.681 76.793)"></path><path class="t" d="M69.52,104.73l7.952.863,7.006.764,6.524.714,6.524.714,7.006.764,7.952.863" transform="translate(45.895 68.825)"></path><path class="t" d="M134.33,111.82l7.952.863,7.006.764,6.524.714,6.524.714,7.006.764,7.952.863" transform="translate(88.681 73.506)"></path><path class="u" d="M155.34,162.658l-9.114-.3-8.3-.266-7.77-.249-7.388-.249-7.205-.232-7.205-.232-7.388-.249-7.77-.249-8.3-.266-9.114-.3a3.154,3.154,0,0,1-2.656-3.32V128.525a2.773,2.773,0,0,1,2.656-3.1l9.114.648,8.3.6,7.77.564,7.388.531,7.205.515,7.205.515,7.388.531,7.77.564,8.3.6,9.114.647A3.088,3.088,0,0,1,158,134.3v25.6A2.723,2.723,0,0,1,155.34,162.658Z" transform="translate(48.264 82.484)"></path><path class="u" d="M155.341,183.828l-9.114.133-8.3.116-7.77.1-7.388.1-7.205.1-7.205.1-7.388.1-7.77.1-8.3.116-9.114.133a2.972,2.972,0,0,1-2.656-3.32V153.381a2.939,2.939,0,0,1,2.656-3.221l9.114.232,8.3.216,7.77.2,7.388.183,7.205.183,7.205.183,7.388.183,7.77.2,8.3.216,9.114.232A2.922,2.922,0,0,1,158,155.24v25.6A2.872,2.872,0,0,1,155.341,183.828Z" transform="translate(48.263 98.817)"></path><path class="k" d="M155.353,206.3l-9.114.564-8.3.515-7.77.481-7.421.481-7.205.448-7.205.448-7.388.465-7.77.481-8.3.515-9.114.564a2.806,2.806,0,0,1-2.656-3.138V179.9a3.1,3.1,0,0,1,2.656-3.32l9.114-.2,8.3-.183,7.77-.183,7.388-.166,7.205-.166,7.205-.166,7.388-.166,7.77-.183,8.3-.183,9.114-.2a2.756,2.756,0,0,1,2.656,2.922v25.6A3.055,3.055,0,0,1,155.353,206.3Z" transform="translate(48.251 115.077)"></path><path class="v" d="M219.3,220.488l-9.114,1-8.3.913-7.77.847-7.388.8-7.205.78-7.205.78-7.388.8-7.77.847-8.3.913-9.114,1a2.457,2.457,0,0,1-2.656-2.607v-24.9a3.038,3.038,0,0,1,2.656-3.088l9.114-.631,8.3-.581,7.77-.531,7.388-.515,7.205-.5,7.205-.5,7.388-.515,7.77-.531,8.3-.581,9.114-.631a2.407,2.407,0,0,1,2.656,2.407v22.213a2.988,2.988,0,0,1-2.656,2.822Z" transform="translate(90.501 127.12)"></path><path class="w" d="M220.153,181.275l-9.114.133-8.3.116-7.77.1-7.388.1-7.205.1-7.205.1-7.388.1-7.77.1-8.3.116-9.114.133a2.739,2.739,0,0,1-2.656-2.856v-24.9a2.706,2.706,0,0,1,2.656-2.822l9.114.232,8.3.216,7.77.2,7.388.183,7.205.183,7.205.183,7.388.183,7.77.2,8.3.216,9.114.232a2.706,2.706,0,0,1,2.656,2.656V178.7A2.656,2.656,0,0,1,220.153,181.275Z" transform="translate(91.064 99.893)"></path><path class="w" d="M220.154,200.053l-9.114.548-8.3.5-7.77.465-7.388.448-7.205.432-7.205.432-7.388.448-7.77.465-8.3.5-9.114.548a2.59,2.59,0,0,1-2.656-2.739v-24.9a2.855,2.855,0,0,1,2.656-2.955l9.114-.183,8.3-.183,7.77-.166,7.388-.149,7.205-.149,7.205-.149,7.388-.149,7.77-.166,8.3-.183,9.114-.2a2.557,2.557,0,0,1,2.656,2.523v22.163a2.822,2.822,0,0,1-2.656,2.806Z" transform="translate(91.063 113.604)"></path><path class="w" d="M220.154,163.2l-9.114-.3-8.3-.266-7.77-.249-7.388-.249-7.205-.232-7.205-.232-7.388-.249-7.77-.249-8.3-.266-9.114-.3a2.889,2.889,0,0,1-2.656-2.988v-24.9a2.557,2.557,0,0,1,2.656-2.706l9.114.647,8.3.6,7.77.564,7.388.531,7.205.515,7.205.515,7.388.531,7.77.564,8.3.6,9.114.647a2.855,2.855,0,0,1,2.656,2.772v22.163a2.523,2.523,0,0,1-2.656,2.54Z" transform="translate(91.063 85.513)"></path><path class="r" d="M91.255,140.179a9.812,9.812,0,0,1-2.225,6.392,6.641,6.641,0,0,1-5.362,2.474,7.255,7.255,0,0,1-5.362-2.955,10.907,10.907,0,0,1-2.225-6.641,9.961,9.961,0,0,1,2.225-6.475,6.458,6.458,0,0,1,5.362-2.391,7.488,7.488,0,0,1,5.362,3.038,10.774,10.774,0,0,1,2.225,6.558Z" transform="translate(50.225 85.887)"></path><path class="r" d="M91.255,164.423a10.227,10.227,0,0,1-2.225,6.491,7.006,7.006,0,0,1-5.362,2.723,6.873,6.873,0,0,1-5.362-2.706,11.024,11.024,0,0,1,0-13.281,6.79,6.79,0,0,1,5.362-2.64A7.089,7.089,0,0,1,89.03,157.8,10.343,10.343,0,0,1,91.255,164.423Z" transform="translate(50.225 102.019)"></path><path class="s" d="M156.554,143.163a7.919,7.919,0,0,1-2.225,5.578,7.039,7.039,0,0,1-5.362,2.142,7.6,7.6,0,0,1-5.362-2.623,8.882,8.882,0,0,1-2.225-5.894A8.035,8.035,0,0,1,143.6,136.7a6.823,6.823,0,0,1,5.362-2.059,7.869,7.869,0,0,1,5.362,2.689,8.766,8.766,0,0,1,2.225,5.827Z" transform="translate(93.335 88.565)"></path><path class="s" d="M156.541,164.325A8.3,8.3,0,0,1,154.317,170a7.371,7.371,0,0,1-5.362,2.391,7.238,7.238,0,0,1-5.362-2.374,8.5,8.5,0,0,1-2.191-5.811,8.4,8.4,0,0,1,2.225-5.761,7.139,7.139,0,0,1,5.362-2.308,7.471,7.471,0,0,1,5.362,2.441,8.3,8.3,0,0,1,2.192,5.744Z" transform="translate(93.348 102.764)"></path><path class="s" d="M156.554,185.458a8.666,8.666,0,0,1-2.225,5.794,7.77,7.77,0,0,1-5.362,2.64,6.906,6.906,0,0,1-5.362-2.125,8.118,8.118,0,0,1-2.225-5.678,8.782,8.782,0,0,1,2.225-5.86,7.5,7.5,0,0,1,5.362-2.557,7.122,7.122,0,0,1,5.362,2.191A8,8,0,0,1,156.554,185.458Z" transform="translate(93.335 116.977)"></path><path class="x" d="M91.18,132l8.7.531,7.653.465,7.139.432,7.139.432,7.653.465,8.7.531" transform="translate(60.195 86.828)"></path><path class="x" d="M91.18,136.67l8.7.448,7.653.4,7.139.382,7.139.365,7.653.4,8.7.448" transform="translate(60.195 89.911)"></path><path class="x" d="M91.18,141.3l7.985.349,6.873.3,6.873.3,7.985.349" transform="translate(60.195 92.968)"></path><path class="t" d="M155.66,136l8.7.531,7.653.465,7.139.432,7.139.432,7.653.465,8.7.531" transform="translate(102.763 89.469)"></path><path class="t" d="M155.66,140l8.7.448,7.653.4,7.139.365,7.139.382,7.653.4,8.7.448" transform="translate(102.763 92.109)"></path><path class="t" d="M155.66,144.1l7.985.349,6.873.3,6.873.3,7.985.349" transform="translate(102.763 94.816)"></path><path class="x" d="M91.18,155.5l8.7.133,7.653.116,7.139.116,7.139.116,7.653.116,8.7.133" transform="translate(60.195 102.342)"></path><path class="x" d="M91.18,160.13h46.983" transform="translate(60.195 105.399)"></path><path class="x" d="M91.18,164.76h29.7" transform="translate(60.195 108.455)"></path><path class="t" d="M155.66,156.52l8.7.133,7.653.116,7.139.116,7.139.116,7.653.116,8.766.2" transform="translate(102.763 103.015)"></path><path class="t" d="M155.66,160.58h46.983" transform="translate(102.763 105.696)"></path><path class="t" d="M155.66,164.64h29.7" transform="translate(102.763 108.376)"></path><path class="t" d="M155.66,178.7l8.7-.282,7.653-.249,7.139-.232,7.139-.232,7.653-.249,8.7-.282" transform="translate(102.763 116.648)"></path><path class="t" d="M155.66,182.909l8.7-.349,7.653-.315,7.139-.282,7.139-.282,7.653-.315,8.766-.365" transform="translate(102.763 119.177)"></path><path class="t" d="M155.66,186.8l7.985-.4,6.873-.349,6.873-.349,7.985-.4" transform="translate(102.763 122.022)"></path><path class="y" d="M198.111,237.111l-10.276,1.328-9.413,1.212-8.766,1.129-8.3,1.079-8.118,1.046-8.118,1.046-8.3,1.079-8.766,1.129-9.413,1.212L108.362,248.7a2.839,2.839,0,0,1-3-3.154V215.163a3.686,3.686,0,0,1,3-3.818l10.276-.93,9.38-.9,8.766-.8,8.3-.747,8.118-.73,8.118-.731,8.3-.747,8.766-.8,9.413-.847,10.276-.93a2.789,2.789,0,0,1,2.988,3v27.376a3.636,3.636,0,0,1-2.955,3.536Z" transform="translate(69.542 133.823)"></path><path class="z" d="M208.05,229.691l-10.094,1.162-9.247,1.063-8.616,1-8.185.946-7.985.913-7.985.913-8.185.946-8.616,1-9.247,1.063L119.8,239.851a2.806,2.806,0,0,1-2.939-3.1v-29.5a3.536,3.536,0,0,1,2.939-3.652l10.094-.764,9.247-.7,8.616-.647,8.185-.614,7.985-.6,7.985-.6,8.185-.614,8.616-.647,9.247-.7,10.094-.764a2.756,2.756,0,0,1,2.938,2.872v26.563A3.486,3.486,0,0,1,208.05,229.691Z" transform="translate(77.135 129.704)"></path><path class="p" d="M138.349,214.142a11.223,11.223,0,0,1-2.457,6.989,8.949,8.949,0,0,1-5.927,3.437,7.039,7.039,0,0,1-5.927-2.208,9.529,9.529,0,0,1-2.457-6.641,11.372,11.372,0,0,1,2.457-7.089,8.649,8.649,0,0,1,5.927-3.32,7.255,7.255,0,0,1,5.927,2.291A9.4,9.4,0,0,1,138.349,214.142Z" transform="translate(80.263 135.209)"></path><path class="aa" d="M138.18,206.972l9.646-.83,8.484-.731,7.9-.681,7.9-.681,8.483-.73,9.646-.83" transform="translate(91.223 133.364)"></path><path class="aa" d="M138.18,211.967l9.646-.913,8.484-.814,7.9-.747,7.9-.747,8.483-.814,9.646-.913" transform="translate(91.223 136.354)"></path><path class="aa" d="M138.18,216.236l9.247-.963,7.952-.83,7.952-.83,9.247-.963" transform="translate(91.223 140.071)"></path><path class="ab" d="M519.08,40.39" transform="translate(342.684 26.349)"></path><path class="ac" d="M499.64,2.13" transform="translate(329.85 1.091)"></path><g class="ad" transform="translate(314.852 522.975)"><path class="ae" d="M206.491,319.08a4.981,4.981,0,0,0-4.981,4.981h5.13v-4.9Z" transform="translate(-181.82 -312.641)"></path></g><g class="af" transform="translate(363.972 512.679)"><path class="ae" d="M234.611,311.38a4.981,4.981,0,0,0-3.553,6.01l4.981-1.262-1.212-4.732Z" transform="translate(-211.53 -307.429)"></path></g></g></g></g><g transform="translate(197.667 242.307)"><g transform="translate(182.842 169.219)"><path class="ag" d="M200.8,196.956l.738,10.733s-2.578,5.633-8.916,4.986c-6.678-.681-7.814-4.407-7.814-4.407l3.112-20.228" transform="translate(-177.674 -166.664)"></path><path class="ag" d="M202.732,176.782c4.009,4.429,9.359,20.716,2.113,24.51-7.644,4.009-16.877.954-19.478-9.529C182.64,180.746,192.192,165.152,202.732,176.782Z" transform="translate(-177.662 -168.751)"></path><path class="ah" d="M200.6,199.662s-5.577.863-8.882-2.442" transform="translate(-176.736 -165.418)"></path><g transform="translate(8.545 21.83)"><path class="ai" d="M186.05,188.44Z" transform="translate(-186.05 -188.44)"></path></g><g transform="translate(8.506 21.784)"><path class="ai" d="M186.021,188.468a.63.63,0,0,0,.068.091c.011.023.034.023.057.011s.034-.034.011-.057a.63.63,0,0,0-.068-.091c-.011-.023-.034-.034-.057-.011a.05.05,0,0,0-.011.057Z" transform="translate(-186.016 -188.399)"></path></g><g transform="translate(5.87 21.217)"><path class="ag" d="M187.6,189.093a2.272,2.272,0,0,0-2-1.193c-2.022-.023-2.306,2.726-1.442,4.52a5.7,5.7,0,0,0,2.328,2.555c1.42.852,2.828.659,3.032-1.079" transform="translate(-183.695 -187.9)"></path></g><path class="aj" d="M190.251,193.469c1.965,0,1.011-5.145,1.011-5.145a4.854,4.854,0,0,0,4-1.306c1.715-1.692-.432-3.271-.432-3.271s3.737,2.51,6.678,1.238a3.123,3.123,0,0,0,2.022-3.441s2.6,2.067,3.862.591c2.272-2.658,1.408-5.531-1.329-8s-5.225-1.408-5.225-1.408-3.964-4.361-8.4-3.362c-4.111.92-8.484,3.282-8.586,8.609,0,0-3.6-.965-4.941,3.839-1.227,4.4.92,5.872.92,5.872s-1.556,3.407-.25,6.213a7.609,7.609,0,0,0,4.816,3.816s-1.374,3.021,1.919,3.294,3.43-2.237,2.113-3.021c-2.976-1.76-5.077-4.373-2.885-7.121S190.251,193.469,190.251,193.469Z" transform="translate(-178.527 -169.219)"></path></g><g transform="translate(146.741 287.021)"><g transform="translate(63.148 184.368)"><rect class="ak" width="41.16" height="1.84" transform="translate(0.01 34.595)"></rect><path class="al" d="M208.212,452.33l-3.566.84s-1.363,4.657-1.885,7.894a37.867,37.867,0,0,0-.409,6.462l41.16.034s-1.079-3.566-10.9-9.325a21.435,21.435,0,0,1-5.838-4.861Z" transform="translate(-202.341 -432.954)"></path><path class="ag" d="M202.86,437.405l1.715,18.081s1.726,2.09,8.723,2.09a53.921,53.921,0,0,0,13.413-1.885l.716-20.421" transform="translate(-202.27 -435.27)"></path><line class="am" x1="2.669" y2="3.589" transform="translate(24.861 23.408)"></line><line class="am" x1="2.317" y2="3.589" transform="translate(27.757 25.202)"></line><line class="am" x1="2.147" y2="3.419" transform="translate(30.517 26.804)"></line></g><path class="an" d="M228.052,295.408c7.9,92.542,6.167,172.772,6.167,172.772l-31.04.943S193,339.612,185.677,321c-3.453-8.757-4.452-29.927-.568-45.146" transform="translate(-141.871 -272.545)"></path><path class="ao" d="M195.7,341.85c7.53,33.5,12.141,117.665,12.141,117.665" transform="translate(-140.094 -263.585)"></path><g transform="translate(0 184.368)"><rect class="ak" width="41.16" height="1.84" transform="translate(0.01 34.595)"></rect><path class="al" d="M152.612,452.33l-3.566.84s-1.363,4.657-1.885,7.894a37.867,37.867,0,0,0-.409,6.462l41.16.034s-1.079-3.566-10.9-9.325a21.435,21.435,0,0,1-5.838-4.861Z" transform="translate(-146.741 -432.954)"></path><path class="ag" d="M150.451,439.836l-1.681,15.651s1.726,2.09,8.723,2.09a53.921,53.921,0,0,0,13.413-1.885l4.111-20.421" transform="translate(-146.465 -435.27)"></path><line class="am" x1="2.669" y2="3.589" transform="translate(24.861 23.408)"></line><line class="am" x1="2.317" y2="3.589" transform="translate(27.746 25.202)"></line><line class="am" x1="2.158" y2="3.419" transform="translate(30.506 26.804)"></line></g><path class="ao" d="M207.338,297.42c.17,18.331-6.508,17.173-6.508,17.173" transform="translate(-139.398 -269.617)"></path><path class="an" d="M166.738,278.028c-7.621,27.463-3.816,35.243-4.123,46.157-.568,20.319-15.685,144.571-15.685,144.571l34.425.568c-2.964,15.378,36.9-166.366,27.724-196.384" transform="translate(-146.715 -272.94)"></path><path class="ao" d="M181.6,297.42c-.7,7.541-11.4,9.29-11.4,9.29" transform="translate(-143.556 -269.617)"></path><path class="ao" d="M217.44,297.42c.875,8.064,6.894,7.541,6.894,7.541" transform="translate(-137.143 -269.617)"></path><path class="ao" d="M172.889,295.68c0,36.924-19.649,170.114-19.649,170.114" transform="translate(-145.858 -269.853)"></path><path class="ao" d="M193.14,374.468c7.235-39.116,10.46-78.788,10.46-78.788" transform="translate(-140.442 -269.853)"></path></g><g transform="translate(153.722 201.51)"><g transform="translate(61.925)"><path class="ap" d="M234.271,228.346S242.5,242.19,245.015,244.7s21.807-33.3,21.807-33.3l11.028,10.358s-14.288,49.985-28.644,52.324-34.55-21.012-34.55-21.012l-7.246-21.046" transform="translate(-207.41 -195.784)"></path><g transform="translate(54.812)"><path class="ap" d="M269,230.939l-13.334-9.37c3.941-9.245,12.175-24.385,13.743-23.908s-1.193,8.416-1.738,10.29c.363-1.329,4.066-1.511,3.964.806.023-.557,1.249-.568,1.658-.477a2.3,2.3,0,0,1,1.715,2.056,1.1,1.1,0,0,1,1.42-.114c2.59,1.59,1.738,6.962.8,7.382s-1.647-4.043-1.647-4.043-1.261,3.669-1.488,4.248c-.432,1.1-.943,2.226-1.465,3.305C271.4,223.636,269,230.939,269,230.939Z" transform="translate(-255.67 -197.65)"></path><path class="ah" d="M261.85,212.215c.977-2.9,2.68-6.769,3.725-5.838,1.227,1.09-.159,4.384.193,6.758,1.181,2.51.852,6.008-.159,7.03" transform="translate(-254.831 -196.485)"></path></g></g><path class="aq" d="M199.54,204.458s12.323-1.817,20.569,3.26c9.063,5.588,17.32,24.078,17.32,24.078l-16.037,5.429" transform="translate(-146.554 -196.769)"></path><path class="aq" d="M188.515,203.89s.67,4.259,8.2,4.838c6.837.522,8.212-4.236,8.212-4.236s18.093,5.622,22.193,27.463c4.27,22.761,7.337,80.185,7.337,80.185h-74.6s.8-66.987,8.336-86.783S188.515,203.89,188.515,203.89Z" transform="translate(-151.94 -196.803)"></path><g transform="translate(45.229 51.268)"><path class="al" d="M192.71,282.542H247.4A3.376,3.376,0,0,0,250.668,280l8.212-32.358a3.892,3.892,0,0,0-3.771-4.85H205.817a3.854,3.854,0,0,0-3.737,2.908Z" transform="translate(-192.71 -242.79)"></path><path class="ar" d="M219.25,260.718c0,1.976,2.09,3.578,4.668,3.578s4.668-1.6,4.668-3.578-2.09-3.578-4.668-3.578S219.25,258.741,219.25,260.718Z" transform="translate(-189.107 -240.842)"></path></g><path class="as" d="M154.28,239.21" transform="translate(-152.698 -192.008)"></path><g transform="translate(0.605 45.351)"><g transform="translate(40.535 40.104)"><path class="ag" d="M205.045,272.89q3.373.29,6.746.636c3.612.375,14.39.875,14.663,1.829s-3.589.7-4.225.772-1.465.284-1.465.931c0,.522,1.613.784,3.782.852,3.68.114,11.369.556,11.369.556-2.408,2.873-14.64,4.623-17.1,4.793a239.863,239.863,0,0,1-29.7-.034" transform="translate(-189.11 -272.89)"></path></g><path class="ag" d="M153.42,239.817s.92,31.824,7.019,39.9c7.928,10.483,51.45,8.234,51.45,8.234l2.442-9.438s-29.507-6.076-32.755-9.325-1.726-31.608-1.726-31.608" transform="translate(-153.42 -237.58)"></path></g><path class="aq" d="M189.462,203.89c-27.565,3.055-38.332,15.662-36.344,42.557l28.905-1.874-1.193-19.41" transform="translate(-152.887 -196.803)"></path><path class="at" d="M177.35,241.392v-13.4" transform="translate(-149.566 -193.531)"></path><path class="at" d="M220.388,234.2a63.622,63.622,0,0,0-3.5-12.936" transform="translate(-144.198 -194.445)"></path></g></g><g transform="translate(-312.203 252.085)"><path class="ag" d="M550.176,232.77s7.38,15.19,6.9,30.486c-.252,7.758-15.715,41.86-15.715,41.86s-10.808-22.392-11.647-23.221,8.481-25.537,8.481-26.68-8.533-19.268-8.533-19.268" transform="translate(5.316 2.654)"></path><g transform="translate(478.65 278.794)"><g transform="translate(0 57.596)"><path class="ag" d="M488.342,329.08,493.2,458.266,481.35,465.72s32.435,1.866,33.494.807-1.289-8.345-1.289-8.345l10.106-127.111Z" transform="translate(-475.669 -329.08)"></path><path class="aj" d="M509.938,460.393l4.854-4.728-.671-2.5-7.464,7.223-3.575-.01-12.559-6.28-13.712,8.481a1.853,1.853,0,0,0,.975,3.428l18.377.031L502.054,462h1.667l-.01,4.057,11.972.021.011-5.672Z" transform="translate(-475.931 -323.082)"></path></g><g transform="translate(44.278 59.074)"><path class="ag" d="M519.2,330.49l16.469,127.886-11.857,7.433s32.436,1.929,33.494.87-1.269-8.355-1.269-8.355l-.87-126.828Z" transform="translate(-518.118 -330.49)"></path><path class="aj" d="M552.178,460.613l4.864-4.718-.66-2.5-7.475,7.2-3.575-.01-12.549-6.311-13.733,8.46a1.852,1.852,0,0,0,.964,3.428l18.377.073,5.892-4.036,1.667.01-.01,4.057,11.972.042.021-5.672Z" transform="translate(-518.168 -324.549)"></path></g><path class="au" d="M544.474,276.6c4.634,2.831,9.823,14.236,12.433,23.776,6.059,22.183,2.547,57.166,2.547,57.166H486.68s-1.73-60.971,4.812-80.942" transform="translate(-475.421 -274.021)"></path><path class="ao" d="M497.608,274.14c-6.321,28.8-5.577,83.521-5.577,83.521" transform="translate(-475.154 -274.14)"></path></g><g transform="translate(419.683 210.076)"><path class="al" d="M522.591,208.59s-2.17,2.181-7.37,2.285c-4.34.094-6.227-1.814-6.227-1.814s-11.238.587-16.26,7.118c-8.628,11.217-1.331,63.707-1.331,63.707h52.983c.315-30.758,11.595-63.623-21.795-71.3" transform="translate(-416.355 -208.59)"></path><g transform="translate(0 5.479)"><path class="ag" d="M439.3,230.5c-2.831-2.778-13.586-15.5-14.362-15.264s1.593,3.575.923,3.648-5.347-5.483-6.059-5.042c-.964.6,4.068,6.059,4.068,6.059s-1.122-1.08-1.814-.325c-.493.535.472,2.317.472,2.317s-1.227-.524-1.719.042.556,1.992.556,1.992-.975-.262-1.321.388c-.325.619,1.73,4.78,7.139,11.333" transform="translate(-419.683 -213.816)"></path></g><path class="ap" d="M479.531,229.416s-14.488,16.176-17.748,16.9c-3.187.7-28.6-21.2-28.6-21.2l-7.9,7.925s28.5,38.6,41.661,35.989,30.391-24.678,30.391-24.678L486.859,222.78" transform="translate(-419.412 -207.904)"></path><path class="al" d="M509.6,209.04s-16.878.44-33.662,21.1L492.776,249.1,506.4,234.672" transform="translate(-416.964 -208.568)"></path><path class="al" d="M528.64,210.89c13.429,4.162,23.839,24.887,23.839,24.887l-11.5,10.766" transform="translate(-414.416 -208.479)"></path><line class="av" y1="9.456" x2="11.238" transform="translate(75.802 31.083)"></line><path class="av" d="M543.861,242.433a104.214,104.214,0,0,0-1.531-15.253" transform="translate(-413.755 -207.691)"></path></g><g transform="translate(505.182 177.853)"><path class="ag" d="M508.327,201.576l-.587,8.261a10.408,10.408,0,0,0,7.9,3.229c6.238-.231,7.747-3.722,7.747-3.722L519.6,192.77" transform="translate(-500.926 -177.132)"></path><path class="ag" d="M507.027,182.922c-3.69,3.973-9.414,17.927-2.642,21.239,7.139,3.491,16.606,1.268,18.922-8.072C525.75,186.266,516.713,172.491,507.027,182.922Z" transform="translate(-501.24 -177.788)"></path><path class="aw" d="M508.06,204.669s6.028.975,10.043-3.669" transform="translate(-500.91 -176.734)"></path><g transform="translate(19.982 15.817)"><path class="ai" d="M520.3,192.94Z" transform="translate(-520.3 -192.94)"></path></g><g transform="translate(19.893 15.778)"><path class="ai" d="M520.273,192.921a.422.422,0,0,0-.052.094.038.038,0,0,0,.063.042.427.427,0,0,0,.052-.094.046.046,0,0,0-.01-.052c-.021-.01-.042-.01-.052.01Z" transform="translate(-520.216 -192.903)"></path></g><g transform="translate(1.877)"><path class="aj" d="M507.37,185.146c-1.824.765-2.956,1.132-4.34.7.723-4.55,5.3-9.016,10.064-7.15,4.5-2.212,10.483.178,13.3,4.089,2.6,3.617,2.317,8.764,1.4,13.083-.776,3.669-3.805,7.915-6.175,8.083-2.233-1.227-4.267-2.621-5.829-7.223C511.794,191.8,507.758,186.74,507.37,185.146Z" transform="translate(-503.03 -177.853)"></path></g><g transform="translate(11.092 14.592)"><path class="ag" d="M512.732,193.206a2.107,2.107,0,0,1,1.614-1.394c1.845-.377,2.579,1.971,2.107,3.69a5.063,5.063,0,0,1-1.677,2.642c-1.153.985-2.464,1.069-2.956-.409" transform="translate(-511.82 -191.771)"></path></g><path class="aj" d="M521.535,201.037s6.982,3.135,8.114,8.743-3.1,9.676-8.114,7.234-2.076-16.773-2.076-16.773" transform="translate(-500.4 -176.771)"></path></g></g><g transform="translate(-42 170.239)"><path class="ax" d="M652.87,466.08h-2.65l3.58-79.47h6.15Z"></path><line class="ay" x2="16.46" y2="79.78" transform="translate(684.52 386.61)"></line><line class="ay" x1="16.45" y2="79.78" transform="translate(609.76 386.61)"></line><path class="al" d="M634.02,350.65c0,3.97.17,15.67-3.72,20.47-4.28,5.28-9.44,2.78-18.15,6.75-5.75,2.62-4.84,15.94,5.29,15.94h69.37c30.46,0,35.54-38.24,31.92-74.7-3.41-34.29-22.21-46.79-43.66-45.98C649.29,274.1,634.02,306.29,634.02,350.65Z"></path><rect class="ak" width="36.24" height="1.62" transform="translate(663.978 466.075) rotate(179.956)"></rect><path class="az" d="M658.82,451.07l3.14.74s1.2,4.1,1.66,6.95a33.339,33.339,0,0,1,.36,5.69l-36.24.03s.95-3.14,9.6-8.21a18.874,18.874,0,0,0,5.14-4.28Z"></path><line class="at" x2="2.26" y2="2.69" transform="translate(638.99 455.18)"></line><line class="at" x2="2.26" y2="2.68" transform="translate(636.3 456.95)"></line><line class="at" x2="2.26" y2="2.69" transform="translate(633.79 458.56)"></line><path class="ag" d="M662.55,438.03l-.6,13.78s-1.52,1.84-7.68,1.84a47.476,47.476,0,0,1-11.81-1.66l-1.22-18.59"></path><rect class="ak" width="36.24" height="1.62" transform="matrix(-0.98, 0.196, -0.196, -0.98, 623.102, 459.257)"></rect><path class="az" d="M615.08,445.57l3.22.11a71.42,71.42,0,0,1,2.99,6.49,33.554,33.554,0,0,1,1.47,5.51l-35.54,7.12s.31-3.27,7.8-9.93a18.931,18.931,0,0,0,4.21-5.2Z"></path><line class="at" x2="2.76" y2="2.16" transform="translate(597.34 452.49)"></line><line class="at" x2="2.77" y2="2.16" transform="translate(595.07 454.77)"></line><line class="at" x2="2.77" y2="2.16" transform="translate(592.94 456.87)"></line><path class="ag" d="M613.4,432.98l4.89,12.69s-1.13,2.1-7.17,3.31a47.063,47.063,0,0,1-11.91.68l-7.92-16.86"></path><path class="ba" d="M643.8,337.17s-51.4,5.26-66.41,24.99S588,448.43,588,448.43l28.91-9.76s-15.07-47.6-10.36-57.56,48.58-7.83,48.58-7.83l28.62-38.99"></path><path class="ba" d="M697.18,337.17s7.37,13.53,1.82,28.6c-4.85,13.17-21.48,5.77-30.49,11.25s-4.23,69.26-4.23,69.26l-30.66.25s-9.04-60.84-1.32-80.76,34.32-26.78,34.32-26.78"></path><path class="ao" d="M678.5,342.3c1.26,6.34,13.72,4.99,13.72,4.99"></path><path class="ao" d="M656.71,342.3c-19.93,9.86-25.77,20.51-26.86,30.78"></path><path class="ao" d="M688.89,340.07s7.66,10.56,2.11,20.86-24.89,3.72-30.14,14.14-.76,71-.76,71"></path><path class="ao" d="M632.12,364.36s-27.8,4.91-31.76,15.24,12.46,60.46,12.46,60.46"></path><path class="ag" d="M651.46,235.07s-6.82,11.98-3.44,16.84c1.76,2.53,7.99,3.99,11.04,2.32,2.26-1.24,6.91-10.56,6.08-12.48C661.97,234.44,651.46,235.07,651.46,235.07Z"></path><path class="ag" d="M665.53,250.03l1.25,14.14s-10.29,7.86-16.39-1.05l.82-11.17Z"></path><path class="aj" d="M669.19,247.89c.94-2.64,1.77-4.04,2.07-7.22a3.784,3.784,0,0,0-2.43-4.17s.48.35-1.11-2.45c-1.5-2.64-6.1-2.3-8.89-2.62-3.67-.41-7.07-2.68-9.16-1.14-.91.67-2.77,5.58.27,7.09,1.74.86,4.5.2,6.47.41,3.68.4,6.37,1.41,6.93,3.71a6.192,6.192,0,0,1-.34,3.38,9.378,9.378,0,0,0-.28,1.1l1.5.97c1.91,1.16-1.96,4.59-1.59,6.12.2.81,1.85,1.08,3.26.34C667.29,252.7,668.16,250.77,669.19,247.89Z"></path><path class="ag" d="M663.28,247.15c1.56-1.77,2.73-1.41,3.32-.36.78,1.4-1.1,4.12-1.93,4.56-1.68.88-2.99.71-3.05-.62"></path><path class="bb" d="M651.02,254.64a12.733,12.733,0,0,0,8.61-.83"></path><path class="ap" d="M622.23,276.45s-16.83,12.08-20.02,12.08c-3.12,0-22.26-25.64-22.26-25.64l-8.99,5.75s18.58,41.83,31.38,42.11,33.39-16.71,33.39-16.71l-5.3-22.26"></path><path class="ap" d="M574.11,272.4l7.86-6.45c-2.6-6.1-11.26-20.79-12.56-20.18s2.07,7.19,2.77,8.76c-.48-1.12-3.73-.82-3.36,1.19-.09-.48-1.16-.34-1.51-.21a2.015,2.015,0,0,0-1.24,2c-.27-.32-.88-.23-1.25.07-2.07,1.71-.66,6.29.21,6.53s.94-3.72.94-3.72,1.55,3.05,1.82,3.52c.52.91,1.1,1.83,1.68,2.71A58.382,58.382,0,0,0,574.11,272.4Z"></path><path class="ah" d="M577.19,258.66c-1.21-2.4-3.16-5.58-3.97-4.63-.94,1.1.68,3.8.66,5.92-.73,2.34,0,5.34,1,6.11"></path><path class="aq" d="M650.27,261.36s-12.32,0-31.9,16.7l15.41,21.97,11.92-18.07"></path><path class="aq" d="M632.71,338.76c38.92,10.34,68.26,1.38,68.26,1.38s.09-75.67-34.37-78.59c-1.79,1.79-4.29,3.56-10.29,2.75a13.536,13.536,0,0,1-6.04-2.94s-17.11,16.89-16.99,32.82C633.43,314.59,631.33,331.69,632.71,338.76Z"></path><path class="at" d="M633.79,298.31c.39-8.54,3.24-18.25,3.25-18.52"></path><path class="as" d="M645.64,332.78H597.49a2.973,2.973,0,0,1-2.88-2.24l-7.23-28.49a3.426,3.426,0,0,1,3.32-4.27h43.4a3.393,3.393,0,0,1,3.29,2.56Z"></path><path class="bc" d="M616.87,315.28c0,1.74-1.84,3.15-4.11,3.15s-4.11-1.41-4.11-3.15,1.84-3.15,4.11-3.15S616.87,313.54,616.87,315.28Z"></path><path class="ag" d="M635.66,327.87q-2.97.255-5.94.56c-3.18.33-12.67.77-12.91,1.61s3.16.62,3.72.68,1.29.25,1.29.82c0,.46-1.42.69-3.33.75-3.24.1-7.51,0-7.51,0,.99,1.8,10.38,4.71,12.56,4.71a152.166,152.166,0,0,0,22.17-1.37"></path><path class="ag" d="M690.74,295.39s-3.9,27.18-9.28,34.28c-6.98,9.23-47.58,7.25-47.58,7.25l-2.15-8.31s27.44-6.81,30.3-9.67,5.8-25.52,5.8-25.52"></path><path class="aq" d="M666.6,261.55c19.79,2.06,26.67,19.32,24.97,40.32l-27.11-2.07.78-17.19"></path><path class="at" d="M665.43,299.87c.94-5.84,1.89-15.63,1.89-15.63"></path><path class="at" d="M690.74,301.81c.62-3.5,1.08-11.14,1.08-11.14"></path></g><g transform="translate(3.555 567.5) rotate(-90)"><text class="bd" transform="translate(260 282)"><tspan x="0" y="0">NO-CODE</tspan></text></g><text class="be" transform="matrix(0.999, -0.035, 0.035, 0.999, 440.611, 144)"><tspan x="-22.209" y="0">A.I</tspan></text><g class="bf" transform="translate(9.362 192.199)"><path class="z" d="M6.964,19.953l2.356-6.787.043.008,1.586,7.5Zm.912-11.9L1.033,26.565l3.452.592L5.918,23l5.756,1.015.947,4.537,3.474.6L11.334,8.717ZM31.291,24.488l.531-11.821L28.6,12.046l-.54,11.862q-.1,2.142-.805,3.031t-2.455.584q-1-.175-1.579-.643t-.887-1.107q-.308-.639-.378-1.412t-.033-1.555l.556-11.94-3.291-.635-.565,11.982q-.186,3.951,1.4,6.137t4.614,2.7q2.97.508,4.73-1.094T31.291,24.488Zm7.222-7.018-.674,15.409,3.166.543.663-15.357,4.266.806.147-3.456L34.332,13.151l-.156,3.5Zm12.145,8.287q.051-1.227.3-2.337T51.7,21.5q.487-.814,1.232-1.21t1.776-.2q1.029.195,1.725.862t1.1,1.642q.408.975.565,2.151t.108,2.392q-.047,1.165-.294,2.23t-.728,1.868q-.481.8-1.221,1.21t-1.773.226q-1.035-.181-1.736-.843t-1.117-1.63q-.415-.968-.575-2.115T50.658,25.757Zm-3.095-.564q-.086,2.044.314,3.9t1.234,3.319q.832,1.464,2.089,2.432t2.857,1.24q1.617.277,2.909-.248t2.209-1.669q.918-1.143,1.449-2.807t.61-3.675q.082-2.063-.308-3.915t-1.2-3.331q-.813-1.481-2.036-2.47t-2.836-1.3q-1.6-.309-2.907.2T49.691,18.53q-.942,1.163-1.49,2.864T47.563,25.193Zm16.92-6.229-.721,18.363,2.8.48.5-12.857.038.007L69.9,38.381l2.271.39,3.742-12.3.037.007-.479,12.855L78.2,39.8l.664-18.068-4.083-.787L71.359,32.893l-.037-.007L68.664,19.77ZM85.075,34l1.916-6.262.036.007L88.419,34.6Zm.663-10.935-5.57,17.08,2.893.5,1.164-3.831,4.83.851.832,4.151,2.917.5L88.641,23.621Zm10.609,5.332-.487,14.44,2.771.475.479-14.394,3.736.706.106-3.241L92.665,24.4l-.113,3.28Zm8.787-1.592-.565,17.527,2.714.466.555-17.471Zm7.277,13.065-2.592-.463q-.068,1.61.323,2.858t1.093,2.131q.7.882,1.634,1.4t1.931.686q1.233.211,2.181-.042t1.6-.882q.65-.629,1-1.589t.382-2.142q.043-1.448-.355-2.454t-.967-1.668q-.57-.663-1.157-1.026t-.922-.522q-1.116-.62-1.808-1.016t-1.083-.737q-.39-.341-.516-.682t-.11-.851q.017-.558.2-.891t.451-.525q.27-.193.594-.229t.645.025q.489.093.9.292t.72.55q.311.35.488.894t.188,1.323l2.544.474q.044-1.493-.317-2.615t-1.01-1.925q-.649-.8-1.5-1.272t-1.8-.651q-.81-.157-1.632,0t-1.489.69q-.667.532-1.1,1.441T110.44,32.7q-.037,1.194.252,2.093t.783,1.552q.493.653,1.128,1.123t1.3.835q.652.386,1.287.721t1.131.716q.5.381.794.873T117.4,41.8q-.02.654-.268,1.036t-.609.563q-.361.181-.768.195t-.763-.048q-.524-.092-1.01-.36t-.839-.71q-.354-.442-.556-1.09T112.41,39.866Zm10.179-9.7-.5,17.167L131,48.862l.087-3.147-6.3-1.106.121-4.2,5.664,1.024.081-2.9-5.661-1.044.105-3.663,6.16,1.163.087-3.133ZM136.2,40.456l.127-4.747,2.744.519q.858.162,1.271.8t.382,1.854q-.033,1.269-.476,1.754t-1.3.329Zm-2.315-8.111-.462,16.934,2.529.434.177-6.609,2.509.451q.939.169,1.336.856t.489,2.027q.069,1.03.088,2.145t.2,1.953l2.483.426q-.164-.382-.238-.9t-.1-1.091q-.025-.571-.027-1.114t-.007-.945q-.015-.64-.086-1.289t-.246-1.211q-.176-.562-.466-1t-.744-.713v-.047q.963-.391,1.409-1.394t.483-2.477q.025-.96-.182-1.834t-.624-1.589q-.417-.715-1.016-1.2t-1.36-.627Z" transform="translate(34.473 3.214)"></path></g></g></svg> 