<?xml version="1.0" encoding="UTF-8"?> <svg xmlns:xlink="http://www.w3.org/1999/xlink" xmlns="http://www.w3.org/2000/svg" version="1.1" viewBox="0.0 0.0 755.9055118110236 188.9763779527559" fill="none" stroke="none" stroke-linecap="square" stroke-miterlimit="10"><clipPath id="g10a468ed9c3_2_0.0"><path d="m0 0l755.9055 0l0 188.97638l-755.9055 0l0 -188.97638z" clip-rule="nonzero"></path></clipPath><g clip-path="url(#g10a468ed9c3_2_0.0)"><path fill="#000000" fill-opacity="0.0" d="m0 0l755.9055 0l0 188.97638l-755.9055 0z" fill-rule="evenodd"></path><path fill="#000000" fill-opacity="0.0" d="m186.69292 -7.9711285l488.18896 0l0 146.99213l-488.18896 0z" fill-rule="evenodd"></path><path fill="#000000" d="m238.49289 94.43512l-6.296875 -3.40625l37.203125 -47.296875l5.1875 4.390625l-36.09375 46.3125zm-3.5 2.59375q-3.5 0 -3.5 -3.5q0 -3.5 3.5 -3.5l37.09375 0q3.5 0 3.5 3.5q0 3.5 -3.5 3.5l-37.09375 0zm-0.40625 -47.703125q-3.5 0 -3.5 -3.5q0 -3.5 3.5 -3.5l37.109375 0q3.5 0 3.5 3.5q0 3.5 -3.5 3.5l-37.109375 0zm77.10306 48.203125q-8.09375 0 -14.34375 -3.546875q-6.25 -3.546875 -9.8125 -9.84375q-3.546875 -6.3125 -3.546875 -14.40625q0 -8.203125 3.34375 -14.453125q3.359375 -6.25 9.25 -9.84375q5.90625 -3.609375 13.609375 -3.609375q7.609375 0 13.25 3.453125q5.65625 3.453125 8.75 9.5625q3.109375 6.09375 3.109375 13.890625q0 1.59375 -1.0 2.546875q-1.0 0.953125 -2.609375 0.953125l-42.5 0l0 -6.40625l43.296875 0l-4.296875 3.109375q0.109375 -5.8125 -2.09375 -10.40625q-2.203125 -4.59375 -6.25 -7.1875q-4.046875 -2.609375 -9.65625 -2.609375q-5.703125 0 -10.0 2.703125q-4.296875 2.6875 -6.65625 7.4375q-2.34375 4.75 -2.34375 10.859375q0 6.09375 2.640625 10.796875q2.65625 4.703125 7.25 7.40625q4.609375 2.6875 10.609375 2.6875q3.609375 0 7.25 -1.25q3.65625 -1.25 5.859375 -3.140625q1.09375 -0.90625 2.484375 -0.953125q1.40625 -0.046875 2.40625 0.75q1.296875 1.203125 1.34375 2.609375q0.0625 1.390625 -1.140625 2.390625q-3.296875 2.796875 -8.40625 4.65625q-5.09375 1.84375 -9.796875 1.84375zm39.806213 -34.203125q0.296875 -6.203125 3.25 -11.09375q2.953125 -4.90625 7.703125 -7.703125q4.75 -2.796875 10.546875 -2.796875q4.59375 0 7.09375 1.296875q2.5 1.296875 1.90625 3.796875q-0.40625 1.5 -1.359375 2.0q-0.9375 0.5 -2.296875 0.40625q-1.34375 -0.109375 -3.046875 -0.203125q-5.59375 -0.5 -9.953125 1.15625q-4.34375 1.640625 -6.90625 5.046875q-2.546875 3.390625 -2.546875 8.09375l-4.390625 0zm0.59375 33.703125q-1.796875 0 -2.796875 -1.0q-1.0 -1.0 -1.0 -2.796875l0 -47.109375q0 -1.796875 1.0 -2.796875q1.0 -1.0 2.796875 -1.0q1.796875 0 2.796875 1.0q1.0 1.0 1.0 2.796875l0 47.109375q0 1.796875 -1.0 2.796875q-1.0 1.0 -2.796875 1.0zm62.909332 0.5q-8.0 0 -14.3125 -3.59375q-6.296875 -3.609375 -9.90625 -9.90625q-3.59375 -6.296875 -3.59375 -14.296875q0 -8.109375 3.59375 -14.40625q3.609375 -6.296875 9.90625 -9.890625q6.3125 -3.609375 14.3125 -3.609375q8.0 0 14.25 3.609375q6.25 3.59375 9.84375 9.890625q3.59375 6.296875 3.703125 14.40625q0 8.0 -3.65625 14.296875q-3.640625 6.296875 -9.890625 9.90625q-6.25 3.59375 -14.25 3.59375zm0 -7.0q5.796875 0 10.390625 -2.703125q4.609375 -2.703125 7.203125 -7.390625q2.59375 -4.703125 2.59375 -10.703125q0 -6.0 -2.59375 -10.75q-2.59375 -4.75 -7.203125 -7.453125q-4.59375 -2.703125 -10.390625 -2.703125q-5.8125 0 -10.40625 2.703125q-4.59375 2.703125 -7.25 7.453125q-2.65625 4.75 -2.65625 10.75q0 6.0 2.65625 10.703125q2.65625 4.6875 7.25 7.390625q4.59375 2.703125 10.40625 2.703125zm91.590546 29.90625q-1.703125 0 -2.796875 -1.0625q-1.09375 -1.046875 -1.09375 -2.84375l0 -29.40625q-3.3125 4.703125 -8.71875 7.5625q-5.390625 2.84375 -12.09375 2.84375q-7.6875 0 -13.796875 -3.640625q-6.09375 -3.65625 -9.65625 -9.953125q-3.546875 -6.3125 -3.546875 -14.203125q0 -8.0 3.65625 -14.296875q3.65625 -6.3125 9.953125 -9.953125q6.296875 -3.65625 14.203125 -3.65625q7.796875 0 14.046875 3.609375q6.25 3.59375 9.890625 9.84375q3.65625 6.25 3.859375 14.046875l0 47.203125q0 1.796875 -1.109375 2.84375q-1.09375 1.0625 -2.796875 1.0625zm-23.890625 -29.90625q5.796875 0 10.34375 -2.703125q4.546875 -2.703125 7.1875 -7.453125q2.65625 -4.75 2.65625 -10.640625q0 -6.0 -2.65625 -10.703125q-2.640625 -4.703125 -7.1875 -7.453125q-4.546875 -2.75 -10.34375 -2.75q-5.703125 0 -10.3125 2.75q-4.59375 2.75 -7.296875 7.453125q-2.703125 4.703125 -2.703125 10.703125q0 5.890625 2.703125 10.640625q2.703125 4.75 7.296875 7.453125q4.609375 2.703125 10.3125 2.703125zm70.69995 7.0q-8.0 0 -14.3125 -3.59375q-6.296875 -3.609375 -9.90625 -9.90625q-3.59375 -6.296875 -3.59375 -14.296875q0 -8.109375 3.59375 -14.40625q3.609375 -6.296875 9.90625 -9.890625q6.3125 -3.609375 14.3125 -3.609375q8.0 0 14.25 3.609375q6.25 3.59375 9.84375 9.890625q3.59375 6.296875 3.703125 14.40625q0 8.0 -3.65625 14.296875q-3.640625 6.296875 -9.890625 9.90625q-6.25 3.59375 -14.25 3.59375zm0 -7.0q5.796875 0 10.390625 -2.703125q4.609375 -2.703125 7.203125 -7.390625q2.59375 -4.703125 2.59375 -10.703125q0 -6.0 -2.59375 -10.75q-2.59375 -4.75 -7.203125 -7.453125q-4.59375 -2.703125 -10.390625 -2.703125q-5.8125 0 -10.40625 2.703125q-4.59375 2.703125 -7.25 7.453125q-2.65625 4.75 -2.65625 10.75q0 6.0 2.65625 10.703125q2.65625 4.6875 7.25 7.390625q4.59375 2.703125 10.40625 2.703125zm67.69995 7.0q-7.90625 0 -14.203125 -3.640625q-6.296875 -3.65625 -9.953125 -9.953125q-3.65625 -6.3125 -3.65625 -14.3125q0 -7.890625 3.546875 -14.1875q3.5625 -6.3125 9.65625 -9.953125q6.109375 -3.65625 13.796875 -3.65625q6.703125 0 12.09375 2.859375q5.40625 2.84375 8.71875 7.546875l0 -29.406248q0 -1.796875 1.09375 -2.84375q1.09375 -1.046875 2.796875 -1.046875q1.703125 0 2.796875 1.046875q1.109375 1.046875 1.109375 2.84375l0 47.203125q-0.203125 7.796875 -3.859375 14.046875q-3.640625 6.25 -9.890625 9.859375q-6.25 3.59375 -14.046875 3.59375zm0 -7.0q5.796875 0 10.34375 -2.75q4.546875 -2.75 7.1875 -7.453125q2.65625 -4.703125 2.65625 -10.703125q0 -5.890625 -2.65625 -10.640625q-2.640625 -4.75 -7.1875 -7.453125q-4.546875 -2.703125 -10.34375 -2.703125q-5.703125 0 -10.3125 2.703125q-4.59375 2.703125 -7.296875 7.453125q-2.703125 4.75 -2.703125 10.640625q0 6.0 2.703125 10.703125q2.703125 4.703125 7.296875 7.453125q4.609375 2.75 10.3125 2.75z" fill-rule="nonzero"></path><path fill="#000000" fill-opacity="0.0" d="m604.91077 -13.677165l52.81891 0l0 127.65354l-52.81891 0z" fill-rule="evenodd"></path><path fill="#000000" fill-opacity="0.0" d="m646.12335 -24.223097l100.97638 0l0 127.65354l-100.97638 0z" fill-rule="evenodd"></path><path fill="#000000" d="m663.2327 70.5369l0 -8.9375l8.9375 0l0 8.9375l-8.9375 0zm24.474487 0l0 -40.21875l-6.9375 0l0 -6.109375l6.9375 0l0 -4.921875q0 -4.671875 0.828125 -6.9375q1.140625 -3.046875 3.984375 -4.9375005q2.859375 -1.90625 8.015625 -1.90625q3.3125 0 7.328125 0.78125l-1.1875 6.8437505q-2.4375 -0.4375 -4.625 -0.4375q-3.578125 0 -5.0625 1.53125q-1.46875 1.53125 -1.46875 5.71875l0 4.265625l9.015625 0l0 6.109375l-9.015625 0l0 40.21875l-7.8125 0zm22.849487 0l0 -46.328125l7.0625 0l0 7.03125q2.71875 -4.9375 5.0 -6.5q2.296875 -1.578125 5.046875 -1.578125q3.96875 0 8.0625 2.53125l-2.703125 7.296873q-2.875 -1.7031231 -5.765625 -1.7031231q-2.5625 0 -4.625 1.5468731q-2.046875 1.546875 -2.921875 4.296875q-1.296875 4.1875 -1.296875 9.15625l0 24.25l-7.859375 0z" fill-rule="nonzero"></path><path fill="#000000" d="m13.307087 98.37533l0 0c0 -47.879173 38.81374 -86.69292 86.69292 -86.69292l0 0c22.992393 0 45.043076 9.133692 61.301147 25.391766c16.258072 16.258076 25.39177 38.308754 25.39177 61.301147l0 0c0 47.879173 -38.813736 86.69291 -86.69292 86.69291l0 0c-47.879173 0 -86.69292 -38.813736 -86.69292 -86.69291z" fill-rule="evenodd"></path><path fill="#000000" fill-opacity="0.0" d="m146.74016 13.020997l-104.31496 146.99213" fill-rule="evenodd"></path><path stroke="#ffffff" stroke-width="12.0" stroke-linejoin="round" stroke-linecap="butt" d="m146.74016 13.020997l-104.31496 146.99213" fill-rule="evenodd"></path><path fill="#000000" fill-opacity="0.0" d="m162.74016 24.879265l-104.31496 146.99213" fill-rule="evenodd"></path><path stroke="#ffffff" stroke-width="12.0" stroke-linejoin="round" stroke-linecap="butt" d="m162.74016 24.879265l-104.31496 146.99213" fill-rule="evenodd"></path><g filter="url(#shadowFilter-g10a468ed9c3_2_0.1)"><use xlink:href="#g10a468ed9c3_2_0.1" transform="matrix(1.0 0.0 0.0 1.0 0.0 2.0)"></use></g><defs><filter id="shadowFilter-g10a468ed9c3_2_0.1"><feGaussianBlur in="SourceAlpha" stdDeviation="2.0" result="blur"></feGaussianBlur><feComponentTransfer in="blur" color-interpolation-filters="sRGB"><feFuncR type="linear" slope="0"></feFuncR><feFuncG type="linear" slope="0"></feFuncG><feFuncB type="linear" slope="0"></feFuncB><feFuncA type="linear" slope="0.5"></feFuncA></feComponentTransfer></filter></defs><g id="g10a468ed9c3_2_0.1"><path fill="#000000" fill-opacity="0.0" d="m30.236221 -7.9711285l128.69292 0l0 188.97638l-128.69292 0z" fill-rule="evenodd"></path><path fill="#ffffff" d="m136.81435 189.47955q-3.984375 0 -6.5 -2.515625q-2.5 -2.515625 -2.5 -6.328125l0 -46.796875q-5.90625 7.28125 -14.578125 11.53125q-8.65625 4.234375 -18.875 4.234375q-12.65625 0 -22.71875 -6.3125q-10.046875 -6.328125 -15.859375 -17.15625q-5.796875 -10.84375 -5.796875 -24.53125q0 -13.703125 6.328125 -24.609375q6.328125 -10.921875 17.15625 -17.25q10.828125 -6.328125 24.34375 -6.328125q13.53125 0 24.265625 6.328125q10.75 6.328125 17.078125 17.25q6.328125 10.90625 6.328125 24.609375l0 79.03125q0 3.8125 -2.4375 6.328125q-2.421875 2.515625 -6.234375 2.515625zm-39.0 -55.46875q8.84375 0 15.78125 -4.25q6.9375 -4.25 10.921875 -11.609375q3.984375 -7.359375 3.984375 -16.546875q0 -9.359375 -3.984375 -16.71875q-3.984375 -7.375 -10.921875 -11.625q-6.9375 -4.25 -15.78125 -4.25q-8.65625 0 -15.6875 4.25q-7.015625 4.25 -11.09375 11.625q-4.0625 7.359375 -4.0625 16.71875q0 9.1875 4.0625 16.546875q4.078125 7.359375 11.09375 11.609375q7.03125 4.25 15.6875 4.25z" fill-rule="nonzero"></path></g><path fill="#000000" fill-opacity="0.0" d="m219.4462 98.48819l516.126 0l0 79.18111l-516.126 0z" fill-rule="evenodd"></path><path fill="#666666" d="m232.1962 154.84819l0 -35.312508l4.796875 0l18.546875 27.718758l0 -27.718758l4.484375 0l0 35.312508l-4.796875 0l-18.546875 -27.750008l0 27.750008l-4.484375 0zm33.513824 -12.796875q0 -7.09375 3.953125 -10.515625q3.296875 -2.84375 8.03125 -2.84375q5.28125 0 8.625 3.453125q3.359375 3.453125 3.359375 9.546875q0 4.9375 -1.484375 7.78125q-1.484375 2.828125 -4.3125 4.390625q-2.828125 1.5625 -6.1875 1.5625q-5.359375 0 -8.671875 -3.4375q-3.3125 -3.453125 -3.3125 -9.9375zm4.453125 0q0 4.921875 2.140625 7.375q2.140625 2.4375 5.390625 2.4375q3.234375 0 5.375 -2.453125q2.140625 -2.46875 2.140625 -7.5q0 -4.734375 -2.15625 -7.171875q-2.140625 -2.453125 -5.359375 -2.453125q-3.25 0 -5.390625 2.4375q-2.140625 2.421875 -2.140625 7.328125zm22.90271 2.203125l0 -4.359375l13.328125 0l0 4.359375l-13.328125 0zm43.864136 -1.78125l4.671875 1.171875q-1.46875 5.765625 -5.296875 8.796875q-3.8125 3.015625 -9.328125 3.015625q-5.703125 0 -9.28125 -2.328125q-3.578125 -2.328125 -5.453125 -6.734375q-1.859375 -4.40625 -1.859375 -9.46875q0 -5.515625 2.109375 -9.625008q2.109375 -4.109375 6.0 -6.234375q3.890625 -2.125 8.5625 -2.125q5.296875 0 8.90625 2.703125q3.625 2.6875 5.03125 7.5781326l-4.59375 1.078125q-1.234375 -3.8437576 -3.578125 -5.5937576q-2.328125 -1.765625 -5.859375 -1.765625q-4.078125 0 -6.8125 1.953125q-2.734375 1.9375 -3.84375 5.2343826q-1.09375 3.28125 -1.09375 6.78125q0 4.5 1.3125 7.859375q1.3125 3.359375 4.078125 5.03125q2.765625 1.65625 6.0 1.65625q3.921875 0 6.640625 -2.265625q2.71875 -2.265625 3.6875 -6.71875zm8.263824 -0.421875q0 -7.09375 3.953125 -10.515625q3.296875 -2.84375 8.03125 -2.84375q5.28125 0 8.625 3.453125q3.359375 3.453125 3.359375 9.546875q0 4.9375 -1.484375 7.78125q-1.484375 2.828125 -4.3125 4.390625q-2.828125 1.5625 -6.1875 1.5625q-5.359375 0 -8.671875 -3.4375q-3.3125 -3.453125 -3.3125 -9.9375zm4.453125 0q0 4.921875 2.140625 7.375q2.140625 2.4375 5.390625 2.4375q3.234375 0 5.375 -2.453125q2.140625 -2.46875 2.140625 -7.5q0 -4.734375 -2.15625 -7.171875q-2.140625 -2.453125 -5.359375 -2.453125q-3.25 0 -5.390625 2.4375q-2.140625 2.421875 -2.140625 7.328125zm41.18396 12.796875l0 -3.234375q-2.421875 3.8125 -7.15625 3.8125q-3.046875 0 -5.625 -1.6875q-2.5625 -1.6875 -3.96875 -4.703125q-1.40625 -3.03125 -1.40625 -6.953125q0 -3.828125 1.265625 -6.9375q1.28125 -3.125 3.828125 -4.78125q2.5625 -1.671875 5.71875 -1.671875q2.3125 0 4.109375 0.984375q1.8125 0.96875 2.953125 2.53125l0 -12.671883l4.3125 0l0 35.312508l-4.03125 0zm-13.703125 -12.765625q0 4.90625 2.0625 7.34375q2.078125 2.4375 4.90625 2.4375q2.828125 0 4.8125 -2.328125q2.0 -2.328125 2.0 -7.09375q0 -5.25 -2.03125 -7.703125q-2.015625 -2.453125 -4.984375 -2.453125q-2.890625 0 -4.828125 2.359375q-1.9375 2.359375 -1.9375 7.4375zm42.05896 4.53125l4.46875 0.546875q-1.046875 3.9375 -3.921875 6.109375q-2.859375 2.15625 -7.3125 2.15625q-5.625 0 -8.90625 -3.453125q-3.28125 -3.453125 -3.28125 -9.703125q0 -6.453125 3.3125 -10.015625q3.328125 -3.5625 8.625 -3.5625q5.140625 0 8.390625 3.5q3.25 3.484375 3.25 9.8125q0 0.390625 -0.03125 1.15625l-19.078125 0q0.25 4.21875 2.390625 6.46875q2.140625 2.234375 5.34375 2.234375q2.390625 0 4.078125 -1.25q1.6875 -1.25 2.671875 -4.0zm-14.234375 -7.015625l14.28125 0q-0.296875 -3.21875 -1.640625 -4.84375q-2.078125 -2.5 -5.375 -2.5q-2.984375 0 -5.015625 2.0q-2.03125 2.0 -2.25 5.34375zm31.807526 15.25l13.5625 -35.312508l5.03125 0l14.453125 35.312508l-5.3125 0l-4.125 -10.6875l-14.765625 0l-3.875 10.6875l-4.96875 0zm10.1875 -14.5l11.984375 0l-3.6875 -9.78125q-1.6875 -4.4531326 -2.515625 -7.3125076q-0.671875 3.390625 -1.890625 6.7343826l-3.890625 10.359375zm42.729614 5.125l4.265625 0.5625q-0.6875 4.40625 -3.578125 6.90625q-2.875 2.484375 -7.0625 2.484375q-5.25 0 -8.453125 -3.421875q-3.1875 -3.4375 -3.1875 -9.84375q0 -4.15625 1.375 -7.25q1.375 -3.109375 4.171875 -4.65625q2.8125 -1.5625 6.109375 -1.5625q4.171875 0 6.8125 2.109375q2.65625 2.109375 3.40625 5.984375l-4.21875 0.640625q-0.59375 -2.5625 -2.125 -3.859375q-1.53125 -1.3125 -3.703125 -1.3125q-3.265625 0 -5.328125 2.359375q-2.046875 2.34375 -2.046875 7.421875q0 5.15625 1.96875 7.5q1.984375 2.328125 5.171875 2.328125q2.546875 0 4.25 -1.5625q1.71875 -1.578125 2.171875 -4.828125zm24.664062 6.21875q-2.40625 2.046875 -4.640625 2.890625q-2.21875 0.84375 -4.765625 0.84375q-4.21875 0 -6.484375 -2.0625q-2.265625 -2.0625 -2.265625 -5.265625q0 -1.875 0.859375 -3.421875q0.859375 -1.5625 2.234375 -2.5q1.390625 -0.9375 3.125 -1.421875q1.265625 -0.328125 3.84375 -0.640625q5.25 -0.625 7.734375 -1.5q0.03125 -0.890625 0.03125 -1.125q0 -2.65625 -1.234375 -3.734375q-1.65625 -1.46875 -4.9375 -1.46875q-3.0625 0 -4.515625 1.078125q-1.453125 1.0625 -2.15625 3.78125l-4.234375 -0.578125q0.578125 -2.71875 1.890625 -4.390625q1.328125 -1.671875 3.828125 -2.578125q2.515625 -0.90625 5.8125 -0.90625q3.28125 0 5.328125 0.78125q2.046875 0.765625 3.0 1.9375q0.96875 1.15625 1.359375 2.9375q0.21875 1.109375 0.21875 4.0l0 5.78125q0 6.046875 0.265625 7.65625q0.28125 1.59375 1.109375 3.0625l-4.53125 0q-0.671875 -1.34375 -0.875 -3.15625zm-0.359375 -9.6875q-2.359375 0.96875 -7.078125 1.640625q-2.671875 0.390625 -3.78125 0.875q-1.109375 0.484375 -1.71875 1.40625q-0.59375 0.921875 -0.59375 2.0625q0 1.734375 1.3125 2.890625q1.3125 1.15625 3.84375 1.15625q2.5 0 4.453125 -1.09375q1.953125 -1.109375 2.875 -3.0q0.6875 -1.46875 0.6875 -4.34375l0 -1.59375zm27.699585 12.84375l0 -3.234375q-2.421875 3.8125 -7.15625 3.8125q-3.046875 0 -5.625 -1.6875q-2.5625 -1.6875 -3.96875 -4.703125q-1.40625 -3.03125 -1.40625 -6.953125q0 -3.828125 1.265625 -6.9375q1.28125 -3.125 3.828125 -4.78125q2.5625 -1.671875 5.71875 -1.671875q2.3125 0 4.109375 0.984375q1.8125 0.96875 2.953125 2.53125l0 -12.671883l4.3125 0l0 35.312508l-4.03125 0zm-13.703125 -12.765625q0 4.90625 2.0625 7.34375q2.078125 2.4375 4.90625 2.4375q2.828125 0 4.8125 -2.328125q2.0 -2.328125 2.0 -7.09375q0 -5.25 -2.03125 -7.703125q-2.015625 -2.453125 -4.984375 -2.453125q-2.890625 0 -4.828125 2.359375q-1.9375 2.359375 -1.9375 7.4375zm42.05896 4.53125l4.46875 0.546875q-1.046875 3.9375 -3.921875 6.109375q-2.859375 2.15625 -7.3125 2.15625q-5.625 0 -8.90625 -3.453125q-3.28125 -3.453125 -3.28125 -9.703125q0 -6.453125 3.3125 -10.015625q3.328125 -3.5625 8.625 -3.5625q5.140625 0 8.390625 3.5q3.25 3.484375 3.25 9.8125q0 0.390625 -0.03125 1.15625l-19.078125 0q0.25 4.21875 2.390625 6.46875q2.140625 2.234375 5.34375 2.234375q2.390625 0 4.078125 -1.25q1.6875 -1.25 2.671875 -4.0zm-14.234375 -7.015625l14.28125 0q-0.296875 -3.21875 -1.640625 -4.84375q-2.078125 -2.5 -5.375 -2.5q-2.984375 0 -5.015625 2.0q-2.03125 2.0 -2.25 5.34375zm24.15271 15.25l0 -25.578125l3.875 0l0 3.59375q1.203125 -1.890625 3.203125 -3.03125q2.0 -1.140625 4.5625 -1.140625q2.84375 0 4.65625 1.1875q1.8125 1.171875 2.5625 3.296875q3.03125 -4.484375 7.90625 -4.484375q3.796875 0 5.84375 2.109375q2.046875 2.109375 2.046875 6.484375l0 17.5625l-4.3125 0l0 -16.109375q0 -2.609375 -0.421875 -3.75q-0.421875 -1.140625 -1.53125 -1.84375q-1.09375 -0.703125 -2.59375 -0.703125q-2.703125 0 -4.484375 1.796875q-1.78125 1.796875 -1.78125 5.75l0 14.859375l-4.328125 0l0 -16.625q0 -2.890625 -1.0625 -4.328125q-1.0625 -1.453125 -3.46875 -1.453125q-1.828125 0 -3.390625 0.96875q-1.546875 0.96875 -2.25 2.828125q-0.6875 1.84375 -0.6875 5.34375l0 13.265625l-4.34375 0zm40.9032 9.84375l-0.484375 -4.0625q1.421875 0.390625 2.484375 0.390625q1.4375 0 2.296875 -0.484375q0.875 -0.484375 1.4375 -1.359375q0.40625 -0.640625 1.3125 -3.21875q0.125 -0.359375 0.390625 -1.0625l-9.703125 -25.625l4.671875 0l5.328125 14.8125q1.03125 2.8125 1.84375 5.921875q0.75 -2.984375 1.78125 -5.828125l5.46875 -14.90625l4.34375 0l-9.734375 26.015625q-1.5625 4.21875 -2.4375 5.796875q-1.15625 2.140625 -2.65625 3.140625q-1.484375 1.0 -3.546875 1.0q-1.265625 0 -2.796875 -0.53125z" fill-rule="nonzero"></path></g></svg> 