<?xml version="1.0" encoding="UTF-8"?> <svg xmlns="http://www.w3.org/2000/svg" xmlns:xlink="http://www.w3.org/1999/xlink" width="2610" height="800" viewBox="0 0 2610 800"><defs><style> .cls-1 { fill: none; } .cls-2 { clip-path: url(#clip-Logo_site_13); } .cls-3 { clip-path: url(#clip-path); } .cls-4, .cls-9 { fill: rgba(0,0,0,0); } .cls-4, .cls-6 { fill-rule: evenodd; } .cls-5 { fill: #666; } .cls-6 { fill: #1065ff; } .cls-7 { fill: #f7f7f7; } .cls-8 { fill: #fff; } </style><clipPath id="clip-path"><path id="Tracé_312" data-name="Tracé 312" class="cls-1" d="M0,0H2552.808V638.2H0Z"></path></clipPath><clipPath id="clip-Logo_site_13"><rect width="2610" height="800"></rect></clipPath></defs><g id="Logo_site_13" data-name="Logo site – 13" class="cls-2"><rect class="cls-8" width="2610" height="800"></rect><g id="logos_7_" data-name="logos (7)" class="cls-3" transform="translate(0 80.899)"><path id="Tracé_295" data-name="Tracé 295" class="cls-4" d="M0,0H2552.808V638.2H0Z"></path><path id="Tracé_296" data-name="Tracé 296" class="cls-4" d="M186.693-7.971H1835.381V488.444H186.693Z" transform="translate(486.798 -13.316)"></path><path id="Tracé_297" data-name="Tracé 297" d="M256.1,273.91l-21.266-11.5L360.474,102.678l17.519,14.828Zm-11.82,8.759q-11.82,0-11.82-11.82t11.82-11.82H369.55q11.82,0,11.82,11.82t-11.82,11.82Zm-1.372-161.1q-11.82,0-11.82-11.82t11.82-11.82H368.231q11.82,0,11.82,11.82t-11.82,11.82ZM503.3,284.358q-27.334,0-48.441-11.978a86.466,86.466,0,0,1-33.138-33.244q-11.978-21.318-11.978-48.652,0-27.7,11.292-48.81a85.64,85.64,0,0,1,31.239-33.244Q472.215,96.24,498.23,96.24q25.7,0,44.747,11.662a78.561,78.561,0,0,1,29.55,32.294q10.5,20.58,10.5,46.911a11.326,11.326,0,0,1-3.377,8.6,12.245,12.245,0,0,1-8.812,3.219H427.31V177.292H573.53l-14.511,10.5q.369-19.63-7.071-35.143a57.789,57.789,0,0,0-21.107-24.273q-13.667-8.812-32.611-8.812-19.26,0-33.771,9.129a60.85,60.85,0,0,0-22.479,25.118q-7.915,16.041-7.915,36.674,0,20.58,8.918,36.463a66.334,66.334,0,0,0,24.484,25.012q15.567,9.076,35.83,9.076a75.014,75.014,0,0,0,24.484-4.221q12.348-4.221,19.788-10.606a13.54,13.54,0,0,1,8.39-3.219,11.962,11.962,0,0,1,8.126,2.533q4.38,4.063,4.538,8.812a9.583,9.583,0,0,1-3.852,8.074q-11.134,9.445-28.389,15.725A97.067,97.067,0,0,1,503.3,284.358ZM637.727,168.849q1-20.949,10.976-37.465a73.709,73.709,0,0,1,26.015-26.015,68.892,68.892,0,0,1,35.618-9.445q15.514,0,23.957,4.38t6.438,12.823q-1.372,5.066-4.591,6.754a14.177,14.177,0,0,1-7.757,1.372q-4.538-.369-10.29-.686-18.891-1.689-33.613,3.9a50.908,50.908,0,0,0-23.323,17.044q-8.6,11.451-8.6,27.334Zm2.005,113.821q-6.068,0-9.445-3.377t-3.377-9.445v-159.1q0-6.068,3.377-9.445t9.445-3.377q6.068,0,9.446,3.377t3.377,9.445v159.1q0,6.068-3.377,9.445T639.732,282.67Zm212.454,1.689q-27.017,0-48.336-12.137A88.8,88.8,0,0,1,770.4,238.767Q758.26,217.5,758.26,190.484q0-27.387,12.137-48.652a88.417,88.417,0,0,1,33.455-33.4Q825.17,96.24,852.187,96.24t48.124,12.189a88.367,88.367,0,0,1,33.244,33.4q12.137,21.266,12.506,48.652,0,27.017-12.348,48.283a89.927,89.927,0,0,1-33.4,33.455Q879.2,284.358,852.187,284.358Zm0-23.64q19.577,0,35.091-9.129A64.777,64.777,0,0,0,911.6,226.63q8.759-15.883,8.76-36.146t-8.76-36.3a64.38,64.38,0,0,0-24.326-25.17q-15.514-9.129-35.091-9.129-19.63,0-35.144,9.129a66.014,66.014,0,0,0-24.484,25.17q-8.971,16.041-8.97,36.3t8.97,36.146a66.445,66.445,0,0,0,24.484,24.959Q832.557,260.718,852.187,260.718Zm309.315,101a12.994,12.994,0,0,1-9.445-3.588q-3.694-3.535-3.694-9.6V249.215a82.506,82.506,0,0,1-29.445,25.54q-18.205,9.6-40.842,9.6-25.962,0-46.594-12.295a90.375,90.375,0,0,1-32.611-33.613q-11.978-21.318-11.978-47.966,0-27.017,12.348-48.283a90.647,90.647,0,0,1,33.613-33.613q21.266-12.348,47.966-12.348,26.331,0,47.438,12.189a89.879,89.879,0,0,1,33.4,33.244q12.348,21.107,13.034,47.438V348.524q0,6.068-3.747,9.6A12.994,12.994,0,0,1,1161.5,361.716Zm-80.682-101q19.577,0,34.932-9.129a65.991,65.991,0,0,0,24.273-25.17A72.35,72.35,0,0,0,1149,190.484q0-20.263-8.971-36.146a67.512,67.512,0,0,0-24.273-25.17q-15.355-9.287-34.932-9.287a66.671,66.671,0,0,0-34.827,9.287,68.752,68.752,0,0,0-24.643,25.17q-9.129,15.883-9.129,36.146a71.36,71.36,0,0,0,9.129,35.935,66.8,66.8,0,0,0,59.47,34.3Zm238.765,23.64q-27.017,0-48.336-12.137a88.8,88.8,0,0,1-33.455-33.455q-12.137-21.265-12.137-48.283,0-27.387,12.137-48.652a88.416,88.416,0,0,1,33.455-33.4q21.318-12.189,48.336-12.189t48.124,12.189a88.365,88.365,0,0,1,33.244,33.4q12.136,21.266,12.506,48.652,0,27.017-12.348,48.283a89.925,89.925,0,0,1-33.4,33.455Q1346.6,284.358,1319.584,284.358Zm0-23.64q19.577,0,35.091-9.129A64.777,64.777,0,0,0,1379,226.63q8.76-15.883,8.76-36.146t-8.76-36.3a64.38,64.38,0,0,0-24.326-25.17q-15.514-9.129-35.091-9.129-19.63,0-35.144,9.129a66.013,66.013,0,0,0-24.484,25.17q-8.97,16.041-8.97,36.3t8.97,36.146a66.444,66.444,0,0,0,24.484,24.959Q1299.954,260.718,1319.584,260.718Zm228.633,23.64q-26.7,0-47.966-12.295a91.163,91.163,0,0,1-33.613-33.613q-12.348-21.318-12.348-48.335,0-26.648,11.978-47.913a89.857,89.857,0,0,1,32.611-33.613q20.632-12.348,46.594-12.348,22.637,0,40.842,9.657a82.03,82.03,0,0,1,29.445,25.487V32.074q0-6.068,3.694-9.6a14.385,14.385,0,0,1,18.891,0q3.746,3.535,3.747,9.6V191.486q-.686,26.331-13.034,47.438a90.277,90.277,0,0,1-33.4,33.3Q1574.548,284.358,1548.217,284.358Zm0-23.64q19.577,0,34.932-9.287a67.511,67.511,0,0,0,24.273-25.17q8.971-15.883,8.971-36.146a72.35,72.35,0,0,0-8.971-35.935,65.99,65.99,0,0,0-24.273-25.17q-15.356-9.129-34.932-9.129a66.8,66.8,0,0,0-59.47,34.3,71.361,71.361,0,0,0-9.129,35.935q0,20.263,9.129,36.146a68.751,68.751,0,0,0,24.643,25.17A66.671,66.671,0,0,0,1548.217,260.718Z" transform="translate(549.328 45.012)"></path><path id="Tracé_298" data-name="Tracé 298" class="cls-4" d="M604.911-13.677H783.288V417.428H604.911Z" transform="translate(1437.965 -32.513)"></path><path id="Tracé_302" data-name="Tracé 302" class="cls-4" d="M394.713,13.021,42.425,509.436" transform="translate(100.851 30.953)"></path><path id="Tracé_304" data-name="Tracé 304" class="cls-4" d="M410.713,24.879,58.425,521.294" transform="translate(138.886 59.142)"></path><path id="Tracé_310" data-name="Tracé 310" class="cls-4" d="M219.446,98.488H1962.482V365.895H219.446Z" transform="translate(564.657 239.754)"></path><path id="Tracé_311" data-name="Tracé 311" class="cls-5" d="M232.2,240.2V120.947h16.2l62.636,93.61v-93.61h15.144V240.2h-16.2l-62.636-93.716V240.2Zm113.181-43.217q0-23.957,13.35-35.513,11.134-9.6,27.123-9.6,17.836,0,29.128,11.662,11.345,11.662,11.345,32.241,0,16.675-5.013,26.278a35.434,35.434,0,0,1-14.564,14.828,42.5,42.5,0,0,1-20.9,5.277q-18.1,0-29.286-11.609Q345.377,218.885,345.378,196.986Zm15.039,0q0,16.622,7.229,24.906A24.137,24.137,0,0,0,404,221.84q7.229-8.337,7.229-25.329,0-15.989-7.282-24.221a24.079,24.079,0,0,0-36.3-.053Q360.416,180.417,360.416,196.986Zm77.346,7.44V189.7h45.011v14.722ZM585.9,198.411l15.778,3.958q-4.96,19.471-17.888,29.708-12.875,10.184-31.5,10.184-19.26,0-31.344-7.862t-18.416-22.743a81.4,81.4,0,0,1-6.279-31.977q0-18.627,7.124-32.505a48.652,48.652,0,0,1,20.263-21.054,59.335,59.335,0,0,1,28.917-7.176q17.888,0,30.078,9.129,12.242,9.076,16.991,25.592L584.1,157.3q-4.169-12.981-12.084-18.891-7.863-5.963-19.788-5.963-13.772,0-23.007,6.6a34.569,34.569,0,0,0-12.981,17.677,71.946,71.946,0,0,0-3.694,22.9q0,15.2,4.433,26.542t13.772,16.991a38.733,38.733,0,0,0,20.263,5.593q13.245,0,22.426-7.651T585.9,198.411Zm27.908-1.425q0-23.957,13.35-35.513,11.134-9.6,27.123-9.6,17.836,0,29.128,11.662,11.345,11.662,11.345,32.241,0,16.675-5.013,26.278a35.434,35.434,0,0,1-14.564,14.828,42.5,42.5,0,0,1-20.9,5.277q-18.1,0-29.286-11.609Q613.806,218.885,613.806,196.986Zm15.039,0q0,16.622,7.229,24.906a24.137,24.137,0,0,0,36.357-.053q7.229-8.337,7.229-25.329,0-15.989-7.282-24.221a24.079,24.079,0,0,0-36.3-.053Q628.845,180.417,628.845,196.986ZM767.93,240.2V229.28q-8.179,12.875-24.168,12.875a34,34,0,0,1-19-5.7,37.463,37.463,0,0,1-13.4-15.883,55.212,55.212,0,0,1-4.749-23.482,61.626,61.626,0,0,1,4.274-23.429,34.014,34.014,0,0,1,12.928-16.147,34.587,34.587,0,0,1,19.313-5.646,28.411,28.411,0,0,1,13.878,3.324,29.131,29.131,0,0,1,9.973,8.548V120.947h14.564V240.2Zm-46.277-43.111q0,16.569,6.965,24.8,7.018,8.232,16.569,8.232t16.253-7.862q6.754-7.862,6.754-23.957,0-17.73-6.86-26.015-6.807-8.285-16.833-8.285-9.762,0-16.305,7.968T721.652,197.091Zm142.039,15.3,15.092,1.847q-3.535,13.3-13.245,20.632-9.657,7.282-24.7,7.282-19,0-30.078-11.662t-11.081-32.769q0-21.793,11.187-33.824,11.24-12.031,29.128-12.031,17.361,0,28.336,11.82,10.976,11.767,10.976,33.138,0,1.319-.106,3.9h-64.43q.844,14.247,8.073,21.846a23.964,23.964,0,0,0,18.047,7.546,22.49,22.49,0,0,0,13.772-4.221Q860.367,221.681,863.692,212.394ZM815.62,188.7h48.23q-1-10.87-5.541-16.358a22.512,22.512,0,0,0-18.152-8.443,23.2,23.2,0,0,0-16.938,6.754Q816.359,177.409,815.62,188.7Zm107.419,51.5,45.8-119.256h16.991l48.81,119.256H1016.7l-13.931-36.093H952.906L939.819,240.2Zm34.4-48.969h40.473L985.464,158.2q-5.7-15.039-8.5-24.7a153.433,153.433,0,0,1-6.385,22.743Zm144.3,17.308,14.406,1.9q-2.322,14.881-12.084,23.323-9.709,8.39-23.851,8.39-17.73,0-28.547-11.556-10.765-11.609-10.765-33.244,0-14.036,4.644-24.484a32.282,32.282,0,0,1,14.089-15.725,41.788,41.788,0,0,1,20.632-5.277q14.089,0,23.007,7.124,8.971,7.124,11.5,20.21l-14.247,2.163q-2.005-8.654-7.177-13.034a18.567,18.567,0,0,0-12.506-4.433,22.8,22.8,0,0,0-17.994,7.968q-6.913,7.915-6.913,25.065,0,17.413,6.649,25.329a21.86,21.86,0,0,0,17.466,7.862,20.425,20.425,0,0,0,14.353-5.277Q1100.218,219.518,1101.748,208.542Zm83.294,21a54.376,54.376,0,0,1-15.672,9.762,44.9,44.9,0,0,1-16.094,2.849q-14.247,0-21.9-6.965a22.979,22.979,0,0,1-7.651-17.783,23.392,23.392,0,0,1,2.9-11.556,24.032,24.032,0,0,1,7.546-8.443,36.1,36.1,0,0,1,10.554-4.8,107.954,107.954,0,0,1,12.981-2.164q17.73-2.111,26.12-5.066.105-3.008.105-3.8,0-8.971-4.169-12.612-5.594-4.96-16.675-4.96-10.342,0-15.25,3.641-4.908,3.588-7.282,12.77l-14.3-1.952q1.953-9.182,6.385-14.828,4.485-5.646,12.928-8.707a57.793,57.793,0,0,1,19.63-3.061q11.081,0,17.994,2.638,6.913,2.586,10.131,6.543a22.75,22.75,0,0,1,4.591,9.92q.739,3.746.739,13.509V204q0,20.421.9,25.856A32.41,32.41,0,0,0,1203.3,240.2H1188A31.562,31.562,0,0,1,1185.042,229.544Zm-1.214-32.716q-7.968,3.272-23.9,5.541-9.023,1.319-12.77,2.955a12.977,12.977,0,0,0-5.8,4.749,13.018,13.018,0,0,0,2.427,16.727q4.433,3.9,12.981,3.9a30.248,30.248,0,0,0,15.039-3.694,23.222,23.222,0,0,0,9.709-10.131q2.321-4.96,2.322-14.67Zm93.546,43.375V229.28q-8.179,12.875-24.168,12.875a34,34,0,0,1-19-5.7,37.464,37.464,0,0,1-13.4-15.883,55.214,55.214,0,0,1-4.749-23.482,61.626,61.626,0,0,1,4.274-23.429,34.014,34.014,0,0,1,12.928-16.147,34.585,34.585,0,0,1,19.313-5.646,28.411,28.411,0,0,1,13.878,3.324,29.132,29.132,0,0,1,9.973,8.548V120.947h14.564V240.2ZM1231.1,197.091q0,16.569,6.965,24.8,7.018,8.232,16.569,8.232t16.253-7.862q6.754-7.862,6.754-23.957,0-17.73-6.86-26.015-6.807-8.285-16.833-8.285-9.762,0-16.305,7.968T1231.1,197.091Zm142.04,15.3,15.092,1.847q-3.535,13.3-13.245,20.632-9.657,7.282-24.7,7.282-19,0-30.078-11.662t-11.081-32.769q0-21.793,11.187-33.824,11.24-12.031,29.128-12.031,17.361,0,28.336,11.82,10.976,11.767,10.976,33.138,0,1.319-.106,3.9h-64.43q.844,14.247,8.073,21.846a23.964,23.964,0,0,0,18.047,7.546,22.49,22.49,0,0,0,13.772-4.221Q1369.812,221.681,1373.136,212.394ZM1325.065,188.7h48.23q-1-10.87-5.541-16.358A22.512,22.512,0,0,0,1349.6,163.9a23.2,23.2,0,0,0-16.938,6.754Q1325.8,177.409,1325.065,188.7Zm81.567,51.5V153.822h13.087v12.137a30.336,30.336,0,0,1,26.226-14.089q9.6,0,15.725,4.01a21.278,21.278,0,0,1,8.654,11.134q10.237-15.144,26.7-15.144,12.823,0,19.735,7.124t6.913,21.9V240.2h-14.564V185.8q0-8.812-1.425-12.664a12.333,12.333,0,0,0-5.171-6.227,15.845,15.845,0,0,0-8.759-2.375,20.441,20.441,0,0,0-15.145,6.068q-6.015,6.068-6.015,19.419V240.2h-14.617V184.058q0-9.762-3.588-14.617-3.588-4.907-11.714-4.907a21.328,21.328,0,0,0-11.451,3.272,18.658,18.658,0,0,0-7.6,9.551q-2.322,6.227-2.322,18.047v44.8Zm138.136,33.244-1.636-13.72a32.276,32.276,0,0,0,8.39,1.319,15.786,15.786,0,0,0,7.757-1.636,13.469,13.469,0,0,0,4.854-4.591q1.372-2.163,4.433-10.87.422-1.214,1.319-3.588l-32.769-86.54h15.778l17.994,50.024q3.483,9.5,6.227,20a202.359,202.359,0,0,1,6.016-19.682l18.469-50.341h14.669l-32.875,87.859q-5.277,14.247-8.232,19.577-3.9,7.229-8.97,10.606a20.93,20.93,0,0,1-11.979,3.377A29.056,29.056,0,0,1,1544.769,273.447Z" transform="translate(551.966 282.743)"></path><g id="Groupe_157" data-name="Groupe 157" transform="translate(43 -13.128)"><path id="Tracé_301" data-name="Tracé 301" class="cls-6" d="M13.307,304.458h0c0-161.7,131.08-292.775,292.775-292.775h0A292.775,292.775,0,0,1,598.857,304.458h0c0,161.7-131.08,292.775-292.775,292.775h0c-161.7,0-292.775-131.08-292.775-292.775Z" transform="translate(31.633 27.771)"></path><path id="Tracé_301_-_Contour" data-name="Tracé 301 - Contour" class="cls-7" d="M306.082,11.182a292.354,292.354,0,1,1-59.1,5.958A293.911,293.911,0,0,1,306.082,11.182Zm0,585.55a294.436,294.436,0,0,0,58.9-5.938A290.671,290.671,0,0,0,469.5,546.817,293.13,293.13,0,0,0,575.389,418.224a290.8,290.8,0,0,0,17.03-54.862A292.537,292.537,0,0,0,247.178,18.12,290.672,290.672,0,0,0,142.669,62.1,293.131,293.131,0,0,0,36.775,190.691a290.8,290.8,0,0,0-17.03,54.862,295.13,295.13,0,0,0,0,117.808A290.67,290.67,0,0,0,63.723,467.871,293.13,293.13,0,0,0,192.316,573.765a290.8,290.8,0,0,0,54.862,17.03A294.435,294.435,0,0,0,306.082,596.733Z" transform="translate(31.633 27.771)"></path><g id="Groupe_155" data-name="Groupe 155" transform="translate(129.946 154.438)"><path id="Tracé_291_-_Contour" data-name="Tracé 291 - Contour" class="cls-8" d="M1846.374,181.817h77.02V370.823h-89.966l.133-.276,60.18-124.953h-47.367Zm76.634.385h-76.249v63.006h47.594l-.133.276-60.18,124.953h88.967Z" transform="translate(-1742.633 -86.975)"></path><path id="Tracé_292" data-name="Tracé 292" class="cls-8" d="M2087.353,191.178l.338,303.06h9.724l.581-303.06Z" transform="translate(-1894.703 -164.918)"></path><path id="Tracé_292_-_Contour" data-name="Tracé 292 - Contour" class="cls-9" d="M2086.852,190.678H2098.5v.5l-.582,303.559h-10.723v-.5Zm10.643,1h-9.642l.337,302.06h8.726Z" transform="translate(-1894.703 -164.918)"></path><path id="Tracé_294" data-name="Tracé 294" class="cls-8" d="M2087.353,191.178l.338,303.06h9.724l.581-303.06Z" transform="translate(-1874.22 -164.918)"></path><path id="Tracé_294_-_Contour" data-name="Tracé 294 - Contour" class="cls-9" d="M2086.852,190.678H2098.5v.5l-.582,303.559h-10.723v-.5Zm10.643,1h-9.642l.337,302.06h8.726Z" transform="translate(-1874.22 -164.918)"></path><path id="Tracé_293" data-name="Tracé 293" class="cls-8" d="M0,0,3.018,194.766H87.512l-.275-61.55-56.3-1.955L93.873,0Z" transform="translate(233.708 67.214)"></path><path id="Tracé_291" data-name="Tracé 291" class="cls-8" d="M13.257,0l.905,66.708H62.795L2.978,195.218H93.106L92.422,0Z" transform="translate(87.265 87.508)"></path><path id="Tracé_291_-_Contour-2" data-name="Tracé 291 - Contour" d="M13.563,0h80.2L92.6,192.395H1.17L62.177,66.428H13.85ZM92.728,1.04H14.6l.27,64.365H63.81l-61.042,126H91.6Z" transform="translate(88.802 91.932)"></path></g></g></g></g></svg> 