<?xml version="1.0" encoding="UTF-8"?> <!-- Generator: Adobe Illustrator 19.0.0, SVG Export Plug-In . SVG Version: 6.00 Build 0) --> <svg xmlns="http://www.w3.org/2000/svg" xmlns:xlink="http://www.w3.org/1999/xlink" version="1.1" id="Layer_1" x="0px" y="0px" viewBox="0 0 512 512" style="enable-background:new 0 0 512 512;" xml:space="preserve"> <path style="fill:#DEDDE0;" d="M357.016,0H154.984c-35.919,0-65.038,29.119-65.038,65.038v381.924 c0,35.922,29.119,65.038,65.038,65.038h202.032c35.919,0,65.038-29.116,65.038-65.038V65.038C422.054,29.119,392.935,0,357.016,0z"></path> <path style="fill:#BDBCC1;" d="M256,0H154.984c-35.919,0-65.038,29.119-65.038,65.038v381.924c0,35.922,29.119,65.038,65.038,65.038 H256V0z"></path> <rect x="89.946" y="69.189" style="fill:#616064;" width="332.108" height="55.351"></rect> <rect x="89.946" y="69.189" width="166.054" height="55.351"></rect> <rect x="89.946" y="345.946" style="fill:#616064;" width="332.108" height="55.351"></rect> <rect x="89.946" y="345.946" width="166.054" height="55.351"></rect> <circle style="fill:#FFFFFF;" cx="256" cy="456.649" r="27.676"></circle> <rect x="89.946" y="117.622" style="fill:#00D7DF;" width="332.108" height="235.243"></rect> <rect x="89.946" y="117.622" style="fill:#00A1A7;" width="166.054" height="235.243"></rect> <g> <polygon style="fill:#FFFFFF;" points="304.432,228.324 270.508,279.212 221.405,200.649 152.216,311.351 359.784,311.351 "></polygon> <circle style="fill:#FFFFFF;" cx="283.676" cy="179.892" r="20.757"></circle> </g> <g> </g> <g> </g> <g> </g> <g> </g> <g> </g> <g> </g> <g> </g> <g> </g> <g> </g> <g> </g> <g> </g> <g> </g> <g> </g> <g> </g> <g> </g> </svg> 