<?xml version="1.0" encoding="UTF-8"?> <svg xmlns="http://www.w3.org/2000/svg" xmlns:xlink="http://www.w3.org/1999/xlink" viewBox="0 0 600.49 324.08"><defs><style>.cls-1{fill:url(#New_Gradient_Swatch_6);}.cls-2{fill:url(#linear-gradient);}.cls-3{fill:url(#linear-gradient-2);}.cls-4{fill:url(#linear-gradient-3);}.cls-5{fill:#42526e;}.cls-6{isolation:isolate;}.cls-10,.cls-7,.cls-8,.cls-9{opacity:0.15;}.cls-10,.cls-34,.cls-65,.cls-7,.cls-8,.cls-9{mix-blend-mode:multiply;}.cls-7{fill:url(#linear-gradient-4);}.cls-8{fill:url(#linear-gradient-5);}.cls-9{fill:url(#linear-gradient-6);}.cls-10{fill:url(#linear-gradient-7);}.cls-11,.cls-16,.cls-21,.cls-22,.cls-24,.cls-25,.cls-29,.cls-33,.cls-36,.cls-37,.cls-39,.cls-53{fill:none;}.cls-11{stroke:#a5adba;stroke-width:1.97px;}.cls-11,.cls-25{stroke-linecap:round;}.cls-11,.cls-14,.cls-16,.cls-18,.cls-21,.cls-22,.cls-24,.cls-25,.cls-29,.cls-33,.cls-36,.cls-37,.cls-39,.cls-53{stroke-miterlimit:10;}.cls-12,.cls-14{fill:#c1c7d0;}.cls-13{clip-path:url(#clip-path);}.cls-14,.cls-22{stroke:#ffab00;}.cls-14,.cls-16,.cls-18,.cls-29,.cls-33{stroke-width:2.05px;}.cls-15{fill:#ff991f;}.cls-16,.cls-18{stroke:#ff991f;}.cls-17{fill:#ffab00;}.cls-18{fill:#ffe380;}.cls-19{fill:url(#linear-gradient-8);}.cls-20{fill:url(#linear-gradient-9);}.cls-21,.cls-29{stroke:#4c9aff;}.cls-21,.cls-22,.cls-24,.cls-25{stroke-width:2.35px;}.cls-23{fill:#0065ff;}.cls-24,.cls-25,.cls-39{stroke:#36b37e;}.cls-26{fill:#cfd4db;}.cls-27{fill:#ffc400;}.cls-28{fill:#4c9aff;}.cls-30{fill:#fff0b2;}.cls-31{fill:#2684ff;}.cls-32{fill:#b2d4ff;}.cls-33{stroke:#ffc400;}.cls-34{fill:#dfe1e5;}.cls-35{fill:#fff;}.cls-36,.cls-37{stroke:#0065ff;}.cls-36{stroke-width:2.27px;}.cls-37,.cls-39{stroke-width:1.05px;}.cls-38{fill:#cf9e76;}.cls-40{fill:#6c798f;}.cls-41{fill:#b08874;}.cls-42{fill:#172b4d;}.cls-43{clip-path:url(#clip-path-2);}.cls-44{fill:#253858;}.cls-45{fill:#c99f9b;}.cls-46{fill:#e0ada6;}.cls-47{fill:url(#linear-gradient-11);}.cls-48{fill:url(#linear-gradient-12);}.cls-49{fill:#344563;}.cls-50{clip-path:url(#clip-path-3);}.cls-51{fill:#3384ff;}.cls-52{fill:#091e42;}.cls-53{stroke:#0052cc;stroke-width:1.86px;}.cls-54{fill:url(#linear-gradient-14);}.cls-55{fill:#a27f68;}.cls-56{fill:#9c7761;}.cls-57{fill:url(#linear-gradient-15);}.cls-58{fill:#b5917c;}.cls-59{fill:url(#linear-gradient-16);}.cls-60{fill:url(#linear-gradient-17);}.cls-61{fill:#57d9a3;}.cls-62{fill:url(#linear-gradient-18);}.cls-63{clip-path:url(#clip-path-4);}.cls-64{fill:#00875a;}.cls-65{fill:url(#linear-gradient-20);}.cls-66{fill:url(#linear-gradient-21);}.cls-67{clip-path:url(#clip-path-5);}.cls-68{fill:#b3bac5;}.cls-69{clip-path:url(#clip-path-6);}</style><linearGradient id="New_Gradient_Swatch_6" x1="395.64" y1="254.78" x2="577.7" y2="72.73" gradientUnits="userSpaceOnUse"><stop offset="0" stop-color="#ffab00"></stop><stop offset="1" stop-color="#ffe380"></stop></linearGradient><linearGradient id="linear-gradient" x1="355.36" y1="236.87" x2="355.36" y2="181.7" gradientTransform="matrix(-1, 0, 0, 1, 716.56, 0)" gradientUnits="userSpaceOnUse"><stop offset="0.25" stop-color="#344563"></stop><stop offset="0.36" stop-color="#3d4e6a"></stop><stop offset="0.78" stop-color="#5e6c84"></stop><stop offset="0.85" stop-color="#5a6881"></stop><stop offset="0.92" stop-color="#4d5d77"></stop><stop offset="0.99" stop-color="#394a67"></stop><stop offset="1" stop-color="#344563"></stop></linearGradient><linearGradient id="linear-gradient-2" x1="499.82" y1="26.07" x2="517.6" y2="26.07" gradientUnits="userSpaceOnUse"><stop offset="0.54" stop-color="#0065ff"></stop><stop offset="0.69" stop-color="#0060f0"></stop><stop offset="0.97" stop-color="#0052cc"></stop></linearGradient><linearGradient id="linear-gradient-3" x1="180.82" y1="234.74" x2="234.89" y2="234.74" gradientTransform="matrix(-1, 0, 0, 1, 397.63, 0)" gradientUnits="userSpaceOnUse"><stop offset="0" stop-color="#abf5d1"></stop><stop offset="0.07" stop-color="#92edc3"></stop><stop offset="0.15" stop-color="#7ce5b7"></stop><stop offset="0.25" stop-color="#6be0ae"></stop><stop offset="0.37" stop-color="#60dca8"></stop><stop offset="0.53" stop-color="#59daa4"></stop><stop offset="1" stop-color="#57d9a3"></stop></linearGradient><linearGradient id="linear-gradient-4" x1="100.98" y1="299.85" x2="105.44" y2="316.38" gradientUnits="userSpaceOnUse"><stop offset="0" stop-color="#091e42" stop-opacity="0"></stop><stop offset="1" stop-color="#091e42"></stop></linearGradient><linearGradient id="linear-gradient-5" x1="293.16" y1="299.85" x2="297.62" y2="316.38" gradientTransform="matrix(-1, 0, 0, 1, 792.67, 0)" xlink:href="#linear-gradient-4"></linearGradient><linearGradient id="linear-gradient-6" x1="311.35" y1="291.35" x2="373.42" y2="291.35" xlink:href="#linear-gradient-4"></linearGradient><linearGradient id="linear-gradient-7" x1="181.36" y1="318.51" x2="243.42" y2="318.51" xlink:href="#linear-gradient-4"></linearGradient><clipPath id="clip-path"><path id="_Clipping_Path_" data-name="&lt;Clipping Path&gt;" class="cls-1" d="M396.5,255.63,543.5,289V38.54l-147,33.34Z"></path></clipPath><linearGradient id="linear-gradient-8" x1="407.13" y1="130.03" x2="441.39" y2="95.78" gradientUnits="userSpaceOnUse"><stop offset="0.43" stop-color="#ffe380"></stop><stop offset="0.53" stop-color="#ffe895"></stop><stop offset="0.64" stop-color="#ffeda5"></stop><stop offset="0.77" stop-color="#ffefaf"></stop><stop offset="0.94" stop-color="#fff0b2"></stop></linearGradient><linearGradient id="linear-gradient-9" x1="217.35" y1="246.44" x2="382.73" y2="81.06" gradientUnits="userSpaceOnUse"><stop offset="0" stop-color="#dfe1e5"></stop><stop offset="1" stop-color="#fff"></stop></linearGradient><clipPath id="clip-path-2"><path id="_Clipping_Path_2" data-name="&lt;Clipping Path&gt;" class="cls-2" d="M350.11,187.63c2.71,1.32,5,2.39,6.08,4.48a7.61,7.61,0,0,1,.61,2.81c.12,5.91-9,34.39-9.77,36.77a30.29,30.29,0,0,0,23.79,4.4,129.86,129.86,0,0,0,.52-17.33c-.07-10.07-1.51-15.06.08-23.51a30.9,30.9,0,0,1,3.92-8.13,10.4,10.4,0,0,0-3.26-2.78,11.16,11.16,0,0,0-3.9-1.18c-3.77-.56-5.5-.07-8.54-.18a28,28,0,0,1-7.1-1.28Z"></path></clipPath><linearGradient id="linear-gradient-11" x1="493.57" y1="73.38" x2="493.57" y2="37.2" gradientUnits="userSpaceOnUse"><stop offset="0.55" stop-color="#0052cc"></stop><stop offset="0.83" stop-color="#2684ff"></stop><stop offset="0.88" stop-color="#2481fc"></stop><stop offset="0.93" stop-color="#1c77f2"></stop><stop offset="0.97" stop-color="#1067e1"></stop><stop offset="1" stop-color="#0052cc"></stop></linearGradient><linearGradient id="linear-gradient-12" x1="504.31" y1="70.91" x2="504.31" y2="37.04" gradientUnits="userSpaceOnUse"><stop offset="0.48" stop-color="#0052cc"></stop><stop offset="0.93" stop-color="#2684ff"></stop><stop offset="0.95" stop-color="#227ffa"></stop><stop offset="0.97" stop-color="#1771eb"></stop><stop offset="0.99" stop-color="#0559d3"></stop><stop offset="1" stop-color="#0052cc"></stop></linearGradient><clipPath id="clip-path-3"><path id="_Clipping_Path_3" data-name="&lt;Clipping Path&gt;" class="cls-3" d="M515.86,16.72c1.95,1.47,2,5.5,1.43,7.79a8.05,8.05,0,0,0-.51,3.4c.16,1.23.63,1.59.62,2.84s-.51,1.33-.59,2.63c-.1,1.82.84,2.5.4,3.52a2.63,2.63,0,0,1-1.86,1.35c-1.84.21-3.41.37-4.62.48a26.8,26.8,0,0,1-4.19.22,19.63,19.63,0,0,1-3.51-.51,3.56,3.56,0,0,1-1.21-1.73,4.79,4.79,0,0,1,.14-2.26c.32-2.39-.88-2.74-.73-5.58a5.71,5.71,0,0,0,0-2.27c-.27-.86-.73-1.1-1.1-2.18a5.21,5.21,0,0,1-.32-1.81c0-1.42.89-1.83,1.18-3.47a5.8,5.8,0,0,0,.07-1.5,5.08,5.08,0,0,1,.88-.84c.66-.49,1.11-.57,1.37-1.1a2.51,2.51,0,0,0,.15-.65,14.57,14.57,0,0,0,.19-1.61,13.66,13.66,0,0,1,6,.11,2.88,2.88,0,0,0,.54,1.65C511.43,16.87,514.05,15.35,515.86,16.72Z"></path></clipPath><linearGradient id="linear-gradient-14" x1="161.87" y1="268.49" x2="168.57" y2="261.78" gradientTransform="matrix(-0.99, -0.13, -0.13, 0.99, 419.29, 27.47)" gradientUnits="userSpaceOnUse"><stop offset="0.2" stop-color="#9c7761"></stop><stop offset="1" stop-color="#a27f68"></stop></linearGradient><linearGradient id="linear-gradient-15" x1="189.86" y1="221.18" x2="189.86" y2="209.06" gradientTransform="matrix(-1, 0, 0, 1, 397.63, 0)" gradientUnits="userSpaceOnUse"><stop offset="0.31" stop-color="#8c715d"></stop><stop offset="1" stop-color="#42526e"></stop></linearGradient><linearGradient id="linear-gradient-16" x1="230.78" y1="214.95" x2="237.61" y2="214.95" gradientTransform="matrix(-1, 0, 0, 1, 397.63, 0)" gradientUnits="userSpaceOnUse"><stop offset="0" stop-color="#a27f68"></stop><stop offset="0.8" stop-color="#8c715d"></stop></linearGradient><linearGradient id="linear-gradient-17" x1="-763.72" y1="1623.78" x2="-757.01" y2="1617.07" gradientTransform="matrix(0.71, -0.71, -0.71, -0.71, 1845.76, 823.22)" gradientUnits="userSpaceOnUse"><stop offset="0.2" stop-color="#8c715d"></stop><stop offset="1" stop-color="#a27f68"></stop></linearGradient><linearGradient id="linear-gradient-18" x1="198.67" y1="281.69" x2="231.86" y2="281.69" gradientUnits="userSpaceOnUse"><stop offset="0" stop-color="#00875a"></stop><stop offset="1" stop-color="#36b37e"></stop></linearGradient><clipPath id="clip-path-4"><path id="_Clipping_Path_4" data-name="&lt;Clipping Path&gt;" class="cls-4" d="M165.93,215.43c4.54,4.1,7.88,6,10.65,7.14a38.47,38.47,0,0,0,6.12,1.72A77.15,77.15,0,0,0,194.59,226c2.73-.28,5-.39,6.8-.45,1.37,0,2.91,0,6,0a25.73,25.73,0,0,1,5.05.59,8.93,8.93,0,0,1,1.55.5,8.84,8.84,0,0,1,2.26,1.41,40,40,0,0,1,.59,7.63c0,2.21-.25,3.59-.52,6.2-.23,2.3-.51,5.58-.67,9.63l-.18,2a41.15,41.15,0,0,1-12.3.11,40.46,40.46,0,0,1-4.47-.9l.22-2c-.2-1-.48-2.26-.86-3.78-.54-2.2-.82-3.3-1.26-4.57-.8-2.28-1.27-2.78-2.32-5.71-.33-.92-.58-1.69-.73-2.17A39.27,39.27,0,0,1,178.57,231a52.33,52.33,0,0,1-10.49-6.76,68,68,0,0,1-5.34-4.66Z"></path></clipPath><linearGradient id="linear-gradient-20" x1="198.04" y1="253.97" x2="198.04" y2="234.88" gradientTransform="matrix(-1, 0, 0, 1, 397.63, 0)" gradientUnits="userSpaceOnUse"><stop offset="0" stop-color="#c1c7d0" stop-opacity="0.1"></stop><stop offset="1" stop-color="#c1c7d0"></stop></linearGradient><linearGradient id="linear-gradient-21" x1="197.85" y1="284.58" x2="215.51" y2="284.58" xlink:href="#linear-gradient-18"></linearGradient><clipPath id="clip-path-5"><path id="_Clipping_Path_5" data-name="&lt;Clipping Path&gt;" class="cls-5" d="M198.84,316.36a0,0,0,0,1,0,0c-.11.05-.42-.92-.86-1.12-.84-.38-2.23,2.14-4.69,3.76a10.26,10.26,0,0,1-3.08,1.35.74.74,0,0,0-.56.72v.7h14.95a12.88,12.88,0,0,0-1-5.43Z"></path></clipPath><clipPath id="clip-path-6"><path id="_Clipping_Path_6" data-name="&lt;Clipping Path&gt;" class="cls-5" d="M227,310.15a0,0,0,0,1,0,0c-.09.08-.64-.79-1.11-.87-.91-.16-1.63,2.62-3.62,4.8a10.26,10.26,0,0,1-2.65,2.07.74.74,0,0,0-.36.83l.17.68L233.88,314a12.88,12.88,0,0,0-2.32-5Z"></path></clipPath></defs><title>Spot Hero-Software Development Workflow</title><g class="cls-6"><g id="Layer_2" data-name="Layer 2"><g id="Layer_1-2" data-name="Layer 1"><polygon class="cls-7" points="205.38 290.01 86.21 322.38 0 322.38 130.07 290.01 205.38 290.01"></polygon><polygon class="cls-8" points="395.11 290.01 514.28 322.38 600.49 322.38 470.42 290.01 395.11 290.01"></polygon><ellipse class="cls-9" cx="342.38" cy="291.35" rx="31.03" ry="5.57"></ellipse><ellipse class="cls-10" cx="212.39" cy="318.51" rx="31.03" ry="5.57"></ellipse><line class="cls-11" x1="356.13" y1="272.84" x2="356.13" y2="295.45"></line><line class="cls-11" x1="342.9" y1="270.86" x2="342.9" y2="290.41"></line><line class="cls-11" x1="369.97" y1="270.86" x2="369.97" y2="290.41"></line><ellipse class="cls-12" cx="356.13" cy="270.75" rx="16.09" ry="3.69"></ellipse><ellipse class="cls-12" cx="356.13" cy="270.65" rx="16.09" ry="3.69"></ellipse><ellipse class="cls-12" cx="356.13" cy="270.55" rx="16.09" ry="3.69"></ellipse><ellipse class="cls-12" cx="356.13" cy="270.45" rx="16.09" ry="3.69"></ellipse><ellipse class="cls-12" cx="356.13" cy="270.34" rx="16.09" ry="3.69"></ellipse><ellipse class="cls-12" cx="356.13" cy="270.24" rx="16.09" ry="3.69"></ellipse><ellipse class="cls-12" cx="356.13" cy="270.14" rx="16.09" ry="3.69"></ellipse><ellipse class="cls-12" cx="356.13" cy="270.04" rx="16.09" ry="3.69"></ellipse><ellipse class="cls-12" cx="356.13" cy="269.94" rx="16.09" ry="3.69"></ellipse><ellipse class="cls-12" cx="356.13" cy="269.83" rx="16.09" ry="3.69"></ellipse><ellipse class="cls-12" cx="356.13" cy="269.73" rx="16.09" ry="3.69"></ellipse><ellipse class="cls-12" cx="356.13" cy="269.63" rx="16.09" ry="3.69"></ellipse><ellipse class="cls-12" cx="356.13" cy="269.53" rx="16.09" ry="3.69"></ellipse><ellipse class="cls-12" cx="356.13" cy="269.42" rx="16.09" ry="3.69"></ellipse><ellipse class="cls-12" cx="356.13" cy="269.32" rx="16.09" ry="3.69"></ellipse><ellipse class="cls-12" cx="356.13" cy="269.22" rx="16.09" ry="3.69"></ellipse><ellipse class="cls-12" cx="356.13" cy="269.12" rx="16.09" ry="3.69"></ellipse><ellipse class="cls-12" cx="356.13" cy="269.02" rx="16.09" ry="3.69"></ellipse><ellipse class="cls-12" cx="356.13" cy="268.91" rx="16.09" ry="3.69"></ellipse><ellipse class="cls-12" cx="356.13" cy="268.81" rx="16.09" ry="3.69"></ellipse><ellipse class="cls-12" cx="356.13" cy="268.71" rx="16.09" ry="3.69"></ellipse><ellipse class="cls-12" cx="356.13" cy="268.61" rx="16.09" ry="3.69"></ellipse><ellipse class="cls-12" cx="356.13" cy="268.5" rx="16.09" ry="3.69"></ellipse><ellipse class="cls-12" cx="356.13" cy="268.4" rx="16.09" ry="3.69"></ellipse><ellipse class="cls-12" cx="356.13" cy="268.3" rx="16.09" ry="3.69"></ellipse><ellipse class="cls-12" cx="356.13" cy="268.2" rx="16.09" ry="3.69"></ellipse><ellipse class="cls-12" cx="356.13" cy="268.1" rx="16.09" ry="3.69"></ellipse><ellipse class="cls-12" cx="356.13" cy="267.99" rx="16.09" ry="3.69"></ellipse><ellipse class="cls-12" cx="356.13" cy="267.89" rx="16.09" ry="3.69"></ellipse><ellipse class="cls-12" cx="356.13" cy="267.79" rx="16.09" ry="3.69"></ellipse><ellipse class="cls-12" cx="356.13" cy="267.69" rx="16.09" ry="3.69"></ellipse><ellipse class="cls-12" cx="356.13" cy="267.58" rx="16.09" ry="3.69"></ellipse><ellipse class="cls-12" cx="356.13" cy="267.48" rx="16.09" ry="3.69"></ellipse><ellipse class="cls-12" cx="356.13" cy="267.38" rx="16.09" ry="3.69"></ellipse><ellipse class="cls-12" cx="356.13" cy="267.28" rx="16.09" ry="3.69"></ellipse><ellipse class="cls-12" cx="356.13" cy="267.17" rx="16.09" ry="3.69"></ellipse><ellipse class="cls-12" cx="356.13" cy="267.17" rx="16.09" ry="3.69"></ellipse><path id="_Clipping_Path_7" data-name="&lt;Clipping Path&gt;" class="cls-1" d="M396.5,255.63,543.5,289V38.54l-147,33.34Z"></path><g class="cls-13"><line class="cls-14" x1="436.78" y1="26.07" x2="436.78" y2="115.24"></line></g><path class="cls-15" d="M424.29,233.56l15.88,2.56c0,9-7.17,15.08-15.88,13.35S408.42,239.4,408.42,231s7.17-14.43,15.88-13.35Z"></path><path class="cls-16" d="M407.85,105.17l69.49-9.77"></path><path class="cls-16" d="M407.85,99.35l125.5-19.41"></path><path class="cls-16" d="M407.85,93.53l125.5-21.16"></path><path class="cls-16" d="M407.85,87.7l125.5-22.92"></path><path class="cls-16" d="M407.85,206.68l77.49,8"></path><path class="cls-16" d="M407.85,200.86,533.35,212"></path><path class="cls-16" d="M407.85,195l125.5,9.42"></path><path class="cls-16" d="M407.85,189.21l125.5,7.67"></path><path class="cls-17" d="M427.39,230.81v-16a17.65,17.65,0,0,1,11.23,6.13,19.17,19.17,0,0,1,4.65,12.34Z"></path><path class="cls-16" d="M407.85,113.6l125.5-15.11"></path><path class="cls-16" d="M407.85,113.6v63.7"></path><path class="cls-17" d="M457.52,114.24v18.29l-46,2.81V118.87Z"></path><path class="cls-16" d="M453.65,178.79V142.2"></path><path class="cls-16" d="M453.65,123.9V108.08"></path><path class="cls-16" d="M480.05,104.91v74.74"></path><path class="cls-16" d="M506.46,160.12V101.73h0"></path><path class="cls-16" d="M533.35,98.49v82.89"></path><path class="cls-16" d="M533.35,117l-26.9,2.32-26.4,2.27-26.4,2.28"></path><path class="cls-16" d="M533.35,138.48l-26.9,1.26L480.05,141l-26.4,1.24"></path><path class="cls-16" d="M506.46,160.12l-26.4.19-26.4.18-45.79.32"></path><path class="cls-16" d="M407.85,177.3l125.5,4.08"></path><path class="cls-16" d="M453.65,123.9V142.2l-45.79,2.14V127.85Z"></path><path class="cls-18" d="M533.35,159.93v21.45l-26.9-.87V160.12Z"></path><path class="cls-16" d="M533.35,98.49v61.44l-26.9.18V180.5l-26.4-.85-26.4-.86-45.79-1.49v-33l45.79-2.14V123.9l-45.79,3.95V113.6l45.79-5.51,26.4-3.18,26.4-3.17h0Z"></path><path class="cls-19" d="M446.61,101V119.3L401,123.9V107.42Z"></path><polygon class="cls-20" points="226.53 71.88 226.53 218.88 226.53 255.63 373.54 255.63 373.54 218.88 373.54 71.88 226.53 71.88"></polygon><path class="cls-21" d="M290.42,185.81a9,9,0,0,1-9-9v-3.56"></path><path class="cls-21" d="M290.42,185.81a9,9,0,0,1,9,9"></path><path class="cls-22" d="M260.16,185.34a9,9,0,0,1-9-9v-3.56"></path><path class="cls-22" d="M260.16,185.34a9,9,0,0,1,9,9"></path><circle class="cls-21" cx="281.44" cy="167.05" r="6.22"></circle><path class="cls-23" d="M299.4,115.11a12,12,0,1,1,12-12A12,12,0,0,1,299.4,115.11Z"></path><circle class="cls-22" cx="251.18" cy="166.75" r="6.22"></circle><path class="cls-22" d="M284.27,222.3a15.13,15.13,0,0,1-15.13-15.13V141.06"></path><path class="cls-22" d="M284.27,222.3a15.13,15.13,0,0,1,15.13,15.13"></path><path class="cls-24" d="M314.53,222.3a15.13,15.13,0,0,0,15.13-15.13V187.89"></path><path class="cls-24" d="M314.53,222.3a15.13,15.13,0,0,0-15.13,15.13"></path><line class="cls-25" x1="329.66" y1="163.08" x2="329.66" y2="174.84"></line><path class="cls-21" d="M290.42,148.29a9,9,0,0,0-9,9v3.56"></path><path class="cls-21" d="M290.42,148.29a9,9,0,0,0,9-9"></path><line class="cls-21" x1="299.4" y1="219.47" x2="299.4" y2="120.22"></line><line class="cls-21" x1="299.4" y1="255.63" x2="299.4" y2="219.47"></line><circle class="cls-24" cx="329.66" cy="181.68" r="6.22"></circle><circle class="cls-22" cx="269.14" cy="134.84" r="6.22"></circle><circle class="cls-21" cx="299.4" cy="103.16" r="17.06"></circle><line class="cls-26" x1="322.76" y1="255.63" x2="226.53" y2="255.63"></line><path class="cls-23" d="M56.57,289l5.78-1.31,5.6-1.27,5.43-1.23,5.27-1.2,5.13-1.16,5-1.13,4.88-1.11,4.78-1.08,4.69-1.06,4.61-1,4.54-1,4.49-1,4.45-1,4.43-1,4.41-1,4.41-1,4.43-1,4.45-1,4.49-1,4.54-1,4.61-1,4.69-1.06,4.78-1.08,4.88-1.11,5-1.13,5.13-1.16,5.27-1.2,5.43-1.23,5.6-1.27,5.78-1.31V71.87l-5.78-1.31-5.6-1.27-5.43-1.23-5.27-1.2-5.13-1.16-5-1.13-4.88-1.11-4.78-1.08L157,61.31l-4.61-1-4.54-1-4.49-1-4.45-1-4.43-1-4.41-1-4.41-1-4.43-1-4.45-1-4.49-1-4.54-1-4.61-1L98.45,48,93.68,47l-4.88-1.11-5-1.13-5.13-1.16-5.27-1.2L68,41.12l-5.6-1.27-5.78-1.31V289Z"></path><path class="cls-27" d="M125.41,258.32l-5.59,1.09-5.15,1-4.81.94-4.57.89-4.43.87-4.38.86-4.43.87-4.57.89-4.81.94-5.15,1-5.59,1.09c-1.33.26-2.4-.87-2.4-2.53V121.79c0-1.65,1.07-2.91,2.4-2.8l5.59.47,5.15.43,4.81.4,4.57.38,4.43.37,4.38.37,4.43.37,4.57.38,4.81.4,5.15.43,5.59.47a2.82,2.82,0,0,1,2.4,2.87V255.18A3.24,3.24,0,0,1,125.41,258.32Z"></path><path class="cls-28" d="M190.22,245.64l-5.59,1.09-5.15,1-4.81.94-4.57.89-4.43.87-4.38.86-4.43.87-4.57.89-4.81.94-5.15,1-5.59,1.09a2,2,0,0,1-2.4-2.17V126.84a2.29,2.29,0,0,1,2.4-2.44l5.59.47,5.15.43,4.81.4,4.57.38,4.43.37,4.38.37,4.43.37,4.57.38,4.81.4,5.15.43,5.59.47a2.61,2.61,0,0,1,2.4,2.51V242.86A3,3,0,0,1,190.22,245.64Z"></path><path class="cls-29" d="M69.52,110.38l5.6.55,5.19.51,4.87.48,4.63.46,4.47.44,4.39.43,4.39.43,4.47.44,4.63.46,4.87.48,5.19.51,5.6.55"></path><path class="cls-29" d="M134.33,116.8l5.6.55,5.2.51,4.87.48,4.63.46,4.47.44,4.39.43,4.39.43,4.47.44L177,121l4.87.48L187,122l5.6.55"></path><path class="cls-29" d="M69.52,104.73l4.79.52,4.22.46,3.93.43,3.93.43,4.22.46,4.79.52"></path><path class="cls-29" d="M134.33,111.82l4.79.52,4.22.46,3.93.43,3.93.43,4.22.46,4.79.52"></path><path class="cls-30" d="M122.64,147.85l-5.49-.18-5-.16-4.68-.15-4.45-.15-4.34-.14-4.34-.14-4.45-.15-4.68-.15-5-.16-5.49-.18a1.9,1.9,0,0,1-1.6-2v-17a1.67,1.67,0,0,1,1.6-1.87l5.49.39,5,.36,4.68.34,4.45.32,4.34.31,4.34.31,4.45.32,4.68.34,5,.36,5.49.39a1.86,1.86,0,0,1,1.6,1.91v15.42A1.64,1.64,0,0,1,122.64,147.85Z"></path><path class="cls-30" d="M122.64,170.44l-5.49.08-5,.07-4.68.06-4.45.06-4.34.06-4.34.06-4.45.06-4.68.06-5,.07-5.49.08a1.79,1.79,0,0,1-1.6-2v-17a1.77,1.77,0,0,1,1.6-1.94l5.49.14,5,.13,4.68.12,4.45.11,4.34.11,4.34.11,4.45.11,4.68.12,5,.13,5.49.14a1.76,1.76,0,0,1,1.6,1.84v15.42A1.73,1.73,0,0,1,122.64,170.44Z"></path><path class="cls-17" d="M122.64,193.77l-5.49.34-5,.31-4.68.29L103,195l-4.34.27-4.34.27-4.45.28-4.68.29-5,.31-5.49.34a1.69,1.69,0,0,1-1.6-1.89v-17a1.87,1.87,0,0,1,1.6-2l5.49-.12,5-.11,4.68-.11,4.45-.1,4.34-.1,4.34-.1,4.45-.1,4.68-.11,5-.11,5.49-.12a1.66,1.66,0,0,1,1.6,1.76v15.42A1.84,1.84,0,0,1,122.64,193.77Z"></path><path class="cls-31" d="M186.61,209.57l-5.49.6-5,.55-4.68.51-4.45.48-4.34.47-4.34.47-4.45.48-4.68.51-5,.55-5.49.6a1.48,1.48,0,0,1-1.6-1.57v-15a1.83,1.83,0,0,1,1.6-1.86l5.49-.38,5-.35,4.68-.32,4.45-.31,4.34-.3,4.34-.3,4.45-.31,4.68-.32,5-.35,5.49-.38a1.45,1.45,0,0,1,1.6,1.45v13.38A1.8,1.8,0,0,1,186.61,209.57Z"></path><path class="cls-32" d="M187.46,169.55l-5.49.08-5,.07-4.68.06-4.45.06-4.34.06-4.34.06-4.45.06-4.68.06-5,.07-5.49.08a1.65,1.65,0,0,1-1.6-1.72v-15a1.63,1.63,0,0,1,1.6-1.7l5.49.14,5,.13,4.68.12,4.45.11,4.34.11,4.34.11,4.45.11,4.68.12,5,.13,5.49.14a1.63,1.63,0,0,1,1.6,1.6V168A1.6,1.6,0,0,1,187.46,169.55Z"></path><path class="cls-32" d="M187.46,189.12l-5.49.33-5,.3-4.68.28-4.45.27-4.34.26-4.34.26-4.45.27-4.68.28-5,.3-5.49.33a1.56,1.56,0,0,1-1.6-1.65v-15a1.72,1.72,0,0,1,1.6-1.78l5.49-.11,5-.11,4.68-.1,4.45-.09,4.34-.09,4.34-.09,4.45-.09,4.68-.1,5-.11,5.49-.12a1.54,1.54,0,0,1,1.6,1.52v13.35A1.7,1.7,0,0,1,187.46,189.12Z"></path><path class="cls-32" d="M187.46,150l-5.49-.18-5-.16-4.68-.15-4.45-.15-4.34-.14-4.34-.14-4.45-.15-4.68-.15-5-.16-5.49-.18a1.74,1.74,0,0,1-1.6-1.8v-15a1.54,1.54,0,0,1,1.6-1.63l5.49.39,5,.36,4.68.34,4.45.32,4.34.31,4.34.31,4.45.32,4.68.34,5,.36,5.49.39a1.72,1.72,0,0,1,1.6,1.67v13.35A1.52,1.52,0,0,1,187.46,150Z"></path><path class="cls-27" d="M85.22,136.36a5.91,5.91,0,0,1-1.34,3.85,4,4,0,0,1-3.23,1.49,4.37,4.37,0,0,1-3.23-1.78,6.57,6.57,0,0,1-1.34-4,6,6,0,0,1,1.34-3.9,3.89,3.89,0,0,1,3.23-1.44,4.51,4.51,0,0,1,3.23,1.83A6.49,6.49,0,0,1,85.22,136.36Z"></path><path class="cls-27" d="M85.22,160.68a6.16,6.16,0,0,1-1.34,3.91,4.22,4.22,0,0,1-3.23,1.64,4.14,4.14,0,0,1-3.23-1.63,6.31,6.31,0,0,1-1.34-4,6.25,6.25,0,0,1,1.34-4,4.09,4.09,0,0,1,3.23-1.59,4.27,4.27,0,0,1,3.23,1.68A6.23,6.23,0,0,1,85.22,160.68Z"></path><path class="cls-28" d="M150.52,139.77a4.77,4.77,0,0,1-1.34,3.36,4.24,4.24,0,0,1-3.23,1.29,4.58,4.58,0,0,1-3.23-1.58,5.35,5.35,0,0,1-1.34-3.55,4.84,4.84,0,0,1,1.34-3.41,4.11,4.11,0,0,1,3.23-1.24,4.74,4.74,0,0,1,3.23,1.62A5.28,5.28,0,0,1,150.52,139.77Z"></path><path class="cls-28" d="M150.52,161.07a5,5,0,0,1-1.34,3.42,4.44,4.44,0,0,1-3.23,1.44,4.36,4.36,0,0,1-3.23-1.43A5.12,5.12,0,0,1,141.4,161a5.06,5.06,0,0,1,1.34-3.47,4.3,4.3,0,0,1,3.23-1.39,4.5,4.5,0,0,1,3.23,1.47A5,5,0,0,1,150.52,161.07Z"></path><path class="cls-28" d="M150.52,182.36a5.22,5.22,0,0,1-1.34,3.49,4.68,4.68,0,0,1-3.23,1.59,4.16,4.16,0,0,1-3.23-1.28,4.89,4.89,0,0,1-1.34-3.42,5.29,5.29,0,0,1,1.34-3.53,4.52,4.52,0,0,1,3.23-1.54,4.29,4.29,0,0,1,3.23,1.32A4.82,4.82,0,0,1,150.52,182.36Z"></path><path class="cls-33" d="M91.18,132l5.24.32,4.61.28,4.3.26,4.3.26,4.61.28,5.24.32"></path><path class="cls-33" d="M91.18,136.67l5.24.27,4.61.24,4.3.23,4.3.22,4.61.24,5.24.27"></path><path class="cls-33" d="M91.18,141.3l4.81.21,4.14.18,4.14.18,4.81.21"></path><path class="cls-29" d="M155.66,136l5.24.32,4.61.28,4.3.26,4.3.26,4.61.28,5.24.32"></path><path class="cls-29" d="M155.66,140l5.24.27,4.61.24,4.3.22,4.3.23,4.61.24,5.24.27"></path><path class="cls-29" d="M155.66,144.1l4.81.21,4.14.18,4.14.18,4.81.21"></path><path class="cls-33" d="M91.18,155.5l5.24.08,4.61.07,4.3.07,4.3.07,4.61.07,5.24.08"></path><path class="cls-33" d="M91.18,160.13l5.24,0,4.61,0,4.3,0,4.3,0,4.61,0,5.24,0"></path><path class="cls-33" d="M91.18,164.76h17.89"></path><path class="cls-29" d="M155.66,156.52l5.24.08,4.61.07,4.3.07,4.3.07,4.61.07L184,157"></path><path class="cls-29" d="M155.66,160.58l5.24,0,4.61,0,4.3,0,4.3,0,4.61,0,5.24,0"></path><path class="cls-29" d="M155.66,164.64h17.89"></path><path class="cls-29" d="M155.66,178.09l5.24-.17,4.61-.15,4.3-.14,4.3-.14,4.61-.15,5.24-.17"></path><path class="cls-29" d="M155.66,182.15l5.24-.21,4.61-.19,4.3-.17,4.3-.17,4.61-.19L184,181"></path><path class="cls-29" d="M155.66,186.21l4.81-.24,4.14-.21,4.14-.21,4.81-.24"></path><path class="cls-34" d="M161.22,223.62l-6.19.8-5.67.73-5.28.68-5,.65-4.89.63-4.89.63-5,.65-5.28.68-5.67.73-6.19.8a1.71,1.71,0,0,1-1.81-1.9V210.4a2.22,2.22,0,0,1,1.81-2.3l6.19-.56L119,207l5.28-.48,5-.45,4.89-.44,4.89-.44,5-.45,5.28-.48,5.67-.51,6.19-.56A1.68,1.68,0,0,1,163,205v16.49A2.19,2.19,0,0,1,161.22,223.62Z"></path><path class="cls-35" d="M171.78,216.67l-6.08.7-5.57.64-5.19.6-4.93.57-4.81.55-4.81.55-4.93.57-5.19.6-5.57.64-6.08.7a1.69,1.69,0,0,1-1.77-1.87V203.15a2.13,2.13,0,0,1,1.77-2.2l6.08-.46,5.57-.42,5.19-.39,4.93-.37,4.81-.36,4.81-.36,4.93-.37,5.19-.39,5.57-.42,6.08-.46a1.66,1.66,0,0,1,1.77,1.73v16A2.1,2.1,0,0,1,171.78,216.67Z"></path><path class="cls-23" d="M131.68,210.62a6.76,6.76,0,0,1-1.48,4.21,5.39,5.39,0,0,1-3.57,2.07,4.24,4.24,0,0,1-3.57-1.33,5.74,5.74,0,0,1-1.48-4,6.85,6.85,0,0,1,1.48-4.27,5.21,5.21,0,0,1,3.57-2,4.37,4.37,0,0,1,3.57,1.38A5.66,5.66,0,0,1,131.68,210.62Z"></path><path class="cls-36" d="M138.18,205.19l5.81-.5,5.11-.44,4.76-.41,4.76-.41,5.11-.44,5.81-.5"></path><path class="cls-36" d="M138.18,210l5.81-.55,5.11-.49,4.76-.45,4.76-.45,5.11-.49,5.81-.55"></path><path class="cls-36" d="M138.18,214.81l5.57-.58,4.79-.5,4.79-.5,5.57-.58"></path><line class="cls-37" x1="421.57" y1="18.72" x2="421.57" y2="104.53"></line><path class="cls-38" d="M375.36,187.11A31.81,31.81,0,0,1,380,198.19a4.11,4.11,0,0,1,.32,1.6v18l-2.5,0c-.1-1.66-.23-3-.32-3.9-.52-5-1.16-7.29-1.2-11.51,0-1,0-1.76,0-2.25a6.71,6.71,0,0,0-.21-1,7.13,7.13,0,0,0-1.24-2.37c-.85-1.12-2.7-3.88-5.2-7.65Z"></path><line class="cls-39" x1="338.02" y1="157.99" x2="338.05" y2="148.25"></line><path class="cls-40" d="M361.9,252.23a35.66,35.66,0,0,0,.47,5.87c.2,1.18.48,2.51.82,4.87.13.94.23,1.71.29,2.23l-.71,0a8.78,8.78,0,0,0-1.31.08,5.18,5.18,0,0,0-.65.17c-.37.11-.48.17-.51.27s0,.15.12.35c.52.71,1.38.66,2.57,1.31a5.21,5.21,0,0,0,1.13.61,1.83,1.83,0,0,0,1.44,0,1.18,1.18,0,0,0,.66-1.33c-.07-.69-.13-1.56-.14-2.55a37.64,37.64,0,0,1,.54-5.92c.15-1.11.42-3.1.84-6.22Z"></path><path class="cls-38" d="M367.41,252.34a40.89,40.89,0,0,0,.09-9.19c-.1-1-.24-1.94-.4-2.85a36.92,36.92,0,0,0,1.17-6.23c.17-1.75.45-6,.47-7.61a18.9,18.9,0,0,1,.14-2c0-.22.06-.44.12-.79.41-2.31,2.23-12.15,1.75-15.73a29,29,0,0,0-.91-4.28,10.71,10.71,0,0,0-1.05-2.75,11.91,11.91,0,0,1-1.26.32c-.47.09-.84.13-1,.16-1.12.16-3.24.41-9,.85a16.65,16.65,0,0,0-1.08,1.51,17.93,17.93,0,0,0-2.27,5.47c-3.89,16-4.67,22.26-4.67,22.26h0l-1.7,9.52q-.08,2.75-.25,5.65-.2,3.28-.5,6.36l5.15.61a26.44,26.44,0,0,0,.41-4.54c0-2.19-.27-3.51.14-5.63a13.66,13.66,0,0,1,.7-2.4,35.87,35.87,0,0,0,1.67-3.58,52,52,0,0,0,2.22-7.82c1.33-5,4-9.37,4.65-9.15.89.29-2.94,9.07-.67,18a16,16,0,0,1,.79,3.49,19,19,0,0,1-.18,4.14,33.36,33.36,0,0,0,0,6.08Z"></path><path class="cls-38" d="M373.91,187.18a9,9,0,0,0-3.81-3.11c-2.59-1.07-6.89-.88-10.44-1.1s-5.33-.33-7.68-1.31c-1.8-.75-2.8-1.55-5.84-2.85-1.6-.68-3-1.16-3.87-1.45a23.52,23.52,0,0,0-.43-4.53c-.64-3.33-1.66-4.68-2.32-7.93a23.49,23.49,0,0,1-.46-5.16c-.3,0-.72-.06-1.25-.14l-.19,0c-.34-.06-.83-.14-1.45-.29a73.58,73.58,0,0,0,1.38,20.13c5.25,4.9,9.49,7.11,12.56,8.21,1.39.5,4.63,1.61,6.08,4.48a6.9,6.9,0,0,1,.61,2.81,16.72,16.72,0,0,1-1.53,8.23q3.32.33,6.71.62,4.22.36,8.34.65a36.71,36.71,0,0,1,1.5-11.88A36.19,36.19,0,0,1,373.91,187.18Z"></path><path class="cls-41" d="M362.11,177a4.94,4.94,0,0,1,1.65,4.18,4.51,4.51,0,0,1-1.41,2.59l8,1a3.36,3.36,0,0,1,.1-4.69Z"></path><path class="cls-42" d="M368.68,168.64c-.91-1-3.84-.55-5.68.48a6,6,0,0,0-2.76,2.67c-.47,1.07-.5,2.3-1.52,2.93a2.59,2.59,0,0,0-.76.49,2.24,2.24,0,0,0-.43,2c.08.29.32.87,2.51,2.06l.41.22a3.2,3.2,0,0,0,4.1-1C369.21,171.8,369.42,169.49,368.68,168.64Z"></path><path class="cls-38" d="M365.5,168.4a16.08,16.08,0,0,0-3,3.88c-.08.18-.11.27-.51.44s-.92.21-.85.5.6.72.64,1l-.89,3.9,1.53.76,5.18,2.56c0-.22-1.54-5.74-1.5-6s.16-.94-.18-1.13-.63-3.37-.76-3.8a1.58,1.58,0,0,1,.07-1.11C365.4,168.75,365.5,168.4,365.5,168.4Z"></path><path class="cls-42" d="M365.46,168.43a6.41,6.41,0,0,0-.23,3.77,8.77,8.77,0,0,1-.87,6.08,2.49,2.49,0,0,0,1.12,3.6,8.71,8.71,0,0,0,2.33.78,5.56,5.56,0,0,0,2.68-.17c1.86-.69,2.64-2.64,3.07-3.74a9,9,0,0,0,.42-4.92,8.77,8.77,0,0,0-.44-1.5C372.75,170.38,369.21,167.1,365.46,168.43Z"></path><path class="cls-38" d="M338,154.15c-.15.1-.18,0-.59.13a2.68,2.68,0,0,0-.93.53,2.56,2.56,0,0,0-.64,1.52,4.93,4.93,0,0,0-.05,1.9,3.81,3.81,0,0,0,.61,1.64c.58.82,1.69,1.57,2.23,1.27.29-.16.27-.55.41-1.37.28-1.73.63-1.66.76-2.79s-.25-1.08-.61-3.92c-.14-1.11-.19-2-.4-2s-.31.42-.37.61C338,152.89,338.5,153.82,338,154.15Z"></path><path id="_Clipping_Path_8" data-name="&lt;Clipping Path&gt;" class="cls-2" d="M350.11,187.63c2.71,1.32,5,2.39,6.08,4.48a7.61,7.61,0,0,1,.61,2.81c.12,5.91-9,34.39-9.77,36.77a30.29,30.29,0,0,0,23.79,4.4,129.86,129.86,0,0,0,.52-17.33c-.07-10.07-1.51-15.06.08-23.51a30.9,30.9,0,0,1,3.92-8.13,10.4,10.4,0,0,0-3.26-2.78,11.16,11.16,0,0,0-3.9-1.18c-3.77-.56-5.5-.07-8.54-.18a28,28,0,0,1-7.1-1.28Z"></path><g class="cls-43"><path class="cls-40" d="M345.22,226.59a35.64,35.64,0,0,0,14,5.86c6.38,1.28,11.64,0,15.71-.82.11-1,.22-1.39.32-2.41-3.67.47-9.09,1.72-15.47.5a49.07,49.07,0,0,1-14.06-5C345.54,225.66,345.38,225.64,345.22,226.59Z"></path><path class="cls-40" d="M345.22,221.51a37.62,37.62,0,0,0,14,5.58,39.34,39.34,0,0,0,15.71-.18c.11-1,.22-1.07.32-2.09a49,49,0,0,1-29.53-5.47C345.54,220.3,345.38,220.56,345.22,221.51Z"></path></g><path class="cls-40" d="M347.18,251c-.26,3.37-.35,6.09-.39,7.89-.1,4.19,0,5.69-1.12,6.85-1.69,1.67-4.76,1.31-4.76,1.92,0,.31.78.53,1.14.63,1.44.41,2.1-.05,3.82-.07,2,0,2.69.58,3.35,0a2.23,2.23,0,0,0,.54-1.85,12.21,12.21,0,0,1-.11-1.22,21.82,21.82,0,0,1,1.2-6,27,27,0,0,0,1.51-7Z"></path><path class="cls-42" d="M344,266.74a18.46,18.46,0,0,0,2.28,0,3,3,0,0,0,1.57-.76,3.4,3.4,0,0,1,1.63-.71l.15,0c0,.47.07.87.1,1.13a2.23,2.23,0,0,1-.54,1.85c-.66.55-1.37-.05-3.35,0-1.71,0-2.38.48-3.82.07-.35-.1-1.14-.33-1.14-.63S342.5,267.3,344,266.74Z"></path><path class="cls-42" d="M361.46,265.31h0a3.33,3.33,0,0,1,.77-.09h.43l.46,0c-.38.07-.7.22-.71.39s.31.34.77.57a.89.89,0,0,0,.48.14c.37,0,.38-.45.84-.59a4.2,4.2,0,0,1,.64-.06,4.05,4.05,0,0,0,.42,0,5.11,5.11,0,0,0,.58-.16c0,.43.06.83.09,1.18a1.18,1.18,0,0,1-.66,1.33,1.83,1.83,0,0,1-1.44,0,5.21,5.21,0,0,1-1.13-.61c-1.2-.65-2.06-.6-2.57-1.31a.43.43,0,0,1-.12-.35C360.32,265.68,360.39,265.57,361.46,265.31Z"></path><path class="cls-38" d="M380.13,216.8l.07.33a15.15,15.15,0,0,1,.15,6.86s-1.15,1.31-1.81,1.14h0a1.22,1.22,0,0,1-.9-1l-.42-3.49-.35,1.8s-.37.2-.47.11-.16-1.18-.16-1.18a11.69,11.69,0,0,1,.94-4.59l.57-1.33,2.4,1.39"></path><path class="cls-44" d="M502.06,8.47c-.62.25.87,2.8-.14,5.44s-3.41,2.59-3.87,5c-.25,1.31.12,3,1.19,3.57,1.38.67,3.3-1,3.53-1.19,2.75-2.38,3.14-7.09,1.56-10.33C503.66,9.59,502.53,8.28,502.06,8.47Z"></path><path class="cls-45" d="M500.73,18.12c-.87,1.51-1.76,3.19-2.61,5a63.53,63.53,0,0,0-2.45,6.07L491,28a33,33,0,0,1-4.63-1.23c-.26.59-.91,1.39-1.17,2l9.2,5a2.62,2.62,0,0,0,4.06-1l6.32-10.11c.38-3.4-.41-5.8-1.57-6.07C502.29,16.31,501.2,17.53,500.73,18.12Z"></path><path class="cls-46" d="M503.49,12.08a10,10,0,0,1-.1,5,8.64,8.64,0,0,0,6-.52A8.36,8.36,0,0,1,510.5,10Z"></path><path class="cls-47" d="M501.86,38.71c-15.4,5.15-20.64,10.77-20.78,12.28l-2,22.39h5.66a76.47,76.47,0,0,0,4.42-15.1c.42-2.31.72-4.52.91-6.6l15.76-3.57a9.44,9.44,0,0,0,2-7.32,8.5,8.5,0,0,0-1.59-3.59C505.19,37.56,503.67,38.1,501.86,38.71Z"></path><path class="cls-48" d="M490.66,70.91c0-7-.65-13.82-.16-20.83a3.61,3.61,0,0,1,1.83-2.87L510.13,37l4.56.21a4,4,0,0,1,2,.9,5.43,5.43,0,0,1,1.52,3.55,9.25,9.25,0,0,1,0,2.5l-.07,0L504.83,50,499,54a38.32,38.32,0,0,1-2.61,16.49Z"></path><path class="cls-45" d="M485.67,26.24l-1.43-1.67-1.84-.46a2.52,2.52,0,0,1-.87-.17c-.29-.11-.51-.27-.69-.17a.3.3,0,0,0-.15.21c0,.17.14.33.41.56l.8.67-1.35.49-1.3-.43.28.77,3.36,1.7,2.44,1,1.07-2Z"></path><path class="cls-46" d="M519.08,40.39"></path><path class="cls-49" d="M490.56,75.42a6.76,6.76,0,0,0,.08-1.18c0-1.36,0-2.72,0-4.07l5.78,0a55.49,55.49,0,0,0,.12,6.43c.17,1.39.22,4.15-1.59,4.48a8.2,8.2,0,0,1-1.42.13l-.16.66c-.08.32-.72.82-1,1.05a11.81,11.81,0,0,1-1.32,1.1,10.34,10.34,0,0,1-3.3,1.68,3.54,3.54,0,0,1-1.59.13c-.14,0-1.55-.64-1.42-.8a46.41,46.41,0,0,0,3.84-5A12.32,12.32,0,0,0,490.56,75.42Z"></path><path class="cls-49" d="M471.15,82.18c3-.92,5.25-3.1,7.62-5h0l.6-5.58,5.63.6-.7,6.55h0a16.87,16.87,0,0,1-.77,3.85,1,1,0,0,1-.11.24c-.44.66-2,.62-2.59.43a3,3,0,0,1-.91-.44,14.11,14.11,0,0,0-2.29.83,17.08,17.08,0,0,1-2.58.58,14.29,14.29,0,0,1-3.6,0c-.54-.06-2.53-.14-2.6-.93S470.67,82.33,471.15,82.18Z"></path><path id="_Clipping_Path_9" data-name="&lt;Clipping Path&gt;" class="cls-3" d="M515.86,16.72c1.95,1.47,2,5.5,1.43,7.79a8.05,8.05,0,0,0-.51,3.4c.16,1.23.63,1.59.62,2.84s-.51,1.33-.59,2.63c-.1,1.82.84,2.5.4,3.52a2.63,2.63,0,0,1-1.86,1.35c-1.84.21-3.41.37-4.62.48a26.8,26.8,0,0,1-4.19.22,19.63,19.63,0,0,1-3.51-.51,3.56,3.56,0,0,1-1.21-1.73,4.79,4.79,0,0,1,.14-2.26c.32-2.39-.88-2.74-.73-5.58a5.71,5.71,0,0,0,0-2.27c-.27-.86-.73-1.1-1.1-2.18a5.21,5.21,0,0,1-.32-1.81c0-1.42.89-1.83,1.18-3.47a5.8,5.8,0,0,0,.07-1.5,5.08,5.08,0,0,1,.88-.84c.66-.49,1.11-.57,1.37-1.1a2.51,2.51,0,0,0,.15-.65,14.57,14.57,0,0,0,.19-1.61,13.66,13.66,0,0,1,6,.11,2.88,2.88,0,0,0,.54,1.65C511.43,16.87,514.05,15.35,515.86,16.72Z"></path><g class="cls-50"><line class="cls-51" x1="499.72" y1="26.26" x2="499.83" y2="23.06"></line></g><path class="cls-52" d="M499.64,2.13"></path><path class="cls-46" d="M501.81,2.52a4.35,4.35,0,0,0-1.19,2.8l0,.6s0,.34-.8,1.47c-.25.35,1.1.71,1.1.71A5.24,5.24,0,0,0,501,9.75c.05.23.09.29.2.73a8.28,8.28,0,0,0,.3,1.23c.18.3.7.57,2.26.36a9.83,9.83,0,0,1,4.07-.58,2.62,2.62,0,0,0,1.56-.22A2.61,2.61,0,0,0,510.5,10a5.61,5.61,0,0,0,1-1.67A5.73,5.73,0,0,0,511,3.15a6.31,6.31,0,0,0-.82-1A4.58,4.58,0,0,0,506.27.91l-1.94.29A4.36,4.36,0,0,0,501.81,2.52Z"></path><path class="cls-53" d="M500.59,30.83a189,189,0,0,0-84-11.75"></path><path class="cls-45" d="M478.61,23.84c-.16.09-.22.51.29,2.07L483.35,27l-1.54-2.24c-.11-.13-.71-.88-.91-.77s0,.66.08.9a4.74,4.74,0,0,0-.41-.52,1.4,1.4,0,0,0-.31-.28c-.12-.08-.28-.18-.42-.14s-.29.36-.25.75a1.16,1.16,0,0,1-.44-.54c0-.13-.06-.25-.17-.32A.4.4,0,0,0,478.61,23.84Z"></path><path class="cls-45" d="M481.15,26.11h.55a3.61,3.61,0,0,1,2.36.88l.59.51h-2.24Z"></path><polygon class="cls-46" points="497.59 28.07 495.99 26.75 494.21 26.63 492.89 26.11 492.52 26.75 493.92 27.73 492.75 28.41 491.47 28.23 491.86 28.9 495.26 29.92 497.69 30.49 498.36 28.44 497.59 28.07"></polygon><path class="cls-46" d="M508.75,30.49a13.57,13.57,0,0,0-2.13-.73c-2.3-.58-3.53-.24-6.08-.74a17.8,17.8,0,0,1-2.18-.58l-.67,2a40.42,40.42,0,0,0,4.12,2.24,40.53,40.53,0,0,0,7,2.54,1.75,1.75,0,0,0,1.8-.59,30.12,30.12,0,0,0,3.73-5.78c2.9-5.91,3.17-9.36,1.89-10.55a2.67,2.67,0,0,0-2.59-.45c-.65.24-1.07.76-2.14,3.32a37.45,37.45,0,0,0-2.23,6.6C509,28.91,508.85,29.83,508.75,30.49Z"></path><path class="cls-44" d="M499.92,4.63q1.2.08,2.46.2t2.46.27a14.05,14.05,0,0,0-.15,2.29,23.42,23.42,0,0,0,.94,4.34,6.46,6.46,0,0,1-.17,4.35c-.73,1.46-1.09,1.75-1.05,2.78A3.57,3.57,0,0,0,507,22c1.87.38,3.67-1.57,4.42-2.39,1.54-1.67,1.85-3.24,3.07-3.36a2.12,2.12,0,0,1,1.48.54,7.91,7.91,0,0,0,.66-4.63,7.63,7.63,0,0,0-.9-2.49A16.36,16.36,0,0,0,514,7.6a11.61,11.61,0,0,1-1.49-3.43,5.8,5.8,0,0,0-2-3.1A5.94,5.94,0,0,0,508.31.3a10.88,10.88,0,0,0-4.16-.16,5.17,5.17,0,0,0-4.23,4.5Z"></path><path class="cls-54" d="M224.21,267.32a8.49,8.49,0,0,1,.15,4.68,9.16,9.16,0,0,1-1.36,2.73c-.41.66-.7,1-1.07,1s-.75-.42-1-.73a3.85,3.85,0,0,1-.73-1.71c-.25-1.68.4-3.31.95-5.35.8-3,.68-4.25,1.15-4.31C222.59,263.6,223.16,264,224.21,267.32Z"></path><path class="cls-55" d="M222,264.39c.86-.16,1.26-3.47,2,2a4.17,4.17,0,0,1-.19,3c-.75,1.38-2.19,1-2.72,2.43-.29.75,0,1.24-.54,1.92-.36.47-1,.87-1.24.71s.14-.94.38-2.59a29.64,29.64,0,0,1,.25-3c.13-.54.26-.85.54-2a6.08,6.08,0,0,1,.23-.87C220.87,265.55,221.28,264.52,222,264.39Z"></path><path class="cls-56" d="M203.48,226.8a7.7,7.7,0,0,0,7.44.68,12.55,12.55,0,0,1-.86-7.56l-6.24-.61Z"></path><path class="cls-57" d="M210,221.18a6,6,0,0,0,2.86-2.36,6.79,6.79,0,0,0-2.18-8.87c-3.31-2-8.1-.24-8.73,1.87a1.85,1.85,0,0,0-.07.64,14.05,14.05,0,0,0,2.36,6.48Z"></path><path class="cls-58" d="M201.93,211.82a15.72,15.72,0,0,1-.71,2.26c-.2.5-.37.85-.41.94a13.13,13.13,0,0,1-1.48,2.36l1.22.54.12,4.3a13.76,13.76,0,0,0,5.17,1.47c1.53.12,3.09.24,4-.73.4-.41.42-.73,1.21-1.85a16.54,16.54,0,0,1,1.31-1.64,2.85,2.85,0,0,1-2.95,0,2.3,2.3,0,0,1-.67-.84c-.29-.7,0-1.23-.33-1.54a.84.84,0,0,0-.81-.11c-.76.31-.9,2-.9,2h0l-1.12-.29a4.56,4.56,0,0,0-.17-2.18c-.37-1.08-.93-1.22-1.14-2.24s.23-1.44-.11-1.94C203.94,212,203.39,211.67,201.93,211.82Z"></path><path class="cls-59" d="M166.61,218.27c-.4.78,2,3.12-2.83.34a4.17,4.17,0,0,1-2.25-2c-.63-1.44.51-2.37-.25-3.63-.41-.68-1-.78-1.18-1.6-.15-.58-.08-1.31.2-1.41s.66.69,1.81,1.88,1.37,1,2.2,2c.34.43.51.72,1.25,1.65a6.08,6.08,0,0,1,.55.71C166.37,216.68,166.94,217.64,166.61,218.27Z"></path><path class="cls-60" d="M162.93,218.24a8.49,8.49,0,0,1-3.79-2.75,9.16,9.16,0,0,1-1.33-2.75c-.27-.73-.36-1.17-.14-1.47s.79-.33,1.18-.33a3.85,3.85,0,0,1,1.8.47c1.48.83,2.37,2.34,3.65,4,1.86,2.46,2.94,3.14,2.7,3.55C166.86,219.24,166.22,219.46,162.93,218.24Z"></path><path id="_Clipping_Path_10" data-name="&lt;Clipping Path&gt;" class="cls-61" d="M209,231.24a19.37,19.37,0,0,0,1.64,7.1c1.25,3.21,2.24,6.53,3.67,9.67A83.19,83.19,0,0,1,220,266.84l4.28-1a48.08,48.08,0,0,0,0-7.92,66,66,0,0,0-1.73-9.33,73.58,73.58,0,0,0-2.93-10.31c-.46-1.47-.56-2.2-.89-3.6-.78-3.34-1.19-5-2.14-6.11a6.61,6.61,0,0,0-2.94-1.88c-.52-.28-2.07-1-3.25-.39C208.93,227.13,209,229.58,209,231.24Z"></path><path class="cls-62" d="M198.67,252.74l27.67,57.89,5.52-.75a157.12,157.12,0,0,0-7.09-23.33c-1.32-3.36-2.69-6.54-4.1-9.54a103.45,103.45,0,0,0-4.29-20.68q-.45-1.42-.93-2.8Z"></path><path id="_Clipping_Path_11" data-name="&lt;Clipping Path&gt;" class="cls-4" d="M165.93,215.43c4.54,4.1,7.88,6,10.65,7.14a38.47,38.47,0,0,0,6.12,1.72A77.15,77.15,0,0,0,194.59,226c2.73-.28,5-.39,6.8-.45,1.37,0,2.91,0,6,0a25.73,25.73,0,0,1,5.05.59,8.93,8.93,0,0,1,1.55.5,8.84,8.84,0,0,1,2.26,1.41,40,40,0,0,1,.59,7.63c0,2.21-.25,3.59-.52,6.2-.23,2.3-.51,5.58-.67,9.63l-.18,2a41.15,41.15,0,0,1-12.3.11,40.46,40.46,0,0,1-4.47-.9l.22-2c-.2-1-.48-2.26-.86-3.78-.54-2.2-.82-3.3-1.26-4.57-.8-2.28-1.27-2.78-2.32-5.71-.33-.92-.58-1.69-.73-2.17A39.27,39.27,0,0,1,178.57,231a52.33,52.33,0,0,1-10.49-6.76,68,68,0,0,1-5.34-4.66Z"></path><g class="cls-63"><path class="cls-64" d="M216,254.06H198.09l.79-3.28a79.19,79.19,0,0,0,17.13.56Z"></path><path class="cls-65" d="M194,235c1.21-.59,4,1.57,5.3,4.32,1.35,2.92-.1,4.23,1,7.18,1.59,4.29,6,5.22,5.64,6.41s-6.33,1.95-9.68-1.06c-2.3-2.07-2.49-5.46-2.87-12.23C193.13,235.94,193.47,235.21,194,235Z"></path></g><path class="cls-66" d="M198.67,252.46q.14,11,.09,22.24-.1,21.51-.91,42h6.21A93.19,93.19,0,0,0,208.34,283a59.42,59.42,0,0,1,4.31-15.28,29,29,0,0,0,2.74-9.6,26.84,26.84,0,0,0,0-4.56Z"></path><path id="_Clipping_Path_12" data-name="&lt;Clipping Path&gt;" class="cls-5" d="M198.84,316.36a0,0,0,0,1,0,0c-.11.05-.42-.92-.86-1.12-.84-.38-2.23,2.14-4.69,3.76a10.26,10.26,0,0,1-3.08,1.35.74.74,0,0,0-.56.72v.7h14.95a12.88,12.88,0,0,0-1-5.43Z"></path><g class="cls-67"><path class="cls-68" d="M204.51,319.08a3,3,0,0,0-3,3h3.09v-2.95Z"></path></g><path id="_Clipping_Path_13" data-name="&lt;Clipping Path&gt;" class="cls-5" d="M227,310.15a0,0,0,0,1,0,0c-.09.08-.64-.79-1.11-.87-.91-.16-1.63,2.62-3.62,4.8a10.26,10.26,0,0,1-2.65,2.07.74.74,0,0,0-.36.83l.17.68L233.88,314a12.88,12.88,0,0,0-2.32-5Z"></path><g class="cls-69"><path class="cls-68" d="M233.14,311.38A3,3,0,0,0,231,315l3-.76-.73-2.85Z"></path></g></g></g></g></svg> 