<?xml version="1.0" encoding="UTF-8"?> <svg xmlns:xlink="http://www.w3.org/1999/xlink" xmlns="http://www.w3.org/2000/svg" version="1.1" viewBox="0.0 0.0 100.0 100.0" fill="none" stroke="none" stroke-linecap="square" stroke-miterlimit="10"><clipPath id="p.0"><path d="m0 0l100.0 0l0 100.0l-100.0 0l0 -100.0z" clip-rule="nonzero"></path></clipPath><g clip-path="url(#p.0)"><path fill="#7e57fc" d="m0 0l100.0 0l0 100.0l-100.0 0z" fill-rule="evenodd"></path><path fill="#000000" fill-opacity="0.0" d="m-12.0 0l112.0 0l0 110.99213l-112.0 0z" fill-rule="evenodd"></path><path stroke="#ffffff" stroke-width="1.0" stroke-linejoin="round" stroke-linecap="butt" d="m-12.0 0l112.0 0l0 110.99213l-112.0 0z" fill-rule="evenodd"></path><path fill="#ffffff" d="m44.075447 80.02731q-9.25 0 -15.078125 -3.671875q-5.828125 -3.671875 -5.828125 -11.359375q0 -4.078125 1.578125 -6.484375q1.578125 -2.421875 4.796875 -2.421875q2.28125 0 3.859375 1.296875q1.578125 1.28125 1.578125 3.40625q0 1.46875 -0.203125 2.46875q0 0.21875 -0.09375 0.890625q-0.09375 0.671875 -0.09375 1.296875q0 2.140625 2.5 3.359375q2.5 1.203125 7.65625 1.203125q5.25 0 7.96875 -1.71875q2.71875 -1.71875 2.71875 -4.640625q0 -1.734375 -1.203125 -3.078125q-1.203125 -1.34375 -3.265625 -2.375q-2.046875 -1.03125 -5.984375 -2.59375q-5.21875 -2.03125 -8.625 -3.921875q-3.40625 -1.890625 -5.9375 -5.296875q-2.515625 -3.40625 -2.515625 -8.453125q0 -5.234375 2.796875 -9.296875q2.796875 -4.078125 7.9375 -6.28125q5.15625 -2.203125 11.96875 -2.203125q5.09375 0 9.453125 1.546875q4.359375 1.53125 7.0625 4.796875q2.71875 3.265625 2.71875 8.03125q0 4.578125 -1.5625 7.21875q-1.5625 2.625 -4.8125 2.625q-2.265625 0 -3.859375 -1.453125q-1.578125 -1.453125 -1.578125 -3.53125q0 -1.390625 0.21875 -2.53125q0.1875 -1.859375 0.1875 -2.328125q0 -1.96875 -2.21875 -3.15625q-2.21875 -1.203125 -5.9375 -1.203125q-5.296875 0 -7.859375 1.78125q-2.5625 1.765625 -2.5625 4.84375q0 2.015625 1.296875 3.53125q1.3125 1.5 3.5 2.625q2.1875 1.125 6.34375 2.765625q5.140625 2.09375 8.359375 3.859375q3.234375 1.75 5.625 4.921875q2.40625 3.15625 2.40625 7.828125q0 8.5625 -6.4375 13.140625q-6.4375 4.5625 -16.875 4.5625z" fill-rule="nonzero"></path></g></svg> 