<?xml version="1.0" encoding="UTF-8"?> <svg xmlns="http://www.w3.org/2000/svg" id="logosandtypes_com" data-name="logosandtypes com" viewBox="0 0 150 150"><defs><style>.cls-1{fill:none;}.cls-2{fill:#f4e871;}.cls-3{fill:#2c2e31;}</style></defs><g id="Layer_2" data-name="Layer 2"><path id="Layer_3" data-name="Layer 3" class="cls-1" d="M0,.2H150v150H0Z" transform="translate(0 -0.2)"></path></g><path class="cls-2" d="M126.71,36.64,82.07,10.75a16.08,16.08,0,0,0-14.28,0L23.15,36.64c-3.58,2.68-6.7,8-6.7,12.5v51.34a15.09,15.09,0,0,0,7.14,12l44.64,25.89a16.1,16.1,0,0,0,14.29,0l44.64-25.89a15.12,15.12,0,0,0,7.14-12V49.14A18.67,18.67,0,0,0,126.71,36.64Z" transform="translate(0 -0.2)"></path><path class="cls-3" d="M96.8,43.79h-.45c-11.15,0-17.85-2.68-17.85-11.16H74c0,8.92-6.7,11.16-17.86,11.16h-.89C41,43.79,37,48.7,37,57.18V67.44l73.21,21.43v4.47c0,6.25-4.46,8-13.39,8h-.89c-21.43,0-19.64,8-20.09,11.16h-.45c-.44-3.12,1.34-11.16-20.08-11.16h-.45c-8.93,0-13.39-2.23-13.39-8v-8H37v7.59c0,8.48,4.47,13.39,18.31,13.39,11.16,0,17.85,2.68,17.85,11.16h4.47c0-8.93,7.14-11.16,17.85-11.16h.89c14.29,0,18.31-4.91,18.31-13.39V84L41.89,63V56.73c0-6.25,4.47-8,13.4-8h.44c21.43,0,19.64-8,20.09-11.16h.45c.44,3.12-1.34,11.16,20.08,11.16h.45c8.93,0,13.39,2.23,13.39,8v8h4.47l.44-7.59C115.1,48.7,110.64,43.79,96.8,43.79Z" transform="translate(0 -0.2)"></path></svg> 