<?xml version="1.0" encoding="UTF-8"?> <svg xmlns="http://www.w3.org/2000/svg" viewBox="0 0 50 50"><defs><style>.cls-1{fill:#fefefe;}</style></defs><title>squarespace_4</title><g id="Calque_2" data-name="Calque 2"><g id="Calque_2-2" data-name="Calque 2"><circle cx="25" cy="25" r="25"></circle><path class="cls-1" d="M42,25.17a6.35,6.35,0,0,1-1.79,4.15q-3.84,4-7.74,7.87a3.19,3.19,0,0,1-3.81.68c-.72-.35-.94-.62-.24-1.31,3.06-3,6-6.15,9.09-9.21a3.44,3.44,0,0,0,1.05-3.56A3.26,3.26,0,0,0,33,22.5c-3.22,3.21-6.4,6.47-9.6,9.7-.25.26-.49.52-.76.76a1.67,1.67,0,1,1-2.29-2.42c1-1,2.06-2.07,3.09-3.11,2.48-2.5,4.93-5,7.44-7.5a6.43,6.43,0,0,1,7.25-1.29A6.86,6.86,0,0,1,42,25.17Z"></path><path class="cls-1" d="M13.9,31.42a6.19,6.19,0,0,1-5.46-3.88,6.3,6.3,0,0,1,1.11-7.28c2.54-2.77,5.23-5.4,7.89-8.06a3.16,3.16,0,0,1,3.72-.58c.75.36.89.65.22,1.32-3.06,3-6,6.14-9.08,9.21a3.36,3.36,0,0,0-1,3.78,3.24,3.24,0,0,0,5.51,1c3.36-3.35,6.68-6.74,10-10.12,1-1,1.9-1.14,2.65-.38s.64,1.72-.33,2.7q-5,5.08-10,10.15A6.76,6.76,0,0,1,13.9,31.42Z"></path><path class="cls-1" d="M28.37,11a6.49,6.49,0,0,1,4.52,1.81,1.7,1.7,0,0,1,.19,2.43,1.64,1.64,0,0,1-2.42,0,3.24,3.24,0,0,0-4.84.3q-4.71,4.76-9.41,9.54c-.25.25-.49.52-.75.75a1.68,1.68,0,0,1-2.44.09,1.7,1.7,0,0,1,.15-2.52l7.26-7.32c1.06-1.07,2.1-2.15,3.17-3.2A6.56,6.56,0,0,1,28.37,11Z"></path><path class="cls-1" d="M21.46,38.53a6.71,6.71,0,0,1-4.6-1.85,1.59,1.59,0,0,1-.21-2.41A1.62,1.62,0,0,1,19,34.14c2.17,1.53,3.41,1.41,5.28-.48q4.85-4.9,9.66-9.81c.91-.91,1.84-1,2.57-.29s.67,1.69-.22,2.6q-5.12,5.22-10.23,10.41A6.5,6.5,0,0,1,21.46,38.53Z"></path></g></g></svg> 