<?xml version="1.0" encoding="UTF-8"?> <!-- Generator: Adobe Illustrator 19.0.0, SVG Export Plug-In . SVG Version: 6.00 Build 0) --> <svg xmlns="http://www.w3.org/2000/svg" xmlns:xlink="http://www.w3.org/1999/xlink" version="1.1" id="Layer_1" x="0px" y="0px" viewBox="0 0 512 512" style="enable-background:new 0 0 512 512;" xml:space="preserve"> <polygon style="fill:#EBEDEC;" points="499.808,128.943 499.808,454.832 12.193,454.832 12.193,128.943 256.001,92.348 "></polygon> <rect x="418.853" y="57.168" style="fill:#EE3840;" width="80.96" height="71.775"></rect> <rect x="12.193" y="55.948" style="fill:#4C5870;" width="406.654" height="71.775"></rect> <g> <path style="fill:#11113F;" d="M162.534,275.376h181.755c6.737,0,12.198-5.461,12.198-12.198c0-6.737-5.461-12.198-12.198-12.198 H162.534c-6.737,0-12.198,5.461-12.198,12.198C150.335,269.915,155.797,275.376,162.534,275.376z"></path> <path style="fill:#11113F;" d="M176.204,308.404H117.09c-6.737,0-12.198,5.461-12.198,12.198c0,6.737,5.461,12.198,12.198,12.198 h59.114c6.737,0,12.198-5.461,12.198-12.198C188.403,313.865,182.941,308.404,176.204,308.404z"></path> <path style="fill:#11113F;" d="M285.557,308.404h-59.114c-6.737,0-12.198,5.461-12.198,12.198c0,6.737,5.461,12.198,12.198,12.198 h59.114c6.737,0,12.198-5.461,12.198-12.198C297.755,313.865,292.294,308.404,285.557,308.404z"></path> <path style="fill:#11113F;" d="M394.911,308.404h-59.114c-6.737,0-12.198,5.461-12.198,12.198c0,6.737,5.461,12.198,12.198,12.198 h59.114c6.737,0,12.198-5.461,12.198-12.198C407.109,313.865,401.648,308.404,394.911,308.404z"></path> <path style="fill:#11113F;" d="M499.802,44.97H12.198C5.461,44.97,0,50.431,0,57.168v397.664c0,6.737,5.461,12.198,12.198,12.198 h487.603c6.737,0,12.198-5.461,12.198-12.198V57.168C512,50.431,506.539,44.97,499.802,44.97z M487.603,116.749h-56.552V69.366 h56.554v47.383H487.603z M406.654,69.366v47.383H24.397V69.366H406.654z M24.397,442.634V141.146h463.207v301.487H24.397V442.634z"></path> </g> <g> </g> <g> </g> <g> </g> <g> </g> <g> </g> <g> </g> <g> </g> <g> </g> <g> </g> <g> </g> <g> </g> <g> </g> <g> </g> <g> </g> <g> </g> </svg> 