<?xml version="1.0" encoding="UTF-8"?> <!-- Generator: Adobe Illustrator 24.0.2, SVG Export Plug-In . SVG Version: 6.00 Build 0) --> <svg xmlns="http://www.w3.org/2000/svg" xmlns:xlink="http://www.w3.org/1999/xlink" id="Layer_1" x="0px" y="0px" viewBox="0 0 800 500" style="enable-background:new 0 0 800 500;" xml:space="preserve"> <style type="text/css"> .st0{fill:none;stroke:#B6C2FF;stroke-miterlimit:10;stroke-dasharray:3,2.5;} .st1{fill:#D9DDF9;} .st2{fill:#E6E8FC;} .st3{fill:none;stroke:#B6C2FF;stroke-linecap:round;stroke-linejoin:round;stroke-miterlimit:10;} .st4{fill:none;stroke:#202263;stroke-width:1.5;stroke-miterlimit:10;} .st5{fill:#FFFFFF;stroke:#98A7F4;stroke-miterlimit:10;} .st6{fill:#E4E7F9;stroke:#8693F2;stroke-miterlimit:10;} .st7{fill:#FFFFFF;stroke:#F2311D;stroke-miterlimit:10;} .st8{fill:#B6C2FF;stroke:#F2311D;stroke-miterlimit:10;} .st9{fill:#CE1515;} .st10{fill:#202263;} .st11{fill:none;stroke:#F2311D;stroke-width:1.5;stroke-linecap:round;stroke-miterlimit:10;stroke-dasharray:0.0305,15.2521;} .st12{fill:#B6C2FF;} .st13{opacity:0.65;clip-path:url(#SVGID_2_);} .st14{fill:#FFFFFF;} .st15{fill:none;stroke:#FFFFFF;stroke-linejoin:round;stroke-miterlimit:10;} .st16{fill:none;stroke:#8693F2;stroke-miterlimit:10;} .st17{fill:#8693F2;} .st18{fill:#FFFFFF;stroke:#C0CBF9;stroke-miterlimit:10;} .st19{fill:none;stroke:#C0CBF9;stroke-miterlimit:10;} .st20{fill:#F2311D;} .st21{fill:none;stroke:#FFFFFF;stroke-width:1.5;stroke-linecap:round;stroke-miterlimit:10;stroke-dasharray:0.0305,15.252;} .st22{fill:#DBF1FE;} .st23{opacity:0.65;clip-path:url(#SVGID_4_);} .st24{opacity:0.45;} .st25{fill:none;stroke:#8693F2;stroke-width:0.75;stroke-miterlimit:10;} .st26{clip-path:url(#SVGID_6_);} .st27{fill:none;stroke:#F2311D;stroke-miterlimit:10;} .st28{fill:#D7DEF9;} .st29{fill:#E4E7F9;} .st30{fill:#F0F4FF;} .st31{fill:#E6EBFC;} .st32{fill:#EBEEFC;stroke:#8693F2;stroke-miterlimit:10;} .st33{fill:#172BCE;} .st34{fill:none;stroke:#202263;stroke-width:0.75;stroke-miterlimit:10;} .st35{fill:#103BB2;} .st36{fill:#22252D;} .st37{fill:none;stroke:#1F38B2;stroke-width:0.75;stroke-miterlimit:10;} .st38{fill:#F2B18F;} .st39{fill:#182270;} .st40{fill:none;stroke:#2944B7;stroke-width:0.75;stroke-linejoin:round;stroke-miterlimit:10;} .st41{fill:#212237;} .st42{fill:none;stroke:#E88872;stroke-width:0.75;stroke-linejoin:round;stroke-miterlimit:10;} .st43{fill-rule:evenodd;clip-rule:evenodd;fill:#F2B18F;} .st44{fill-rule:evenodd;clip-rule:evenodd;fill:none;stroke:#E2845A;stroke-width:0.75;stroke-miterlimit:10;} .st45{fill:#4A63FE;} .st46{fill:#C0D7FF;} .st47{fill:#EBF3FF;} .st48{fill:#232868;} .st49{fill:none;stroke:#BA140C;stroke-width:0.75;stroke-miterlimit:10;} .st50{fill:none;stroke:#E2845A;stroke-width:0.75;stroke-miterlimit:10;} .st51{fill:#FF855A;} .st52{fill:none;stroke:#103BB2;stroke-width:0.75;stroke-miterlimit:10;} .st53{fill:#FF756E;} </style> <g> <path class="st0" d="M765.51,465.56c-12.15-22-33.37-15.09-51.38-24.02c-22.86-11.33-14.22-36.8-48.45-63.24 c-28.52-22.03-56.03,2.6-88.66-13.35c-32.63-15.95-28.93-38.74-69.17-67.47c-33.64-24.02-79.37-47.66-163.32,2.82 c-25.54,15.36-38.4,56.14-87.68,51.18c-18.36-1.85-33.49-14.24-51.31-18.07c-18.83-4.04-38.08,3.93-51.34,17.81 c-20.09,21.04-11.54,55.68-32.01,75.46c-1.25,1.2-2.58,2.31-3.96,3.34c-24.74,18.23-77.98,14.45-87.27,35.53"></path> <g> <g> <path class="st1" d="M294.11,301.77c0.26-2.19,0.29-4.45,0.02-6.74s-0.79-4.48-1.55-6.56l-5.92,1.57 c-0.74-1.91-1.74-3.68-2.94-5.28l4.47-4.2c-2.79-3.55-6.39-6.41-10.48-8.33l-3.08,5.3c-1.83-0.8-3.78-1.37-5.81-1.67l0.19-6.12 c-2.19-0.26-4.45-0.29-6.74-0.02c-2.29,0.26-4.48,0.79-6.56,1.55l1.57,5.92c-1.91,0.75-3.68,1.74-5.28,2.94l-4.2-4.47 c-4.97,3.26-6.97,6.57-8.33,10.48l5.3,3.08c-0.8,1.83-1.37,3.78-1.67,5.81l-6.12-0.19c-0.26,2.19-0.29,4.45-0.02,6.74 c0.26,2.29,0.79,4.48,1.55,6.56l5.92-1.57c0.74,1.91,1.74,3.68,2.94,5.28l-4.47,4.2c2.79,3.55,6.39,6.41,10.48,8.33l3.08-5.3 c1.83,0.8,3.78,1.37,5.81,1.67l-0.19,6.12c2.19,0.26,4.45,0.29,6.74,0.02c2.29-0.26,4.48-0.79,6.56-1.55l-1.57-5.92 c1.91-0.74,3.68-1.74,5.28-2.94l4.2,4.47c3.55-2.79,6.41-6.39,8.33-10.48l-5.3-3.08c0.8-1.83,1.37-3.78,1.67-5.81L294.11,301.77z M267.14,312.08c-7.61,0.87-14.48-4.59-15.35-12.19c-0.87-7.61,4.59-14.48,12.19-15.35c7.61-0.87,14.48,4.59,15.35,12.19 C280.2,304.34,274.74,311.21,267.14,312.08z"></path> </g> <g> <path class="st1" d="M359.96,396.33c0.42-3.52,0.46-7.14,0.04-10.82c-0.42-3.68-1.27-7.19-2.48-10.53l-9.51,2.52 c-1.2-3.06-2.79-5.9-4.71-8.48l7.18-6.74c-4.48-5.7-10.25-10.29-16.82-13.36l-4.95,8.51c-2.94-1.29-6.07-2.2-9.32-2.68l0.31-9.83 c-3.52-0.42-7.14-0.46-10.82-0.04c-3.68,0.42-7.19,1.27-10.53,2.48l2.52,9.51c-3.06,1.2-5.9,2.79-8.48,4.71l-6.74-7.18 c-7.98,5.24-11.19,10.55-13.36,16.82l8.51,4.95c-1.29,2.94-2.2,6.07-2.68,9.32l-9.83-0.31c-0.42,3.52-0.46,7.14-0.04,10.82 c0.42,3.68,1.27,7.19,2.48,10.53l9.51-2.52c1.2,3.06,2.79,5.9,4.71,8.48l-7.18,6.74c4.48,5.7,10.25,10.29,16.82,13.36l4.95-8.51 c2.94,1.29,6.07,2.2,9.32,2.68l-0.31,9.83c3.52,0.42,7.14,0.46,10.81,0.04c3.68-0.42,7.19-1.27,10.53-2.48l-2.52-9.51 c3.06-1.2,5.9-2.79,8.48-4.71l6.74,7.18c5.7-4.48,10.29-10.25,13.36-16.82l-8.51-4.95c1.29-2.94,2.2-6.07,2.68-9.32 L359.96,396.33z M316.66,412.87c-12.21,1.4-23.24-7.37-24.63-19.57c-1.4-12.21,7.37-23.24,19.57-24.63 c12.21-1.4,23.24,7.37,24.63,19.57C337.63,400.44,328.86,411.47,316.66,412.87z"></path> <path class="st1" d="M328.6,389.11c0.92,8-4.82,15.22-12.82,16.14c-8,0.92-15.22-4.82-16.14-12.82 c-0.92-8,4.82-15.22,12.82-16.14C320.47,375.37,327.69,381.11,328.6,389.11z"></path> </g> <g> <path class="st2" d="M743.13,227.95c0.31-2.57,0.34-5.22,0.03-7.91c-0.31-2.69-0.93-5.26-1.82-7.7l-6.95,1.84 c-0.87-2.24-2.04-4.32-3.45-6.2l5.25-4.93c-3.28-4.17-7.5-7.53-12.3-9.78l-3.62,6.23c-2.15-0.94-4.44-1.61-6.82-1.96l0.22-7.19 c-2.57-0.31-5.22-0.34-7.91-0.03c-2.69,0.31-5.26,0.93-7.7,1.82l1.84,6.95c-2.24,0.87-4.32,2.04-6.2,3.45l-4.93-5.25 c-5.84,3.83-8.18,7.72-9.78,12.3l6.23,3.62c-0.94,2.15-1.61,4.44-1.96,6.82l-7.19-0.22c-0.31,2.57-0.34,5.22-0.03,7.91 c0.31,2.69,0.93,5.26,1.82,7.7l6.95-1.84c0.87,2.24,2.04,4.32,3.45,6.2l-5.25,4.93c3.28,4.17,7.5,7.53,12.3,9.78l3.62-6.23 c2.15,0.94,4.44,1.61,6.82,1.96l-0.22,7.19c2.57,0.31,5.22,0.34,7.91,0.03c2.69-0.31,5.26-0.93,7.7-1.82l-1.84-6.95 c2.24-0.87,4.32-2.04,6.2-3.45l4.93,5.25c4.17-3.28,7.53-7.5,9.78-12.3l-6.23-3.62c0.94-2.15,1.61-4.44,1.96-6.82L743.13,227.95z M711.46,240.05c-8.93,1.02-17-5.39-18.02-14.32c-1.02-8.93,5.39-17,14.32-18.02c8.93-1.02,17,5.39,18.02,14.32 C726.8,230.96,720.39,239.03,711.46,240.05z"></path> <path class="st2" d="M720.2,222.67c0.67,5.85-3.53,11.13-9.38,11.8c-5.85,0.67-11.13-3.53-11.8-9.38 c-0.67-5.85,3.53-11.13,9.38-11.8C714.24,212.62,719.53,216.82,720.2,222.67z"></path> </g> <g> <polygon class="st3" points="764.86,365.5 741.27,371.6 728.56,366.38 752.14,360.28 "></polygon> <polygon class="st3" points="758.46,339.9 734.88,346 722.17,340.78 745.75,334.68 "></polygon> <line class="st3" x1="758.46" y1="339.9" x2="764.86" y2="365.5"></line> <line class="st3" x1="734.62" y1="346.14" x2="741.27" y2="371.6"></line> <line class="st3" x1="721.91" y1="340.92" x2="728.56" y2="366.38"></line> <line class="st3" x1="745.49" y1="334.82" x2="752.14" y2="360.28"></line> </g> </g> <g> <g> <g> <line class="st4" x1="340.41" y1="466.39" x2="349.68" y2="362.79"></line> <line class="st4" x1="458.93" y1="466.33" x2="449.6" y2="362.74"></line> </g> <rect x="282.41" y="55.66" class="st5" width="234.31" height="312.91"></rect> <rect x="255.98" y="107.82" transform="matrix(4.686092e-04 1 -1 4.686092e-04 611.4918 -187.5564)" class="st6" width="287.18" height="208.58"></rect> </g> <g> <path class="st7" d="M399.52,100.69c0,0-52.76,27.56-52.73,80.96c0.02,45.67,19.64,118.27,19.64,118.27l33.18-0.02l33.18-0.02 c0,0,19.55-72.61,19.53-118.28C452.3,128.2,399.52,100.69,399.52,100.69z"></path> <g> <path class="st8" d="M338.69,271.16c-2.93,12.63-3.22,54.99-3.25,65.24c0,0.45,0.63,0.57,0.79,0.15 c3.52-9.25,17.98-46.14,26.34-51.14c4.32-17.28,1.71-33.45-0.02-38.6C362.55,246.81,343.91,248.68,338.69,271.16z"></path> <path class="st8" d="M460.5,271.1c2.94,12.62,3.27,54.99,3.31,65.23c0,0.45-0.63,0.57-0.79,0.15 c-3.53-9.25-18.02-46.12-26.39-51.12c-4.34-17.28-1.23-33.41-0.02-38.6C436.62,246.77,455.26,248.63,460.5,271.1z"></path> </g> <g> <g> <g> <path class="st9" d="M368.94,277.26c0,0.54-0.44,0.98-0.98,0.98c-0.54,0-0.98-0.44-0.98-0.98c0-0.54,0.44-0.98,0.98-0.98 C368.5,276.28,368.94,276.72,368.94,277.26z"></path> </g> <g> <rect x="370.75" y="276.75" class="st9" width="7.8" height="1.03"></rect> </g> </g> <g> <g> <path class="st9" d="M368.95,281.03c0,0.54-0.44,0.98-0.98,0.98c-0.54,0-0.98-0.44-0.98-0.98c0-0.54,0.44-0.98,0.98-0.98 C368.51,280.05,368.95,280.49,368.95,281.03z"></path> </g> <g> <rect x="370.75" y="280.52" class="st9" width="7.8" height="1.03"></rect> </g> </g> <g> <g> <path class="st9" d="M368.95,284.8c0,0.54-0.44,0.98-0.98,0.98c-0.54,0-0.98-0.44-0.98-0.98c0-0.54,0.44-0.98,0.98-0.98 C368.51,283.82,368.95,284.26,368.95,284.8z"></path> </g> <g> <rect x="370.76" y="284.28" class="st9" width="7.8" height="1.03"></rect> </g> </g> </g> <g> <g> <g> <path class="st9" d="M425.75,134.98c0,0.54,0.44,0.98,0.98,0.98c0.54,0,0.98-0.44,0.98-0.98c0-0.54-0.44-0.98-0.98-0.98 C426.19,134,425.75,134.44,425.75,134.98z"></path> </g> <g> <rect x="416.14" y="134.47" class="st9" width="7.8" height="1.03"></rect> </g> </g> <g> <g> <path class="st9" d="M425.76,138.75c0,0.54,0.44,0.98,0.98,0.98c0.54,0,0.98-0.44,0.98-0.98c0-0.54-0.44-0.98-0.98-0.98 C426.2,137.76,425.76,138.2,425.76,138.75z"></path> </g> <g> <rect x="416.15" y="138.24" class="st9" width="7.8" height="1.03"></rect> </g> </g> <g> <g> <path class="st9" d="M425.76,142.52c0,0.54,0.44,0.98,0.98,0.98c0.54,0,0.98-0.44,0.98-0.98c0-0.54-0.44-0.98-0.98-0.98 C426.2,141.53,425.76,141.97,425.76,142.52z"></path> </g> <g> <rect x="416.15" y="142.01" class="st9" width="7.8" height="1.03"></rect> </g> </g> </g> <g> <path class="st10" d="M428.88,180.44c0.01,16.2-13.11,29.33-29.31,29.34c-16.2,0.01-29.33-13.11-29.34-29.31 c-0.01-16.19,13.11-29.33,29.31-29.34C415.73,151.12,428.87,164.24,428.88,180.44z"></path> <g> <ellipse transform="matrix(0.7401 -0.6725 0.6725 0.7401 -17.5075 315.5965)" class="st11" cx="399.55" cy="180.45" rx="26.76" ry="26.76"></ellipse> </g> <ellipse transform="matrix(0.7383 -0.6745 0.6745 0.7383 -17.1415 316.7212)" class="st12" cx="399.55" cy="180.45" rx="24.23" ry="24.23"></ellipse> <g> <defs> <ellipse id="SVGID_1_" transform="matrix(0.9682 -0.2504 0.2504 0.9682 -32.4522 105.7767)" cx="399.55" cy="180.45" rx="24.23" ry="24.23"></ellipse> </defs> <clipPath id="SVGID_2_"> <use xlink:href="#SVGID_1_" style="overflow:visible;"></use> </clipPath> <g class="st13"> <rect x="395.94" y="152.17" transform="matrix(0.7411 0.6714 -0.6714 0.7411 226.4266 -222.4639)" class="st14" width="11.49" height="60.41"></rect> <rect x="407.72" y="158.62" transform="matrix(0.7411 0.6714 -0.6714 0.7411 232.6006 -225.5792)" class="st14" width="2.18" height="60.41"></rect> <rect x="391.45" y="145.15" transform="matrix(0.7411 0.6714 -0.6714 0.7411 219.5603 -218.6703)" class="st14" width="3.72" height="60.41"></rect> </g> </g> </g> <path class="st8" d="M399.59,251.98c-4.38-0.77-10.34,15.53-10.33,30.23c0.01,12.72,7.76,45.63,9.86,54.29 c0.09,0.38,0.64,0.33,0.67-0.06C400.71,323.13,405.33,253,399.59,251.98z"></path> <path class="st8" d="M370.47,124h58.14c-14.03-15.45-29.09-23.31-29.09-23.31S384.48,108.55,370.47,124z"></path> </g> <g> <g> <line class="st15" x1="448.08" y1="81.44" x2="469.3" y2="81.43"></line> <line class="st15" x1="448.08" y1="85.32" x2="481.9" y2="85.3"></line> <line class="st15" x1="448.08" y1="89.2" x2="481.9" y2="89.18"></line> <line class="st15" x1="448.09" y1="93.08" x2="481.91" y2="93.06"></line> </g> <g> <line class="st15" x1="314.13" y1="120.12" x2="335.35" y2="120.11"></line> <line class="st15" x1="314.13" y1="124" x2="347.95" y2="123.98"></line> <line class="st15" x1="314.13" y1="127.88" x2="347.95" y2="127.86"></line> <line class="st15" x1="314.13" y1="131.76" x2="347.95" y2="131.74"></line> </g> <g> <line class="st15" x1="479.11" y1="165.52" x2="490.9" y2="165.52"></line> <line class="st15" x1="456.99" y1="169.41" x2="490.81" y2="169.4"></line> <line class="st15" x1="456.99" y1="173.29" x2="490.81" y2="173.28"></line> <line class="st15" x1="456.99" y1="177.17" x2="490.81" y2="177.16"></line> </g> <g> <line class="st15" x1="328.17" y1="231.5" x2="339.96" y2="231.5"></line> <line class="st15" x1="306.04" y1="235.39" x2="339.87" y2="235.38"></line> <line class="st15" x1="306.05" y1="239.27" x2="339.87" y2="239.25"></line> <line class="st15" x1="306.05" y1="243.15" x2="339.87" y2="243.13"></line> </g> <g> <line class="st15" x1="433.06" y1="328.99" x2="411.99" y2="329"></line> <line class="st15" x1="445.9" y1="332.86" x2="412.08" y2="332.87"></line> <line class="st15" x1="445.9" y1="336.74" x2="412.08" y2="336.75"></line> <line class="st15" x1="445.9" y1="340.62" x2="412.08" y2="340.63"></line> </g> <g> <polyline class="st16" points="398.92,277.03 427.39,277.02 427.42,322.71 "></polyline> <path class="st17" d="M398.92,275.35c-0.93,0-1.68,0.75-1.68,1.67c0,0.92,0.75,1.67,1.68,1.67c0.93,0,1.68-0.75,1.68-1.67 C400.6,276.1,399.85,275.35,398.92,275.35z"></path> </g> <g> <polyline class="st16" points="409.54,114.28 409.53,89.22 442.59,89.2 "></polyline> </g> <g> <polyline class="st16" points="356.49,190.54 328.15,190.55 328.12,138.79 "></polyline> </g> <g> <polyline class="st16" points="342.31,297.78 320.64,297.8 320.61,248.62 "></polyline> <path class="st17" d="M342.31,296.13c-0.93,0-1.68,0.75-1.68,1.67c0,0.92,0.75,1.67,1.68,1.67c0.93,0,1.68-0.75,1.68-1.67 C343.98,296.88,343.23,296.13,342.31,296.13z"></path> </g> <g> <polyline class="st16" points="404.32,196.89 473.91,196.86 473.9,184.63 "></polyline> </g> <path class="st17" d="M356.49,188.88c-0.93,0-1.68,0.75-1.68,1.67c0,0.92,0.75,1.67,1.68,1.67c0.93,0,1.68-0.75,1.68-1.67 C358.17,189.63,357.41,188.88,356.49,188.88z"></path> <path class="st17" d="M404.43,195.21c-0.93,0-1.68,0.75-1.68,1.67c0,0.92,0.75,1.67,1.68,1.67c0.93,0,1.68-0.75,1.68-1.67 C406.11,195.96,405.36,195.21,404.43,195.21z"></path> <path class="st17" d="M409.53,112.61c-0.93,0-1.68,0.75-1.68,1.67c0,0.92,0.75,1.67,1.68,1.67c0.93,0,1.68-0.75,1.68-1.67 C411.21,113.35,410.46,112.61,409.53,112.61z"></path> </g> </g> <g> <g> <polygon class="st18" points="179.87,99.58 75.62,99.58 75.62,268.23 208.01,268.23 208.01,129.91 "></polygon> <polyline class="st18" points="179.86,106.86 82.91,106.86 82.91,260.94 200.73,260.94 200.73,129.62 "></polyline> <polyline class="st19" points="179.87,99.58 179.87,129.82 208.01,129.91 "></polyline> </g> <g> <path class="st20" d="M171.14,194.32c0.01,16.19-13.11,29.33-29.31,29.34c-16.19,0.01-29.33-13.11-29.34-29.31 c-0.01-16.19,13.11-29.33,29.31-29.34C158,165,171.13,178.13,171.14,194.32z"></path> <g> <ellipse transform="matrix(0.7599 -0.65 0.65 0.7599 -92.2756 138.8466)" class="st21" cx="141.82" cy="194.34" rx="26.76" ry="26.76"></ellipse> </g> <ellipse transform="matrix(0.1814 -0.9834 0.9834 0.1814 -75.0205 298.5469)" class="st22" cx="141.82" cy="194.34" rx="24.23" ry="24.23"></ellipse> <g> <defs> <ellipse id="SVGID_3_" transform="matrix(0.9976 -0.0699 0.0699 0.9976 -13.2304 10.3826)" cx="141.82" cy="194.34" rx="24.23" ry="24.23"></ellipse> </defs> <clipPath id="SVGID_4_"> <use xlink:href="#SVGID_3_" style="overflow:visible;"></use> </clipPath> <g class="st23"> <rect x="138.2" y="166.06" transform="matrix(0.7411 0.6714 -0.6714 0.7411 169.0261 -45.8343)" class="st14" width="11.49" height="60.41"></rect> <rect x="149.98" y="172.5" transform="matrix(0.7411 0.6714 -0.6714 0.7411 175.2165 -48.9463)" class="st14" width="2.18" height="60.41"></rect> <rect x="133.72" y="159.03" transform="matrix(0.7411 0.6714 -0.6714 0.7411 162.1487 -42.033)" class="st14" width="3.72" height="60.41"></rect> </g> </g> </g> <g class="st24"> <line class="st19" x1="111.71" y1="114.74" x2="171.93" y2="114.74"></line> <line class="st19" x1="108.23" y1="118.65" x2="175.41" y2="118.65"></line> </g> <g> <g> <line class="st19" x1="176.6" y1="141.15" x2="188.04" y2="141.14"></line> <line class="st19" x1="176.6" y1="145.02" x2="194.83" y2="145.02"></line> <line class="st19" x1="176.6" y1="148.9" x2="194.83" y2="148.89"></line> <line class="st19" x1="176.6" y1="152.78" x2="194.83" y2="152.77"></line> </g> <g> <polyline class="st25" points="165.65,181.46 177.05,181.48 177.05,157.1 "></polyline> </g> <path class="st17" d="M165.65,179.79c-0.93,0-1.68,0.75-1.68,1.67c0,0.92,0.75,1.67,1.68,1.67c0.93,0,1.68-0.75,1.68-1.67 C167.32,180.54,166.57,179.79,165.65,179.79z"></path> </g> <g> <g> <line class="st19" x1="107.62" y1="135.42" x2="96.18" y2="135.41"></line> <line class="st19" x1="107.61" y1="139.3" x2="89.38" y2="139.29"></line> <line class="st19" x1="107.61" y1="143.17" x2="89.38" y2="143.17"></line> <line class="st19" x1="107.61" y1="147.05" x2="89.38" y2="147.05"></line> </g> <g> <polyline class="st25" points="127.05,183.13 107.16,183.16 107.16,151.37 "></polyline> </g> <path class="st17" d="M127.06,181.46c0.93,0,1.68,0.75,1.68,1.67c0,0.92-0.75,1.67-1.68,1.67c-0.93,0-1.68-0.75-1.68-1.67 C125.38,182.21,126.13,181.46,127.06,181.46z"></path> </g> <g> <g> <line class="st19" x1="122.39" y1="230.79" x2="110.95" y2="230.78"></line> <line class="st19" x1="122.39" y1="234.67" x2="104.15" y2="234.66"></line> <line class="st19" x1="122.38" y1="238.55" x2="104.15" y2="238.54"></line> <line class="st19" x1="122.38" y1="242.43" x2="104.15" y2="242.42"></line> </g> <g> <polyline class="st25" points="133.47,213.31 133.5,245.97 101.71,245.97 "></polyline> </g> <path class="st17" d="M131.8,213.3c0-0.93,0.75-1.68,1.67-1.68c0.92,0,1.67,0.75,1.67,1.68c0,0.93-0.75,1.68-1.67,1.68 C132.55,214.98,131.8,214.22,131.8,213.3z"></path> </g> </g> <g> <g> <polygon class="st18" points="625.16,101.15 551.72,101.15 551.72,219.97 644.99,219.97 644.99,122.52 "></polygon> <polyline class="st18" points="625.15,106.29 556.85,106.29 556.85,214.84 639.86,214.84 639.86,122.32 "></polyline> <polyline class="st19" points="625.16,101.15 625.16,122.46 644.99,122.52 "></polyline> </g> <g> <g> <defs> <path id="SVGID_5_" d="M633,197.21c-0.02-35.07-34.68-53.14-34.68-53.14s-34.65,18.1-34.63,53.17"></path> </defs> <clipPath id="SVGID_6_"> <use xlink:href="#SVGID_5_" style="overflow:visible;"></use> </clipPath> <g class="st26"> <path class="st20" d="M577.95,158.81l40.76-0.02c-9.95-10.72-20.39-16.16-20.39-16.16S587.89,148.08,577.95,158.81z"></path> </g> <g class="st26"> <rect x="576.87" y="157.94" class="st20" width="44.17" height="1.71"></rect> </g> </g> <g> <g> <g> <path class="st12" d="M615.56,162.02c0,0.36,0.29,0.65,0.65,0.65c0.36,0,0.65-0.29,0.65-0.65c0-0.36-0.29-0.65-0.65-0.65 C615.84,161.38,615.56,161.67,615.56,162.02z"></path> </g> <g> <rect x="609.24" y="161.69" class="st12" width="5.12" height="0.67"></rect> </g> </g> <g> <g> <path class="st12" d="M615.56,164.5c0,0.36,0.29,0.65,0.65,0.65c0.36,0,0.65-0.29,0.65-0.65c0-0.36-0.29-0.65-0.65-0.65 C615.85,163.85,615.56,164.14,615.56,164.5z"></path> </g> <g> <rect x="609.25" y="164.16" class="st12" width="5.12" height="0.67"></rect> </g> </g> <g> <g> <path class="st12" d="M615.56,166.97c0,0.36,0.29,0.65,0.65,0.65c0.36,0,0.65-0.29,0.65-0.65s-0.29-0.65-0.65-0.65 C615.85,166.33,615.56,166.62,615.56,166.97z"></path> </g> <g> <rect x="609.25" y="166.64" class="st12" width="5.12" height="0.67"></rect> </g> </g> </g> <path class="st27" d="M628.59,176.3c-9.34-21.32-30.26-32.23-30.26-32.23S577.43,155,568.1,176.3H628.59z"></path> </g> <g> <g> <line class="st19" x1="618.86" y1="131.89" x2="628" y2="131.88"></line> <line class="st19" x1="618.87" y1="135.55" x2="633.43" y2="135.55"></line> <line class="st19" x1="618.87" y1="139.22" x2="633.43" y2="139.21"></line> <line class="st19" x1="618.87" y1="142.89" x2="633.43" y2="142.88"></line> </g> <g> <polyline class="st25" points="607.31,162.92 607.3,139.24 615.56,139.23 "></polyline> </g> <path class="st17" d="M607.3,161.34c-0.88,0-1.59,0.71-1.59,1.58c0,0.87,0.71,1.58,1.59,1.58c0.88,0,1.59-0.71,1.59-1.58 C608.89,162.05,608.18,161.34,607.3,161.34z"></path> </g> <g> <g> <line class="st19" x1="577.78" y1="121.38" x2="568.64" y2="121.38"></line> <line class="st19" x1="577.77" y1="125.05" x2="563.21" y2="125.04"></line> <line class="st19" x1="577.77" y1="128.71" x2="563.21" y2="128.71"></line> <line class="st19" x1="577.77" y1="132.38" x2="563.21" y2="132.37"></line> </g> <g> <polyline class="st25" points="589.33,152.41 589.34,141.21 563.49,141.19 563.49,135.55 "></polyline> </g> <path class="st17" d="M589.34,150.84c0.88,0,1.59,0.71,1.59,1.58c0,0.87-0.71,1.58-1.59,1.58c-0.88,0-1.59-0.71-1.59-1.58 C587.75,151.54,588.46,150.83,589.34,150.84z"></path> </g> <g> <g> <line class="st19" x1="608.27" y1="202.74" x2="617.41" y2="202.74"></line> <line class="st19" x1="608.28" y1="199.07" x2="622.84" y2="199.08"></line> <line class="st19" x1="608.28" y1="195.41" x2="622.84" y2="195.41"></line> <line class="st19" x1="608.28" y1="191.74" x2="622.84" y2="191.75"></line> </g> <g> <polyline class="st25" points="594.33,171.47 594.33,202.5 604.52,202.51 "></polyline> </g> <path class="st17" d="M594.32,173.05c-0.88,0-1.59-0.71-1.59-1.58c0-0.87,0.71-1.58,1.59-1.58c0.88,0,1.59,0.71,1.59,1.58 C595.91,172.34,595.2,173.05,594.32,173.05z"></path> </g> </g> <g> <g> <path class="st28" d="M62.62,368.74l7.64,9.35l-1.83,5.93L61.81,385l-7.64-9.35c-1.4,3.6-0.88,7.83,1.74,11.04 c3.88,4.74,10.87,5.45,15.61,1.57c4.74-3.88,5.45-10.87,1.57-15.61C70.47,369.44,66.43,368.09,62.62,368.74z"></path> <rect x="79.54" y="381.47" transform="matrix(0.7742 -0.6329 0.6329 0.7742 -236.9774 145.1781)" class="st28" width="10.91" height="46.56"></rect> <path class="st28" d="M97.58,420.14c-4.74,3.88-5.45,10.87-1.57,15.61c3.88,4.74,10.87,5.45,15.61,1.57s5.45-10.87,1.57-15.61 C109.31,416.96,102.32,416.26,97.58,420.14z M110.95,427.69l-2.28,6.02l-6.35,1.04l-4.07-4.98l2.28-6.02l6.35-1.04L110.95,427.69 z"></path> </g> <g> <path class="st28" d="M139.39,445.73l3.59-12.55l6.4-2.03l4.94,5.28l-3.59,12.55c4.06-0.98,7.5-4.05,8.73-8.36 c1.82-6.37-1.86-13.01-8.23-14.83c-6.37-1.82-13.01,1.86-14.83,8.23C135.17,438.33,136.46,442.75,139.39,445.73z"></path> <rect x="132.4" y="397.76" transform="matrix(0.2752 -0.9614 0.9614 0.2752 -273.8626 444.0531)" class="st28" width="50.34" height="11.8"></rect> <path class="st28" d="M163.49,382.99c6.37,1.82,13.01-1.86,14.83-8.23c1.82-6.37-1.86-13.01-8.23-14.83 c-6.37-1.82-13.01,1.86-14.83,8.23C153.44,374.53,157.12,381.17,163.49,382.99z M161.95,366.46l6.75-1.69l4.84,5l-1.91,6.69 l-6.75,1.69l-4.84-5L161.95,366.46z"></path> </g> <g> <path class="st29" d="M70.73,357.11l28.23-7.32l23.6,96.04c0,0-1.72,5.86-10.47,8.19c-8.75,2.33-14.28-1.6-14.28-1.6 L70.73,357.11z"></path> <path class="st30" d="M80.39,343.45c0,0,14.15-3.33,18.04,3.91c3.89,7.25-3.54,12.06-9.95,14.2c-6.4,2.14-18.88,2.49-17.27-6.73 c1.42-8.1,14.57-9.11,17.72-7.12c3.15,1.99,3.89,7.25-4.56,9.06c-8.45,1.82-5.88-5.66-1.5-6.27"></path> <path class="st31" d="M79.09,355.81c0,0,2.97,3.19,8.55,0.29c6.13-3.19,4.99-13.22-9.05-8.44c-14.16,4.82-7.3,16.41,2.53,15.44 L79.09,355.81z"></path> <path class="st14" d="M84.06,357.41l-1.85-6.95c0,0-4.2,1.95-3.68,4.51C79.18,358.13,84.06,357.41,84.06,357.41z"></path> <path class="st28" d="M78.58,355.21l2.09,7.96c6.9-0.16,12.68-3.75,12.68-3.75l-2.41-9.06c0,0,0.73,4.43-4.75,6.27 C80.71,358.48,78.58,355.21,78.58,355.21z"></path> </g> <g> <path class="st29" d="M123.31,352.54l26.19,4.97l-18.01,88.56c0,0-3.71,4.17-11.85,2.68c-8.14-1.49-11.18-6.9-11.18-6.9 L123.31,352.54z"></path> <path class="st30" d="M136.63,345.03c0,0,12.99,2.77,13.38,10.28c0.39,7.51-7.64,8.58-13.76,7.85 c-6.13-0.73-16.57-5.31-11.64-12.31c4.34-6.14,15.6-1.84,17.42,1.04c1.82,2.88,0.39,7.51-7.31,5.71 c-7.69-1.8-2.65-6.97,1.21-5.76"></path> <path class="st31" d="M130.73,354.74c0,0,1.21,3.79,6.95,3.58c6.31-0.24,9.29-8.97-4.18-10.5c-13.58-1.54-12.44,10.71-3.94,13.74 L130.73,354.74z"></path> <path class="st14" d="M134.21,358l1.18-6.47c0,0-4.23-0.03-4.8,2.29C129.9,356.69,134.21,358,134.21,358z"></path> <path class="st28" d="M130.54,354.04l-1.38,7.4c5.77,2.56,11.94,1.86,11.94,1.86l1.55-8.43c0,0-1.13,3.94-6.37,3.33 C131.02,357.57,130.54,354.04,130.54,354.04z"></path> </g> <g> <path class="st29" d="M208.46,352.49l25.35,8.23l-29.02,85.59c0,0-4.2,3.67-12.09,1.16c-7.89-2.5-10.22-8.25-10.22-8.25 L208.46,352.49z"></path> <path class="st30" d="M222.62,346.72c0,0,12.54,4.39,11.98,11.88c-0.56,7.49-8.66,7.55-14.64,6.05 c-5.99-1.5-15.77-7.36-9.99-13.67c5.07-5.55,15.71,0.14,17.15,3.23c1.44,3.08-0.56,7.49-7.97,4.74c-7.4-2.76-1.75-7.25,1.92-5.57 "></path> <path class="st31" d="M215.54,355.6c0,0,0.72,3.92,6.44,4.43c6.29,0.56,10.34-7.73-2.83-10.95c-13.28-3.24-13.69,9.06-5.64,13.14 L215.54,355.6z"></path> <path class="st14" d="M218.58,359.28l1.99-6.27c0,0-4.2-0.57-5.05,1.67C214.47,357.43,218.58,359.28,218.58,359.28z"></path> <path class="st28" d="M215.44,354.89l-2.3,7.16c5.4,3.27,11.61,3.34,11.61,3.34l2.59-8.17c0,0-1.61,3.77-6.74,2.5 C215.47,358.46,215.44,354.89,215.44,354.89z"></path> </g> <g> <rect x="80.01" y="412.56" class="st32" width="90.16" height="53.83"></rect> <rect x="169.27" y="412.56" class="st6" width="49.34" height="53.83"></rect> <polygon class="st5" points="149.98,438.53 60.24,438.53 79.53,412.56 169.27,412.56 "></polygon> <polygon class="st5" points="180.28,438.53 229.87,438.53 218.62,412.56 169.03,412.56 "></polygon> </g> </g> <g> <line class="st3" x1="43.73" y1="311.5" x2="58.73" y2="311.5"></line> <line class="st3" x1="396.41" y1="394.78" x2="411.41" y2="394.78"></line> <line class="st3" x1="420.73" y1="394.78" x2="433.28" y2="394.78"></line> <line class="st3" x1="57.36" y1="304.91" x2="66.29" y2="304.91"></line> <line class="st3" x1="701.76" y1="129.78" x2="716.76" y2="129.78"></line> <line class="st3" x1="687.19" y1="129.78" x2="696.13" y2="129.78"></line> <path class="st3" d="M768.26,276.6c0,1.52-1.23,2.74-2.74,2.74c-1.52,0-2.74-1.23-2.74-2.74c0-1.52,1.23-2.74,2.74-2.74 C767.03,273.86,768.26,275.09,768.26,276.6z"></path> <circle class="st3" cx="539.81" cy="79.91" r="2.74"></circle> <path class="st3" d="M49.22,239.84c0,1.52-1.23,2.74-2.74,2.74s-2.74-1.23-2.74-2.74c0-1.52,1.23-2.74,2.74-2.74 S49.22,238.33,49.22,239.84z"></path> <circle class="st3" cx="169.48" cy="77.16" r="2.74"></circle> <circle class="st3" cx="402.14" cy="420.62" r="2.74"></circle> <circle class="st3" cx="320.61" cy="36.32" r="2.74"></circle> <g> <line class="st3" x1="676.67" y1="151.82" x2="676.67" y2="159.52"></line> <line class="st3" x1="680.52" y1="155.67" x2="672.82" y2="155.67"></line> </g> <g> <line class="st3" x1="607.24" y1="247.57" x2="607.24" y2="255.28"></line> <line class="st3" x1="611.09" y1="251.42" x2="603.39" y2="251.42"></line> </g> <g> <line class="st3" x1="261.85" y1="421.7" x2="261.85" y2="429.4"></line> <line class="st3" x1="265.7" y1="425.55" x2="258" y2="425.55"></line> </g> <g> <line class="st3" x1="246.81" y1="116.29" x2="246.81" y2="123.99"></line> <line class="st3" x1="250.67" y1="120.14" x2="242.96" y2="120.14"></line> </g> </g> <g> <g id="XMLID_555_"> <polygon id="XMLID_557_" class="st33" points="652.87,466.08 650.22,466.08 653.8,386.61 659.95,386.61 "></polygon> <g> <line class="st34" x1="684.52" y1="386.61" x2="700.98" y2="466.39"></line> <line class="st34" x1="626.21" y1="386.61" x2="609.76" y2="466.39"></line> <path id="XMLID_556_" class="st20" d="M634.02,350.65c0,3.97,0.17,15.67-3.72,20.47c-4.28,5.28-9.44,2.78-18.15,6.75 c-5.75,2.62-4.84,15.94,5.29,15.94c21.34,0,38.92,0,69.37,0c30.46,0,35.54-38.24,31.92-74.7 c-3.41-34.29-22.21-46.79-43.66-45.98C649.29,274.1,634.02,306.29,634.02,350.65z"></path> </g> </g> <g> <g> <g> <rect x="627.73" y="464.47" transform="matrix(-1 7.675479e-04 -7.675479e-04 -1 1292.0658 930.0618)" class="st35" width="36.24" height="1.62"></rect> <path class="st36" d="M658.82,451.07l3.14,0.74c0,0,1.2,4.1,1.66,6.95c0.46,2.85,0.36,5.69,0.36,5.69l-36.24,0.03 c0,0,0.95-3.14,9.6-8.21c3.41-2,5.14-4.28,5.14-4.28L658.82,451.07z"></path> <line class="st37" x1="638.99" y1="455.18" x2="641.25" y2="457.87"></line> <line class="st37" x1="636.3" y1="456.95" x2="638.56" y2="459.63"></line> <line class="st37" x1="633.79" y1="458.56" x2="636.05" y2="461.25"></line> <path class="st38" d="M662.55,438.03l-0.6,13.78c0,0-1.52,1.84-7.68,1.84c-6.15,0-11.81-1.66-11.81-1.66l-1.22-18.59"></path> </g> <g> <rect x="587.02" y="461.22" transform="matrix(-0.9805 0.1964 -0.1964 -0.9805 1289.2584 796.1926)" class="st35" width="36.24" height="1.62"></rect> <path class="st36" d="M615.08,445.57l3.22,0.11c0,0,1.98,3.78,2.99,6.49c1.01,2.71,1.47,5.51,1.47,5.51l-35.54,7.12 c0,0,0.31-3.27,7.8-9.93c2.95-2.62,4.21-5.2,4.21-5.2L615.08,445.57z"></path> <line class="st37" x1="597.34" y1="452.49" x2="600.1" y2="454.65"></line> <line class="st37" x1="595.07" y1="454.77" x2="597.84" y2="456.93"></line> <line class="st37" x1="592.94" y1="456.87" x2="595.71" y2="459.03"></line> <path class="st38" d="M613.4,432.98l4.89,12.69c0,0-1.13,2.1-7.17,3.31c-6.04,1.21-11.91,0.68-11.91,0.68l-7.92-16.86"></path> </g> <path class="st39" d="M643.8,337.17c0,0-51.4,5.26-66.41,24.99C562.38,381.88,588,448.43,588,448.43l28.91-9.76 c0,0-15.07-47.6-10.36-57.56c4.72-9.96,48.58-7.83,48.58-7.83l28.62-38.99"></path> <path class="st39" d="M697.18,337.17c0,0,7.37,13.53,1.82,28.6c-4.85,13.17-21.48,5.77-30.49,11.25 c-9.01,5.48-4.23,69.26-4.23,69.26l-30.66,0.25c0,0-9.04-60.84-1.32-80.76c7.72-19.92,34.32-26.78,34.32-26.78"></path> <path class="st40" d="M678.5,342.3c1.26,6.34,13.72,4.99,13.72,4.99"></path> <path class="st40" d="M656.71,342.3c-19.93,9.86-25.77,20.51-26.86,30.78"></path> <path class="st40" d="M688.89,340.07c0,0,7.66,10.56,2.11,20.86c-5.55,10.3-24.89,3.72-30.14,14.14c-5.25,10.42-0.76,71-0.76,71 "></path> <path class="st40" d="M632.12,364.36c0,0-27.8,4.91-31.76,15.24c-3.96,10.32,12.46,60.46,12.46,60.46"></path> </g> <g> <path class="st38" d="M651.46,235.07c0,0-6.82,11.98-3.44,16.84c1.76,2.53,7.99,3.99,11.04,2.32 c2.26-1.24,6.91-10.56,6.08-12.48C661.97,234.44,651.46,235.07,651.46,235.07z"></path> <path class="st38" d="M665.53,250.03l1.25,14.14c0,0-10.29,7.86-16.39-1.05l0.82-11.17L665.53,250.03z"></path> <path class="st41" d="M669.19,247.89c0.94-2.64,1.77-4.04,2.07-7.22c0.31-3.33-2.43-4.17-2.43-4.17s0.48,0.35-1.11-2.45 c-1.5-2.64-6.1-2.3-8.89-2.62c-3.67-0.41-7.07-2.68-9.16-1.14c-0.91,0.67-2.77,5.58,0.27,7.09c1.74,0.86,4.5,0.2,6.47,0.41 c3.68,0.4,6.37,1.41,6.93,3.71c0.31,1.28-0.05,2.44-0.34,3.38c-0.14,0.44-0.22,0.79-0.28,1.1l1.5,0.97 c1.91,1.16-1.96,4.59-1.59,6.12c0.2,0.81,1.85,1.08,3.26,0.34C667.29,252.7,668.16,250.77,669.19,247.89z"></path> <path class="st38" d="M663.28,247.15c1.56-1.77,2.73-1.41,3.32-0.36c0.78,1.4-1.1,4.12-1.93,4.56 c-1.68,0.88-2.99,0.71-3.05-0.62"></path> <path class="st42" d="M651.02,254.64c5.14,1.16,8.61-0.83,8.61-0.83"></path> </g> <g> <path class="st43" d="M622.23,276.45c0,0-16.83,12.08-20.02,12.08c-3.12,0-22.26-25.64-22.26-25.64l-8.99,5.75 c0,0,18.58,41.83,31.38,42.11c12.8,0.28,33.39-16.71,33.39-16.71l-5.3-22.26"></path> <g> <g> <path class="st43" d="M574.11,272.4l7.86-6.45c-2.6-6.1-11.26-20.79-12.56-20.18c-1.31,0.61,2.07,7.19,2.77,8.76 c-0.48-1.12-3.73-0.82-3.36,1.19c-0.09-0.48-1.16-0.34-1.51-0.21c-0.95,0.37-1.2,1.18-1.24,2c-0.27-0.32-0.88-0.23-1.25,0.07 c-2.07,1.71-0.66,6.29,0.21,6.53c0.87,0.25,0.94-3.72,0.94-3.72s1.55,3.05,1.82,3.52c0.52,0.91,1.1,1.83,1.68,2.71 C570.85,268.67,572.48,270.54,574.11,272.4z"></path> </g> <path class="st44" d="M577.19,258.66c-1.21-2.4-3.16-5.58-3.97-4.63c-0.94,1.1,0.68,3.8,0.66,5.92c-0.73,2.34,0,5.34,1,6.11"></path> </g> <path class="st45" d="M650.27,261.36c0,0-12.32,0-31.9,16.7l15.41,21.97l11.92-18.07"></path> <path class="st45" d="M632.71,338.76c38.92,10.34,68.26,1.38,68.26,1.38s0.09-75.67-34.37-78.59 c-1.79,1.79-4.29,3.56-10.29,2.75c-3.17-0.43-6.04-2.94-6.04-2.94s-17.11,16.89-16.99,32.82 C633.43,314.59,631.33,331.69,632.71,338.76z"></path> <path class="st37" d="M633.79,298.31c0.39-8.54,3.24-18.25,3.25-18.52"></path> <g> <path class="st46" d="M645.64,332.78h-48.15c-1.36,0-2.54-0.92-2.88-2.24l-7.23-28.49c-0.55-2.17,1.09-4.27,3.32-4.27h43.4 c1.56,0,2.91,1.06,3.29,2.56L645.64,332.78z"></path> <path class="st47" d="M616.87,315.28c0,1.74-1.84,3.15-4.11,3.15c-2.27,0-4.11-1.41-4.11-3.15c0-1.74,1.84-3.15,4.11-3.15 C615.03,312.12,616.87,313.54,616.87,315.28z"></path> </g> <g> <g> <path class="st38" d="M635.66,327.87c-1.98,0.17-3.96,0.36-5.94,0.56c-3.18,0.33-12.67,0.77-12.91,1.61 c-0.25,0.84,3.16,0.62,3.72,0.68c0.56,0.06,1.29,0.25,1.29,0.82c0,0.46-1.42,0.69-3.33,0.75c-3.24,0.1-7.51,0-7.51,0 c0.99,1.8,10.38,4.71,12.56,4.71c8.25-0.01,13.99-0.28,22.17-1.37"></path> </g> <path class="st38" d="M690.74,295.39c0,0-3.9,27.18-9.28,34.28c-6.98,9.23-47.58,7.25-47.58,7.25l-2.15-8.31 c0,0,27.44-6.81,30.3-9.67c2.86-2.86,5.8-25.52,5.8-25.52"></path> </g> <path class="st45" d="M666.6,261.55c19.79,2.06,26.67,19.32,24.97,40.32l-27.11-2.07l0.78-17.19"></path> <path class="st37" d="M665.43,299.87c0.94-5.84,1.89-15.63,1.89-15.63"></path> <path class="st37" d="M690.74,301.81c0.62-3.5,1.08-11.14,1.08-11.14"></path> </g> </g> </g> <g> <path class="st38" d="M549.23,232.77c0,0,7.04,14.49,6.58,29.08c-0.24,7.4-14.99,39.93-14.99,39.93s-10.31-21.36-11.11-22.15 c-0.79-0.8,8.09-24.36,8.09-25.45c0-1.1-8.14-18.38-8.14-18.38"></path> <g> <g> <path class="st38" d="M488.02,329.08l4.63,123.23l-11.3,7.11c0,0,30.94,1.78,31.95,0.77c1.01-1.01-1.23-7.96-1.23-7.96 l9.64-121.25L488.02,329.08z"></path> <path class="st41" d="M508.37,460.06l4.63-4.51l-0.64-2.38l-7.12,6.89l-3.41-0.01l-11.98-5.99l-13.08,8.09 c-1.51,0.94-0.85,3.27,0.93,3.27l17.53,0.03l5.62-3.86l1.59,0l-0.01,3.87l11.42,0.02l0.01-5.41L508.37,460.06z"></path> </g> <g> <path class="st38" d="M519.2,330.49l15.71,121.99l-11.31,7.09c0,0,30.94,1.84,31.95,0.83c1.01-1.01-1.21-7.97-1.21-7.97 l-0.83-120.98L519.2,330.49z"></path> <path class="st41" d="M550.61,460.28l4.64-4.5l-0.63-2.38l-7.13,6.87l-3.41-0.01l-11.97-6.02l-13.1,8.07 c-1.51,0.93-0.86,3.26,0.92,3.27l17.53,0.07l5.62-3.85l1.59,0.01l-0.01,3.87l11.42,0.04l0.02-5.41L550.61,460.28z"></path> </g> <path class="st48" d="M541.8,276.6c4.42,2.7,9.37,13.58,11.86,22.68c5.78,21.16,2.43,54.53,2.43,54.53h-69.42 c0,0-1.65-58.16,4.59-77.21"></path> <path class="st40" d="M497.35,274.14c-6.03,27.47-5.32,79.67-5.32,79.67"></path> </g> <g> <path class="st20" d="M521.02,208.59c0,0-2.07,2.08-7.03,2.18c-4.14,0.09-5.94-1.73-5.94-1.73s-10.72,0.56-15.51,6.79 c-8.23,10.7-1.27,60.77-1.27,60.77s37.48,0,50.54,0C542.11,247.26,552.87,215.91,521.02,208.59"></path> <g> <path class="st38" d="M438.4,229.73c-2.7-2.65-12.96-14.79-13.7-14.56c-0.74,0.22,1.52,3.41,0.88,3.48 c-0.64,0.07-5.1-5.23-5.78-4.81c-0.92,0.57,3.88,5.78,3.88,5.78s-1.07-1.03-1.73-0.31c-0.47,0.51,0.45,2.21,0.45,2.21 s-1.17-0.5-1.64,0.04c-0.47,0.54,0.53,1.9,0.53,1.9s-0.93-0.25-1.26,0.37c-0.31,0.59,1.65,4.56,6.81,10.81"></path> </g> <path class="st43" d="M477.03,229.11c0,0-13.82,15.43-16.93,16.12c-3.04,0.67-27.28-20.22-27.28-20.22l-7.54,7.56 c0,0,27.19,36.82,39.74,34.33c12.56-2.49,28.99-23.54,28.99-23.54l-9.99-20.58"></path> <path class="st20" d="M508.05,209.04c0,0-16.1,0.42-32.11,20.13l16.06,18.08l13-13.76"></path> <path class="st20" d="M528.64,210.89c12.81,3.97,22.74,23.74,22.74,23.74l-10.97,10.27"></path> <line class="st49" x1="491.99" y1="247.26" x2="502.71" y2="238.24"></line> <path class="st49" d="M543.79,241.73c0-6.42-1.46-14.55-1.46-14.55"></path> </g> <g> <path class="st38" d="M508.3,201.17l-0.56,7.88c0,0,2.77,3.26,7.54,3.08c5.95-0.22,7.39-3.55,7.39-3.55l-3.62-15.81"></path> <path class="st38" d="M506.76,182.75c-3.52,3.79-8.98,17.1-2.52,20.26c6.81,3.33,15.84,1.21,18.05-7.7 C524.62,185.94,516,172.8,506.76,182.75z"></path> <path class="st50" d="M508.06,204.5c0,0,5.75,0.93,9.58-3.5"></path> <g> <g> <polygon class="st51" points="520.3,192.94 520.3,192.94 520.3,192.94 "></polygon> </g> </g> <g> <g> <path class="st51" d="M520.27,192.92c-0.02,0.03-0.04,0.06-0.05,0.09c-0.01,0.02,0,0.04,0.01,0.05c0.02,0.01,0.04,0,0.05-0.01 c0.02-0.03,0.04-0.06,0.05-0.09c0.01-0.02,0-0.04-0.01-0.05C520.3,192.9,520.28,192.9,520.27,192.92L520.27,192.92z"></path> </g> </g> <g> <path class="st41" d="M507.17,184.81c-1.74,0.73-2.82,1.08-4.14,0.67c0.69-4.34,5.06-8.6,9.6-6.82c4.29-2.11,10,0.17,12.69,3.9 c2.48,3.45,2.21,8.36,1.34,12.48c-0.74,3.5-3.63,7.55-5.89,7.71c-2.13-1.17-4.07-2.5-5.56-6.89 C511.39,191.16,507.54,186.33,507.17,184.81z"></path> </g> <g> <path class="st38" d="M512.69,193.14c0.04-0.3,0.54-1.12,1.54-1.33c1.76-0.36,2.46,1.88,2.01,3.52c-0.28,1.03-0.77,1.8-1.6,2.52 c-1.1,0.94-2.35,1.02-2.82-0.39"></path> </g> <path class="st41" d="M521.4,201c0,0,6.66,2.99,7.74,8.34c1.08,5.36-2.96,9.23-7.74,6.9s-1.98-16-1.98-16"></path> </g> </g> <g> <rect x="14" y="465.63" class="st17" width="773" height="1.74"></rect> </g> <g> <g> <path class="st38" d="M198.89,195.89l0.65,9.45c0,0-2.27,4.96-7.85,4.39c-5.88-0.6-6.88-3.88-6.88-3.88l2.74-17.81"></path> <path class="st38" d="M200.6,176.29c3.53,3.9,8.24,18.24,1.86,21.58c-6.73,3.53-14.86,0.84-17.15-8.39 C182.91,179.78,191.32,166.05,200.6,176.29z"></path> <path class="st44" d="M199.54,199.37c0,0-4.91,0.76-7.82-2.15"></path> <g> <g> <polygon class="st51" points="186.05,188.44 186.05,188.44 186.05,188.44 "></polygon> </g> </g> <g> <g> <path class="st51" d="M186.02,188.46c0.02,0.03,0.04,0.06,0.06,0.08c0.01,0.02,0.03,0.02,0.05,0.01 c0.02-0.01,0.03-0.03,0.01-0.05c-0.02-0.03-0.04-0.06-0.06-0.08c-0.01-0.02-0.03-0.03-0.05-0.01 C186.02,188.42,186.01,188.44,186.02,188.46L186.02,188.46z"></path> </g> </g> <g> <path class="st38" d="M187.13,188.95c-0.1-0.3-0.75-1.04-1.76-1.05c-1.78-0.02-2.03,2.4-1.27,3.98c0.48,0.99,1.1,1.68,2.05,2.25 c1.25,0.75,2.49,0.58,2.67-0.95"></path> </g> <path class="st41" d="M188.85,190.57c1.73,0,0.89-4.53,0.89-4.53s2,0.36,3.52-1.15c1.51-1.49-0.38-2.88-0.38-2.88 s3.29,2.21,5.88,1.09c2.22-0.96,1.78-3.03,1.78-3.03s2.29,1.82,3.4,0.52c2-2.34,1.24-4.87-1.17-7.04 c-2.41-2.17-4.6-1.24-4.6-1.24s-3.49-3.84-7.4-2.96c-3.62,0.81-7.47,2.89-7.56,7.58c0,0-3.17-0.85-4.35,3.38 c-1.08,3.87,0.81,5.17,0.81,5.17s-1.37,3-0.22,5.47c1.25,2.68,4.24,3.36,4.24,3.36s-1.21,2.66,1.69,2.9 c2.9,0.24,3.02-1.97,1.86-2.66c-2.62-1.55-4.47-3.85-2.54-6.27C186.64,185.87,188.85,190.57,188.85,190.57z"></path> </g> <g> <g> <rect x="202.35" y="465.73" class="st35" width="36.24" height="1.62"></rect> <path class="st20" d="M207.51,452.33l-3.14,0.74c0,0-1.2,4.1-1.66,6.95c-0.46,2.85-0.36,5.69-0.36,5.69l36.24,0.03 c0,0-0.95-3.14-9.6-8.21c-3.41-2-5.14-4.28-5.14-4.28L207.51,452.33z"></path> <path class="st38" d="M202.86,437.15l1.51,15.92c0,0,1.52,1.84,7.68,1.84c6.15,0,11.81-1.66,11.81-1.66l0.63-17.98"></path> <line class="st52" x1="226.58" y1="455.88" x2="224.23" y2="459.04"></line> <line class="st52" x1="228.82" y1="457.46" x2="226.78" y2="460.62"></line> <line class="st52" x1="231.1" y1="458.87" x2="229.21" y2="461.88"></line> </g> <path class="st10" d="M222.62,293.07c6.96,81.48,5.43,152.12,5.43,152.12l-27.33,0.83c0,0-8.96-114.03-15.41-130.42 c-3.04-7.71-3.92-26.35-0.5-39.75"></path> <path class="st40" d="M195.7,341.85c6.63,29.5,10.69,103.6,10.69,103.6"></path> <g> <rect x="146.75" y="465.73" class="st35" width="36.24" height="1.62"></rect> <path class="st20" d="M151.91,452.33l-3.14,0.74c0,0-1.2,4.1-1.66,6.95c-0.46,2.85-0.36,5.69-0.36,5.69l36.24,0.03 c0,0-0.95-3.14-9.6-8.21c-3.41-2-5.14-4.28-5.14-4.28L151.91,452.33z"></path> <path class="st38" d="M150.25,439.29l-1.48,13.78c0,0,1.52,1.84,7.68,1.84c6.15,0,11.81-1.66,11.81-1.66l3.62-17.98"></path> <line class="st52" x1="170.98" y1="455.88" x2="168.63" y2="459.04"></line> <line class="st52" x1="173.21" y1="457.46" x2="171.17" y2="460.62"></line> <line class="st52" x1="175.5" y1="458.87" x2="173.6" y2="461.88"></line> </g> <path class="st40" d="M206.56,297.42c0.15,16.14-5.73,15.12-5.73,15.12"></path> <path class="st10" d="M164.37,277.42c-6.71,24.18-3.36,31.03-3.63,40.64c-0.5,17.89-13.81,127.29-13.81,127.29l30.31,0.5 c-2.61,13.54,32.49-146.48,24.41-172.91"></path> <path class="st40" d="M180.24,297.42c-0.62,6.64-10.04,8.18-10.04,8.18"></path> <path class="st40" d="M217.44,297.42c0.77,7.1,6.07,6.64,6.07,6.64"></path> <path class="st40" d="M170.54,295.68c0,32.51-17.3,149.78-17.3,149.78"></path> <path class="st40" d="M193.14,365.05c6.37-34.44,9.21-69.37,9.21-69.37"></path> </g> <g> <g> <path class="st43" d="M231.06,226.32c0,0,7.25,12.19,9.46,14.4c2.2,2.2,19.2-29.32,19.2-29.32l9.71,9.12 c0,0-12.58,44.01-25.22,46.07c-12.64,2.06-30.42-18.5-30.42-18.5l-6.38-18.53"></path> <g> <g> <path class="st43" d="M267.41,226.96l-11.74-8.25c3.47-8.14,10.72-21.47,12.1-21.05c1.38,0.42-1.05,7.41-1.53,9.06 c0.32-1.17,3.58-1.33,3.49,0.71c0.02-0.49,1.1-0.5,1.46-0.42c0.99,0.23,1.35,1,1.51,1.81c0.23-0.35,0.84-0.35,1.25-0.1 c2.28,1.4,1.53,6.13,0.7,6.5c-0.83,0.37-1.45-3.56-1.45-3.56s-1.11,3.23-1.31,3.74c-0.38,0.97-0.83,1.96-1.29,2.91 C269.52,220.53,267.41,226.96,267.41,226.96z"></path> </g> <path class="st44" d="M261.85,211.5c0.86-2.55,2.36-5.96,3.28-5.14c1.08,0.96-0.14,3.86,0.17,5.95 c1.04,2.21,0.75,5.29-0.14,6.19"></path> </g> </g> <path class="st45" d="M199.54,204.42c0,0,10.85-1.6,18.11,2.87c7.98,4.92,15.25,21.2,15.25,21.2l-14.12,4.78"></path> <path class="st45" d="M185.09,203.89c0,0,0.59,3.75,7.22,4.26c6.02,0.46,7.23-3.73,7.23-3.73s15.93,4.95,19.54,24.18 c3.76,20.04,6.46,70.6,6.46,70.6h-65.68c0,0,0.7-58.98,7.34-76.41C173.85,205.35,185.09,203.89,185.09,203.89z"></path> <g> <path class="st20" d="M192.71,277.79h48.15c1.36,0,2.54-0.92,2.88-2.24l7.23-28.49c0.55-2.17-1.09-4.27-3.32-4.27h-43.4 c-1.56,0-2.91,1.06-3.29,2.56L192.71,277.79z"></path> <path class="st53" d="M219.25,260.29c0,1.74,1.84,3.15,4.11,3.15c2.27,0,4.11-1.41,4.11-3.15c0-1.74-1.84-3.15-4.11-3.15 C221.09,257.14,219.25,258.55,219.25,260.29z"></path> </g> <path class="st46" d="M154.28,239.21"></path> <g> <g> <path class="st38" d="M203.14,272.89c1.98,0.17,3.96,0.36,5.94,0.56c3.18,0.33,12.67,0.77,12.91,1.61 c0.25,0.84-3.16,0.62-3.72,0.68c-0.56,0.06-1.29,0.25-1.29,0.82c0,0.46,1.42,0.69,3.33,0.75c3.24,0.1,10.01,0.49,10.01,0.49 c-2.12,2.53-12.89,4.07-15.06,4.22c-8.7,0.59-17.7,0.46-26.15-0.03"></path> </g> <path class="st38" d="M153.42,239.55c0,0,0.81,28.02,6.18,35.13c6.98,9.23,45.3,7.25,45.3,7.25l2.15-8.31 c0,0-25.98-5.35-28.84-8.21c-2.86-2.86-1.52-27.83-1.52-27.83"></path> </g> <path class="st45" d="M185.09,203.89c-24.27,2.69-33.75,13.79-32,37.47l25.45-1.65l-1.05-17.09"></path> <path class="st37" d="M177.35,239.79c0-9.11,0-11.8,0-11.8"></path> <path class="st37" d="M219.97,232.65c0,0-0.88-6.01-3.08-11.39"></path> </g> </g> </g> </svg> 