<?xml version="1.0" encoding="UTF-8"?> <!-- Generator: Adobe Illustrator 23.0.2, SVG Export Plug-In . SVG Version: 6.00 Build 0) --> <svg xmlns="http://www.w3.org/2000/svg" xmlns:xlink="http://www.w3.org/1999/xlink" version="1.1" id="Layer_1" x="0px" y="0px" viewBox="0 0 36 36" style="enable-background:new 0 0 36 36;" xml:space="preserve"> <style type="text/css"> .st0{display:none;} .st1{display:inline;fill:#FCCE04;} .st2{display:inline;} .st3{fill:#D41735;} .st4{display:inline;fill:#F2F2F2;} .st5{clip-path:url(#SVGID_2_);} .st6{clip-path:url(#SVGID_4_);fill:url(#SVGID_5_);} .st7{clip-path:url(#SVGID_7_);} .st8{clip-path:url(#SVGID_9_);fill:#3C3D3B;} .st9{clip-path:url(#SVGID_11_);fill:#3C3D3B;} .st10{clip-path:url(#SVGID_13_);fill:#3C3D3B;} .st11{display:inline;fill:#301506;} .st12{fill:#301506;} .st13{fill:#FAB80A;} .st14{display:inline;fill-rule:evenodd;clip-rule:evenodd;fill:#004896;} .st15{display:inline;fill-rule:evenodd;clip-rule:evenodd;fill:#FDBD10;} .st16{display:inline;fill:#F26322;} .st17{display:inline;fill:#FFFFFF;} .st18{display:inline;fill:#95BF47;} .st19{fill:#FFFFFF;} .st20{fill:#95BF47;} .st21{display:inline;fill:#F0992A;} .st22{fill:#9B5C8F;} </style> <g id="DHL" class="st0"> <circle class="st1" cx="18" cy="18" r="17.5"></circle> <g class="st2"> <path class="st3" d="M9.3,16.2l-0.9,1c0,0,4.4,0,4.7,0c0.3,0,0.3,0.1,0.1,0.3c-0.1,0.3-0.3,0.5-0.4,0.5c-0.1,0.1-0.2,0.2,0.2,0.2 s1.9,0,1.9,0s0.3-0.3,0.6-0.7c0.3-0.4,0-1.3-1.2-1.3C13.1,16.2,9.3,16.2,9.3,16.2L9.3,16.2L9.3,16.2z"></path> <path class="st3" d="M8.1,19.7l1.7-2.1c0,0,1.9,0,2.2,0s0.3,0.1,0.1,0.3c-0.1,0.2-0.3,0.4-0.4,0.5s-0.2,0.2,0.2,0.2s2.9,0,2.9,0 c-0.3,0.3-1,1.1-2.4,1.1C11.1,19.7,8.1,19.7,8.1,19.7L8.1,19.7L8.1,19.7z"></path> <polygon class="st3" points="18,18.6 17,19.7 14.5,19.7 15.5,18.6 "></polygon> <polygon class="st3" points="21.7,18.3 15.7,18.3 17.4,16.2 19.8,16.2 18.9,17.4 20,17.4 21,16.2 23.4,16.2 "></polygon> <polygon class="st3" points="21.6,18.6 20.6,19.7 18.1,19.7 19,18.6 "></polygon> <polygon class="st3" points="4.5,19 8.2,19 8,19.3 4.5,19.3 "></polygon> <polygon class="st3" points="4.5,18.6 8.5,18.6 8.3,18.9 4.5,18.9 "></polygon> <polygon class="st3" points="4.5,19.5 7.8,19.5 7.5,19.7 4.5,19.7 "></polygon> <polygon class="st3" points="31.5,19.3 27.8,19.3 28.1,19 31.5,19 "></polygon> <polygon class="st3" points="31.5,19.7 27.5,19.7 27.7,19.5 31.5,19.5 "></polygon> <polygon class="st3" points="28.5,18.6 31.5,18.6 31.5,18.9 28.2,18.9 "></polygon> <polygon class="st3" points="26.9,16.2 25.2,18.3 22.5,18.3 24.2,16.2 "></polygon> <path class="st3" d="M22.4,18.6c0,0-0.2,0.3-0.3,0.3c-0.3,0.3,0,0.9,1,0.9c1.1,0,4,0,4,0l1-1.1L22.4,18.6L22.4,18.6L22.4,18.6z"></path> </g> </g> <g id="DPD" class="st0"> <circle class="st4" cx="18" cy="18" r="17.6"></circle> <g class="st2"> <g> <g> <defs> <rect id="SVGID_1_" x="4.5" y="12.1" width="27" height="11.8"></rect> </defs> <clipPath id="SVGID_2_"> <use xlink:href="#SVGID_1_" style="overflow:visible;"></use> </clipPath> <g class="st5"> <g> <defs> <path id="SVGID_3_" d="M10.4,12.9l-4.1,2.3l4.5,2.6l0.1,0.1v3.9c0,0.1-0.1,0.1-0.1,0.1L10.6,22c0,0-0.1,0-0.2,0l-0.3-0.2 l-0.1-0.1v-3.5c0-0.1-0.1-0.1-0.1-0.1l-3.9-2.3v4.6c0,0.1,0.1,0.3,0.2,0.3l4.1,2.4c0.2,0.1,0.2,0.1,0.3,0l4-2.4 c0.1-0.1,0.2-0.2,0.2-0.3V16l-2.7,1.6c0,0-0.1,0-0.2,0l-0.3-0.2c0.2-0.1,0.2-0.2,0.2-0.3v-0.3c0,0,0-0.1,0.1-0.1l2.9-1.7 l-4.1-2.3c0,0-0.1,0-0.2,0C10.5,12.8,10.5,12.9,10.4,12.9"></path> </defs> <clipPath id="SVGID_4_"> <use xlink:href="#SVGID_3_" style="overflow:visible;"></use> </clipPath> <linearGradient id="SVGID_5_" gradientUnits="userSpaceOnUse" x1="-938.2205" y1="528.1632" x2="-938.1649" y2="528.1632" gradientTransform="matrix(159.2892 -91.9657 91.9657 159.2892 100881.6641 -170394.2344)"> <stop offset="0" style="stop-color:#AF1E44"></stop> <stop offset="0.1523" style="stop-color:#AF1E44"></stop> <stop offset="0.2043" style="stop-color:#BD213C"></stop> <stop offset="0.2943" style="stop-color:#CE2533"></stop> <stop offset="0.4064" style="stop-color:#D9282C"></stop> <stop offset="0.5637" style="stop-color:#E02A28"></stop> <stop offset="1" style="stop-color:#E22A27"></stop> </linearGradient> <polygon class="st6" points="1.6,15.4 12.9,8.9 19.6,20.6 8.4,27.1 "></polygon> </g> </g> </g> <g> <defs> <rect id="SVGID_6_" x="4.5" y="12.1" width="27" height="11.8"></rect> </defs> <clipPath id="SVGID_7_"> <use xlink:href="#SVGID_6_" style="overflow:visible;"></use> </clipPath> <g class="st7"> <g> <defs> <rect id="SVGID_8_" x="4.5" y="12.1" width="27" height="11.8"></rect> </defs> <clipPath id="SVGID_9_"> <use xlink:href="#SVGID_8_" style="overflow:visible;"></use> </clipPath> <path class="st8" d="M21.5,20.4V15h-1v1.7c-0.1-0.1-0.5-0.1-0.9-0.1c-1,0-1.9,0.9-1.8,1.9c0,1.4,0.9,1.9,2.1,2 C20.5,20.7,21.3,20.4,21.5,20.4 M20.5,19.7c-0.1,0-0.5,0.1-0.7,0c-0.7-0.1-1-0.4-1-1s0.3-1.1,1-1.1c0.2,0,0.6,0.1,0.6,0.1 L20.5,19.7z"></path> </g> <g> <defs> <rect id="SVGID_10_" x="4.5" y="12.1" width="27" height="11.8"></rect> </defs> <clipPath id="SVGID_11_"> <use xlink:href="#SVGID_10_" style="overflow:visible;"></use> </clipPath> <path class="st9" d="M29.8,20.4V15h-1v1.7c-0.1-0.1-0.5-0.1-0.9-0.1c-1,0-1.9,0.9-1.8,1.9c0,1.4,0.9,1.9,2.1,2 C28.9,20.7,29.7,20.4,29.8,20.4 M28.8,19.7c-0.1,0-0.5,0.1-0.7,0c-0.7-0.1-1-0.4-1-1s0.3-1.1,1-1.1c0.2,0,0.6,0.1,0.6,0.1 L28.8,19.7z"></path> </g> <g> <defs> <rect id="SVGID_12_" x="4.5" y="12.1" width="27" height="11.8"></rect> </defs> <clipPath id="SVGID_13_"> <use xlink:href="#SVGID_12_" style="overflow:visible;"></use> </clipPath> <path class="st10" d="M22.1,17v5.1h1v-4.4c0.1,0,0.5-0.1,0.7-0.1c0.7,0,1,0.4,1,1c0,0.3-0.1,0.7-0.3,0.9 c-0.2,0.2-0.4,0.3-0.8,0.3v0.9c0.4,0,1-0.1,1.3-0.3c0.5-0.3,0.9-1,0.8-1.7c0-1.2-0.7-1.9-2.1-1.9C23.1,16.7,22.3,16.9,22.1,17 "></path> </g> </g> </g> </g> </g> </g> <g id="UPS" class="st0"> <circle class="st11" cx="18" cy="18" r="17.6"></circle> <g transform="matrix(1.25 0 0 -1.25 -47.372 728.76)" class="st2"> <g transform="translate(.36060 .36060)"> <path class="st12" d="M45.5,571.5l0.1-6.7l1.5-1.9l4.5-2.3l5.5,2.7l1.1,2.8l-0.1,8.8l-4.2,0.1l-4.4-0.7l-4-2.3L45.5,571.5z"></path> <path class="st13" d="M52,576.3c-2.6,0-4.9-0.5-6.8-1.5v-8c0-1.7,0.6-3.1,1.9-4c1.1-0.9,4.5-2.4,4.9-2.6c0.4,0.2,3.9,1.7,4.9,2.6 c1.2,1,1.9,2.4,1.9,4v8C56.9,575.8,54.6,576.3,52,576.3L52,576.3z M55.9,574.8c0.8,0,1.5-0.1,2.3-0.2v-7.9c0-1.5-0.6-2.8-1.6-3.6 c-1-0.8-3.8-2-4.6-2.4c-0.8,0.3-3.6,1.6-4.6,2.4c-1.1,0.9-1.6,2.1-1.6,3.6v4.6C48.8,574.1,52.5,574.8,55.9,574.8L55.9,574.8z M52.2,571.1c-0.6,0-1.1-0.2-1.6-0.4V563h1.2v2.5c0.1,0,0.3-0.1,0.6-0.1c1.3,0,2.1,1.2,2.1,2.9C54.3,570.1,53.6,571.1,52.2,571.1 L52.2,571.1z M56.2,571.1c-0.8,0-1.6-0.6-1.6-1.5c0-0.6,0.2-1.1,1.1-1.7c0.5-0.3,0.7-0.5,0.7-0.9s-0.2-0.6-0.7-0.6 c-0.4,0-0.8,0.2-1.1,0.5v-1.1c0.4-0.2,0.8-0.4,1.3-0.4c1.1,0,1.7,0.8,1.7,1.6c0,0.7-0.2,1.2-1.1,1.8c-0.4,0.2-0.8,0.4-0.8,0.9 c0,0.4,0.3,0.6,0.7,0.6c0.4,0,0.8-0.2,1.1-0.5v1.1C57.3,570.9,56.9,571.1,56.2,571.1L56.2,571.1z M46.4,571v-3.7 c0-1.2,0.6-1.9,1.8-1.9c0.7,0,1.3,0.2,1.8,0.5v5.1h-1.2v-4.5c-0.2-0.1-0.3-0.2-0.6-0.2c-0.6,0-0.6,0.5-0.6,0.8v3.8H46.4L46.4,571 z M52.2,570.1c0.6,0,1-0.6,1-1.9s-0.3-1.9-1-1.9c-0.2,0-0.3,0-0.4,0.1v3.6C51.8,570.1,52,570.1,52.2,570.1L52.2,570.1z"></path> </g> </g> </g> <g id="GLS" class="st0"> <circle class="st4" cx="18" cy="18" r="17.6"></circle> <polygon class="st14" points="26.2,20.2 27.1,15.5 25.5,15.5 24.3,21.7 27.2,21.7 27.5,20.2 "></polygon> <path class="st14" d="M30.8,16.9c0.3,0,0.6,0.1,0.9,0.2l0.3-1.4c-0.4-0.1-0.7-0.1-1.1-0.1c-1.7,0-2.5,1-2.5,2.2 c0,1.5,1.5,1.4,1.5,2.2c0,0.4-0.3,0.5-0.7,0.5c-0.4,0-0.8-0.1-1.1-0.2l-0.3,1.4c0.4,0.1,0.8,0.1,1.3,0.1c1.5,0,2.6-1,2.6-2.3 c0-1.4-1.5-1.4-1.5-2.2C30.1,17.1,30.3,16.9,30.8,16.9"></path> <path class="st14" d="M23,15.5c-2.3,0-3.9,1.8-3.9,4c0,1.4,0.7,2.3,2.5,2.3c0.7,0,1.4-0.1,2.1-0.4l0.5-3h-1.6l-0.4,1.8 c-0.2,0-0.3,0-0.5,0c-0.8,0-1.1-0.5-1.1-1c0-1.1,0.6-2.2,2-2.2c0.4,0,0.8,0.1,1.2,0.2H24c0.1,0.1,0.3,0.1,0.4,0.2l0.4-1.6 C24.3,15.6,23.7,15.5,23,15.5"></path> <path class="st15" d="M11.2,15.6l-0.5,2h3c-2.4,3.6-7.2,3-8.6,1.5c-1.1-1.3-0.2-3.5,3.1-4.9c-3.2,1-5.1,3.5-4,5.3 c1.2,2,5,2.8,8.3,1.8c2.3-0.8,3.2-1.9,3.5-2.4l-0.5,2.9h2.2l1.2-6.2C18.9,15.6,11.2,15.6,11.2,15.6z"></path> </g> <g id="Magento" class="st0"> <circle class="st16" cx="18" cy="18" r="17.6"></circle> <polygon class="st17" points="18,8.2 9.5,13.1 9.5,22.9 11.9,24.3 11.9,14.5 18,11 24.1,14.5 24.1,24.3 26.5,22.9 26.5,13 "></polygon> <polygon class="st17" points="19.2,24.3 18,25 16.7,24.3 16.7,14.5 14.4,15.9 14.4,25.7 18,27.8 21.6,25.7 21.6,15.9 19.2,14.5 "></polygon> </g> <g id="Shopify" class="st0"> <circle class="st18" cx="18" cy="18" r="17.6"></circle> <g class="st2"> <path class="st19" d="M24.4,12.1c0-0.1-0.1-0.2-0.2-0.2c-0.1,0-1.5-0.1-1.5-0.1s-1-1-1.2-1.2c-0.1-0.1-0.3-0.1-0.4-0.1 c0,0-0.2,0.1-0.5,0.2c-0.3-1-0.9-1.9-2-1.9h-0.1c-0.3-0.4-0.7-0.5-1-0.5c-2.5,0-3.7,3.1-4.1,4.7c-0.9,0.3-1.6,0.5-1.7,0.5 C11,13.8,11,13.8,11,14.3c-0.1,0.4-1.5,11.3-1.5,11.3l11,2.1l6-1.3C26.5,26.3,24.4,12.2,24.4,12.1z M19.9,11 c-0.3,0.1-0.6,0.2-0.9,0.3c0-0.1,0-0.2,0-0.2c0-0.6-0.1-1.1-0.2-1.5C19.3,9.7,19.7,10.3,19.9,11z M18.1,9.7 c0.2,0.4,0.2,0.9,0.2,1.7v0.1c-0.6,0.2-1.2,0.4-1.9,0.6C16.8,10.7,17.5,10,18.1,9.7z M17.3,9c0.1,0,0.2,0,0.3,0.1 c-0.8,0.4-1.6,1.3-2,3.2c-0.5,0.2-1,0.3-1.5,0.5C14.5,11.4,15.5,9,17.3,9z"></path> <path class="st19" d="M24.2,12c-0.1,0-1.5-0.1-1.5-0.1s-1-1-1.2-1.2c-0.1-0.1-0.1-0.1-0.2-0.1l-0.9,17l5.9-1.3 c0,0-2.1-14.1-2.1-14.3C24.3,12,24.3,12,24.2,12z"></path> <path class="st20" d="M18.5,15.2l-0.7,2.2c0,0-0.6-0.3-1.4-0.3c-1.2,0-1.2,0.7-1.2,0.9c0,1,2.6,1.4,2.6,3.7c0,1.9-1.2,3-2.8,3 c-1.9,0-2.9-1.2-2.9-1.2l0.5-1.7c0,0,1,0.9,1.9,0.9c0.5,0,0.8-0.5,0.8-0.8c0-1.3-2.2-1.4-2.2-3.5c0-1.8,1.3-3.6,3.9-3.6 C18,15,18.5,15.2,18.5,15.2z"></path> </g> </g> <g id="Amazon" class="st0"> <circle class="st21" cx="18" cy="18" r="17.6"></circle> <path class="st2" d="M8.5,22.8c0.1-0.1,0.2-0.1,0.3,0c2.9,1.7,6,2.5,9.5,2.5c2.3,0,4.5-0.5,6.7-1.3c0.1,0,0.2-0.1,0.2-0.1 c0.1-0.1,0.2-0.1,0.2-0.1c0.2-0.1,0.3,0,0.4,0.1c0.1,0.2,0.1,0.2-0.1,0.4c-0.2,0.2-0.5,0.3-0.8,0.5c-1,0.6-2.1,1.1-3.4,1.4 c-1.2,0.3-2.4,0.5-3.6,0.5c-1.8,0-3.5-0.3-5.1-0.9c-1.6-0.6-3.1-1.5-4.3-2.7c-0.1-0.1-0.1-0.2-0.1-0.2C8.5,22.9,8.5,22.8,8.5,22.8z M13.7,17.8c0-0.8,0.2-1.4,0.6-2.1c0.4-0.5,0.9-1,1.6-1.3c0.6-0.2,1.4-0.5,2.3-0.6c0.3,0,0.8-0.1,1.5-0.2v-0.3 c0-0.8-0.1-1.2-0.2-1.5c-0.2-0.4-0.6-0.5-1.1-0.5h-0.2c-0.4,0-0.7,0.2-1,0.4c-0.3,0.2-0.5,0.5-0.5,0.8c-0.1,0.2-0.2,0.4-0.4,0.4 l-2-0.2c-0.2-0.1-0.3-0.2-0.3-0.3c0,0,0-0.1,0-0.2c0.2-1,0.7-1.8,1.4-2.3c0.8-0.5,1.7-0.8,2.7-0.8h0.5c1.3,0,2.4,0.3,3.1,1 c0.2,0.2,0.2,0.2,0.3,0.4c0.1,0.2,0.2,0.2,0.2,0.4c0.1,0.1,0.1,0.2,0.2,0.5c0.1,0.2,0.1,0.3,0.1,0.4s0.1,0.2,0.1,0.5 c0,0.2,0,0.4,0,0.5v4.2c0,0.3,0.1,0.6,0.2,0.8s0.2,0.5,0.2,0.5c0.1,0.1,0.2,0.3,0.4,0.5c0.1,0.1,0.1,0.2,0.1,0.3s-0.1,0.2-0.2,0.2 c-1,0.8-1.4,1.3-1.5,1.4c-0.2,0.1-0.3,0.2-0.5,0c-0.2-0.2-0.3-0.3-0.5-0.4c-0.2-0.2-0.2-0.2-0.2-0.3s-0.2-0.2-0.2-0.3 C20,19.5,20,19.3,20,19.3c-0.6,0.7-1.3,1.1-1.9,1.3c-0.4,0.2-0.9,0.2-1.4,0.2c-0.9,0-1.6-0.3-2.2-0.8C14,19.6,13.7,18.8,13.7,17.8z M16.7,17.4c0,0.5,0.1,0.8,0.3,1.1c0.2,0.2,0.5,0.4,0.9,0.4c0,0,0.1,0,0.2,0c0.1,0,0.1,0,0.2,0c0.5-0.2,0.8-0.5,1.1-0.9 c0.2-0.2,0.2-0.5,0.3-0.7c0.1-0.2,0.1-0.5,0.1-0.6s0-0.5,0-0.8v-0.5c-0.7,0-1.1,0.1-1.5,0.2C17.2,15.8,16.7,16.5,16.7,17.4z M23.9,23.1c0-0.1,0.1-0.1,0.1-0.2c0.3-0.2,0.5-0.3,0.8-0.4c0.5-0.2,0.8-0.2,1.3-0.2c0.2,0,0.2,0,0.3,0c0.5,0.1,0.8,0.2,0.9,0.2 c0.1,0.1,0.1,0.2,0.1,0.3V23c0,0.4-0.1,0.9-0.3,1.4c-0.2,0.5-0.5,1-0.9,1.3c-0.1,0.1-0.1,0.1-0.2,0.1H26c-0.1,0-0.1-0.1-0.1-0.2 c0.5-1,0.6-1.7,0.6-2.1c0-0.2,0-0.2-0.1-0.3c-0.2-0.2-0.5-0.2-1-0.2c-0.2,0-0.5,0-0.7,0C24.5,22.9,24.2,23,23.9,23.1 C23.9,23,23.9,23,23.9,23.1C23.9,23.2,23.9,23.2,23.9,23.1L23.9,23.1z"></path> </g> <g id="WooCommerce"> <circle class="st22" cx="18" cy="18" r="17.6"></circle> <g> <path class="st19" d="M9.4,11.8h17.1c1.1,0,1.9,0.8,1.9,1.9v6.6c0,1.1-0.8,1.9-1.9,1.9h-6.2l0.8,2.1l-3.6-2.1H9.4 c-1.1,0-1.9-0.8-1.9-1.9v-6.6C7.4,12.6,8.3,11.8,9.4,11.8L9.4,11.8z"></path> <path class="st22" d="M8.6,13.5c0.1-0.2,0.3-0.3,0.5-0.3c0.4,0,0.7,0.2,0.8,0.6c0.3,1.8,0.6,3.3,0.8,4.6l1.9-3.5 c0.2-0.3,0.4-0.5,0.7-0.5c0.3,0,0.6,0.3,0.7,0.8c0.3,1.2,0.5,2.1,0.8,3c0.3-2.2,0.6-3.7,1.1-4.7c0.2-0.3,0.3-0.3,0.6-0.3 c0.2,0,0.3,0.1,0.5,0.2c0.2,0.2,0.3,0.3,0.3,0.5c0,0.2,0,0.3-0.1,0.4c-0.3,0.6-0.6,1.7-0.8,3.1c-0.3,1.4-0.3,2.4-0.3,3.3 c0,0.3,0,0.4-0.1,0.6c-0.1,0.2-0.3,0.3-0.4,0.3c-0.3,0-0.4-0.1-0.7-0.3c-0.8-0.8-1.4-2-1.9-3.6c-0.6,1.1-0.9,1.9-1.3,2.4 c-0.5,0.9-0.9,1.4-1.3,1.5c-0.3,0-0.4-0.2-0.6-0.6c-0.4-1.1-0.9-3.3-1.4-6.5C8.5,13.9,8.5,13.7,8.6,13.5z M27.1,14.9 c-0.3-0.5-0.8-0.8-1.3-1c-0.2,0-0.3-0.1-0.4-0.1c-0.8,0-1.5,0.4-2,1.3c-0.4,0.8-0.7,1.5-0.7,2.4c0,0.7,0.2,1.3,0.4,1.7 c0.3,0.5,0.8,0.8,1.3,1c0.2,0,0.3,0.1,0.4,0.1c0.8,0,1.5-0.4,2-1.3c0.4-0.8,0.7-1.5,0.7-2.4C27.5,15.9,27.4,15.3,27.1,14.9z M26,17.2c-0.1,0.6-0.3,1-0.7,1.3c-0.3,0.3-0.5,0.3-0.7,0.3c-0.2-0.1-0.3-0.3-0.5-0.6c-0.1-0.3-0.2-0.5-0.2-0.8s0-0.4,0.1-0.6 c0.1-0.3,0.3-0.7,0.4-1c0.3-0.4,0.6-0.6,0.9-0.5c0.2,0.1,0.3,0.3,0.5,0.6c0.1,0.3,0.2,0.5,0.2,0.8C26.1,16.8,26,17.1,26,17.2z M21.7,14.9c-0.3-0.5-0.8-0.8-1.3-1c-0.2,0-0.3-0.1-0.4-0.1c-0.8,0-1.5,0.4-2,1.3c-0.4,0.8-0.7,1.5-0.7,2.4c0,0.7,0.2,1.3,0.4,1.7 c0.3,0.5,0.8,0.8,1.3,1c0.2,0,0.3,0.1,0.4,0.1c0.8,0,1.5-0.4,2-1.3c0.4-0.8,0.7-1.5,0.7-2.4C22.1,15.9,22,15.3,21.7,14.9z M20.6,17.2c-0.1,0.6-0.3,1-0.7,1.3c-0.3,0.3-0.5,0.3-0.7,0.3c-0.2-0.1-0.3-0.3-0.5-0.6c-0.1-0.3-0.2-0.5-0.2-0.8s0-0.4,0.1-0.6 c0.1-0.3,0.3-0.7,0.4-1c0.3-0.4,0.6-0.6,0.9-0.5c0.2,0.1,0.3,0.3,0.5,0.6c0.1,0.3,0.2,0.5,0.2,0.8C20.7,16.8,20.7,17.1,20.6,17.2 L20.6,17.2L20.6,17.2z"></path> </g> </g> </svg> 