<?xml version="1.0" encoding="UTF-8" standalone="no"?> <!-- Created with Inkscape (http://www.inkscape.org/) --> <svg xmlns:dc="http://purl.org/dc/elements/1.1/" xmlns:cc="http://creativecommons.org/ns#" xmlns:rdf="http://www.w3.org/1999/02/22-rdf-syntax-ns#" xmlns:svg="http://www.w3.org/2000/svg" xmlns="http://www.w3.org/2000/svg" xmlns:sodipodi="http://sodipodi.sourceforge.net/DTD/sodipodi-0.dtd" xmlns:inkscape="http://www.inkscape.org/namespaces/inkscape" width="393.97653" height="363.42227" id="svg2" version="1.1" inkscape:version="0.47 r22583" sodipodi:docname="New document 1"><defs id="defs4"></defs><metadata id="metadata7"></metadata><g inkscape:label="Layer 1" inkscape:groupmode="layer" id="layer1" transform="translate(-95.190366,-433.42145)"><rect style="fill:#e30a17;fill-opacity:1;fill-rule:nonzero;stroke:none" id="rect2816" width="228.57143" height="228.57143" x="540.95331" y="128.81105" transform="matrix(0.70710678,0.70710678,-0.70710678,0.70710678,0,0)"></rect><path sodipodi:type="arc" style="fill:#e30a17;fill-opacity:1;fill-rule:nonzero;stroke:none" id="path2820" sodipodi:cx="294.28571" sodipodi:cy="400.93362" sodipodi:rx="117.14286" sodipodi:ry="117.14286" d="m 411.42857,400.93362 c 0,64.69622 -52.44665,117.14286 -117.14286,117.14286 -64.69622,0 -117.14286,-52.44664 -117.14286,-117.14286 0,-64.69621 52.44664,-117.14286 117.14286,-117.14286 64.69621,0 117.14286,52.44665 117.14286,117.14286 z" transform="translate(-81.952479,151.13084)"></path><path transform="translate(77.738331,149.63069)" d="m 411.42857,400.93362 c 0,64.69622 -52.44665,117.14286 -117.14286,117.14286 -64.69622,0 -117.14286,-52.44664 -117.14286,-117.14286 0,-64.69621 52.44664,-117.14286 117.14286,-117.14286 64.69621,0 117.14286,52.44665 117.14286,117.14286 z" sodipodi:ry="117.14286" sodipodi:rx="117.14286" sodipodi:cy="400.93362" sodipodi:cx="294.28571" id="path2822" style="fill:#e30a17;fill-opacity:1;fill-rule:nonzero;stroke:none" sodipodi:type="arc"></path></g></svg> 